<svg width="26" height="23" viewBox="0 0 26 23" fill="none" xmlns="http://www.w3.org/2000/svg">
<path id="Vector" d="M1.59402 10.0166C1.59402 10.0166 13.0932 4.96763 17.0813 3.18977C18.6101 2.47869 23.7947 0.20303 23.7947 0.20303C23.7947 0.20303 26.1876 -0.792484 25.9882 1.62529C25.9217 2.62091 25.39 6.10536 24.8582 9.87434C24.0606 15.2078 23.1965 21.039 23.1965 21.039C23.1965 21.039 23.0635 22.6746 21.9336 22.959C20.8036 23.2435 18.9424 21.9635 18.6101 21.679C18.3442 21.4657 13.6249 18.2656 11.8967 16.7011C11.4314 16.2745 10.8997 15.4212 11.9631 14.4256C14.3561 12.0788 17.2142 9.16326 18.9424 7.31435C19.7401 6.46095 20.5377 4.46982 17.2142 6.8876C12.495 10.3721 7.84212 13.6433 7.84212 13.6433C7.84212 13.6433 6.77858 14.3544 4.78453 13.7144C2.79039 13.0745 0.463968 12.2211 0.463968 12.2211C0.463968 12.2211 -1.1312 11.1544 1.59402 10.0166Z" fill="#3A63ED"/>
</svg>
