<svg width="10" height="10" viewBox="0 0 10 10" fill="none" xmlns="http://www.w3.org/2000/svg">
<path d="M2.78212 6.4221C2.8478 6.48779 2.93693 6.52472 3.02983 6.52472H6.96612C7.05902 6.52472 7.14814 6.48779 7.21383 6.4221C7.27952 6.35641 7.31645 6.26736 7.31645 6.17446C7.31645 6.08156 7.27952 5.99244 7.21383 5.92675C7.14814 5.86106 7.05902 5.8242 6.96612 5.8242H3.02983C2.93693 5.8242 2.8478 5.86106 2.78212 5.92675C2.71643 5.99244 2.6795 6.08156 2.6795 6.17446C2.6795 6.26736 2.71643 6.35641 2.78212 6.4221Z" fill="#6E7191"/>
<path d="M3.02983 8.04405C2.93693 8.04405 2.8478 8.00712 2.78212 7.94143C2.71643 7.87574 2.6795 7.78669 2.6795 7.69379C2.6795 7.60089 2.71643 7.51177 2.78212 7.44608C2.8478 7.38039 2.93693 7.34353 3.02983 7.34353H5.41885C5.51175 7.34353 5.60088 7.38039 5.66657 7.44608C5.73225 7.51177 5.7689 7.60089 5.7689 7.69379C5.7689 7.78669 5.73225 7.87574 5.66657 7.94143C5.60088 8.00712 5.51175 8.04405 5.41885 8.04405H3.02983Z" fill="#6E7191"/>
<path fill-rule="evenodd" clip-rule="evenodd" d="M3.6046 10H6.3954C8.92116 10 10 8.92116 10 6.3954V3.6046C10 1.08001 8.92087 0 6.3954 0H3.6046C1.08001 0 0 1.08001 0 3.6046V6.3954C0 8.92116 1.08001 10 3.6046 10ZM3.02653 0.719077C3.20693 0.704596 3.39944 0.697627 3.6046 0.697627H6.3954C6.60058 0.697627 6.7931 0.704602 6.97352 0.719098V3.47915C6.98794 3.59287 6.97331 3.70838 6.931 3.81491C6.88868 3.92144 6.82006 4.01551 6.73154 4.08834C6.61644 4.12956 6.49266 4.14048 6.37212 4.12003C6.25158 4.09958 6.13833 4.04846 6.04326 3.97158L5.43028 3.60408C5.29869 3.53088 5.15061 3.49246 5.00003 3.49246C4.84945 3.49246 4.70136 3.53088 4.56978 3.60408L3.9568 3.97158C3.86127 4.04758 3.74805 4.09816 3.62769 4.11857C3.50733 4.13899 3.38376 4.12859 3.26851 4.08834C3.17919 4.01618 3.10999 3.9222 3.06761 3.81549C3.02522 3.70877 3.01107 3.59293 3.02653 3.47915V0.719077ZM2.32599 0.828707V3.47915C2.30497 3.71724 2.34932 3.95654 2.45425 4.17129C2.55918 4.38603 2.72071 4.56808 2.92145 4.69781C3.08515 4.78796 3.26932 4.8344 3.4562 4.83266C3.75921 4.82363 4.05429 4.73374 4.31087 4.5723L4.92559 4.20363C4.97186 4.18503 5.02353 4.18503 5.06979 4.20363L5.6851 4.5723C5.8846 4.7154 6.11876 4.80251 6.36329 4.82458C6.60781 4.84665 6.85379 4.80288 7.07569 4.69781C7.27642 4.56808 7.43796 4.38603 7.54289 4.17129C7.64782 3.95654 7.69216 3.71724 7.67115 3.47915V0.828077C8.85217 1.12497 9.30237 1.95654 9.30237 3.6046V6.3954C9.30237 8.53965 8.53965 9.30237 6.3954 9.30237H3.6046C1.46035 9.30237 0.697627 8.53965 0.697627 6.3954V3.6046C0.697627 1.9577 1.14667 1.12614 2.32599 0.828707Z" fill="#6E7191"/>
</svg>
