<svg width="18" height="15" viewBox="0 0 18 15" fill="none" xmlns="http://www.w3.org/2000/svg">
<path d="M11.0943 5.27017H0.62798C0.284684 5.27017 0 4.9945 0 4.66206C0 4.32963 0.284684 4.05396 0.62798 4.05396H11.0943C11.4376 4.05396 11.7223 4.32963 11.7223 4.66206C11.7223 4.9945 11.4376 5.27017 11.0943 5.27017Z" fill="#6E7191"/>
<path d="M5.6522 11.7567H3.97759C3.63429 11.7567 3.34961 11.4811 3.34961 11.1486C3.34961 10.8162 3.63429 10.5405 3.97759 10.5405H5.6522C5.9955 10.5405 6.28018 10.8162 6.28018 11.1486C6.28018 11.4811 5.9955 11.7567 5.6522 11.7567Z" fill="#6E7191"/>
<path d="M11.0944 11.7567H7.74517C7.40187 11.7567 7.11719 11.4811 7.11719 11.1486C7.11719 10.8162 7.40187 10.5405 7.74517 10.5405H11.0944C11.4377 10.5405 11.7224 10.8162 11.7224 11.1486C11.7224 11.4811 11.4377 11.7567 11.0944 11.7567Z" fill="#6E7191"/>
<path d="M13.6565 15H4.34562C1.01314 15 0 14.027 0 10.8324V4.16757C0 0.972973 1.01314 0 4.34562 0H11.0943C11.4376 0 11.7223 0.275676 11.7223 0.608108C11.7223 0.940541 11.4376 1.21622 11.0943 1.21622H4.34562C1.71648 1.21622 1.25596 1.65405 1.25596 4.16757V10.8243C1.25596 13.3378 1.71648 13.7757 4.34562 13.7757H13.6481C16.2772 13.7757 16.7378 13.3378 16.7378 10.8243V9.13784C16.7378 8.80541 17.0224 8.52973 17.3657 8.52973C17.709 8.52973 17.9937 8.80541 17.9937 9.13784V10.8243C18.0021 14.027 16.989 15 13.6565 15Z" fill="#6E7191"/>
<path d="M15.6993 6.08108C15.6155 6.08108 15.5402 6.06486 15.4564 6.03243C15.222 5.93513 15.0713 5.71622 15.0713 5.47297V0.608108C15.0713 0.275676 15.356 0 15.6993 0C16.0426 0 16.3272 0.275676 16.3272 0.608108V4.00541L16.9301 3.42162C17.1729 3.18649 17.5748 3.18649 17.8177 3.42162C18.0605 3.65676 18.0605 4.04595 17.8177 4.28108L16.143 5.9027C16.0258 6.01622 15.8667 6.08108 15.6993 6.08108Z" fill="#6E7191"/>
<path d="M15.6989 6.08093C15.5398 6.08093 15.3808 6.02417 15.2552 5.90255L13.5806 4.28093C13.3377 4.04579 13.3377 3.6566 13.5806 3.42147C13.8234 3.18633 14.2253 3.18633 14.4681 3.42147L16.1427 5.04309C16.3855 5.27823 16.3855 5.66741 16.1427 5.90255C16.0171 6.02417 15.858 6.08093 15.6989 6.08093Z" fill="#6E7191"/>
</svg>
