<svg width="10" height="10" viewBox="0 0 10 10" fill="none" xmlns="http://www.w3.org/2000/svg">
<path fill-rule="evenodd" clip-rule="evenodd" d="M2.22233 9.15747C3.04462 9.70685 4.01136 10.0001 5.00029 10C6.32594 9.99886 7.59698 9.47174 8.53436 8.53436C9.47174 7.59698 9.99886 6.32594 10 5.00029C10.0001 4.01136 9.70685 3.04462 9.15747 2.22233C8.60808 1.40004 7.82719 0.759133 6.91355 0.380659C5.99991 0.00218573 4.99455 -0.0968551 4.02462 0.0960619C3.05469 0.288979 2.16375 0.765189 1.46447 1.46447C0.765189 2.16375 0.288979 3.05469 0.0960619 4.02462C-0.0968551 4.99455 0.00218573 5.99991 0.380659 6.91355C0.759133 7.82719 1.40004 8.60808 2.22233 9.15747ZM2.61013 1.42282C3.31762 0.950097 4.1494 0.697783 5.00029 0.697783C6.01294 0.698996 6.98847 1.05705 7.759 1.70172L1.70036 7.76036C1.23894 7.20875 0.921788 6.54853 0.780715 5.83922C0.614736 5.00468 0.699951 4.13966 1.02558 3.35355C1.35122 2.56744 1.90264 1.89554 2.61013 1.42282ZM2.18967 8.25723L8.25589 2.19101C8.92761 2.9692 9.30127 3.96535 9.30251 5.00029C9.30245 5.85117 9.05008 6.68294 8.57731 7.39039C8.10454 8.09785 7.43261 8.64923 6.64648 8.97481C5.86034 9.3004 4.99532 9.38555 4.16079 9.21952C3.42991 9.07411 2.75116 8.74174 2.18967 8.25723Z" fill="#6E7191"/>
</svg>
