<svg width="18" height="18" viewBox="0 0 18 18" xmlns="http://www.w3.org/2000/svg">
    <path d="M4.69648 10.5424C4.79259 10.5834 4.89584 10.6051 5.00033 10.6062C5.21212 10.603 5.4149 10.52 5.5682 10.3739C5.60261 10.3359 5.63467 10.2958 5.66421 10.2539C5.69451 10.2093 5.71872 10.1609 5.73621 10.1099C5.75933 10.0646 5.77551 10.016 5.78421 9.96587C5.79305 9.913 5.79834 9.8596 5.80005 9.80603C5.79701 9.5943 5.71422 9.39151 5.5682 9.23816C5.45458 9.12891 5.31174 9.0549 5.15696 9.02509C5.00218 8.99528 4.84208 9.01093 4.696 9.07015C4.5981 9.10882 4.50848 9.16585 4.43199 9.23816C4.36138 9.31597 4.30456 9.40525 4.26398 9.50217C4.22297 9.59829 4.20128 9.70153 4.20014 9.80603C4.20169 10.0183 4.28488 10.2218 4.43247 10.3744C4.50896 10.4467 4.59858 10.5037 4.69648 10.5424Z"
    />
    <path d="M7.79978 10.6062C7.69519 10.6055 7.59178 10.5841 7.49545 10.5433C7.39754 10.5047 7.30793 10.4476 7.23144 10.3753C7.08391 10.2226 7.00088 10.0189 6.99959 9.80651C7.00072 9.70201 7.02242 9.59877 7.06343 9.50265C7.104 9.40573 7.16082 9.31645 7.23144 9.23864C7.30793 9.16633 7.39754 9.1093 7.49545 9.07063C7.64116 9.00948 7.80169 8.99276 7.95687 9.02257C8.11205 9.05237 8.25496 9.12738 8.36765 9.23816C8.51367 9.39151 8.59646 9.5943 8.5995 9.80603C8.59785 9.86008 8.59256 9.91397 8.58366 9.96731C8.57496 10.0174 8.55878 10.066 8.53566 10.1113C8.51817 10.1623 8.49395 10.2107 8.46365 10.2553C8.43412 10.2972 8.40206 10.3373 8.36765 10.3753C8.21412 10.521 8.01137 10.6034 7.79978 10.6062Z"
    />
    <path d="M10.296 10.5433C10.3923 10.5841 10.4957 10.6055 10.6003 10.6062C10.8119 10.6034 11.0146 10.521 11.1682 10.3753C11.2026 10.3373 11.2346 10.2972 11.2642 10.2553C11.2945 10.2107 11.3187 10.1623 11.3362 10.1113C11.3593 10.066 11.3755 10.0174 11.3842 9.96731C11.3931 9.91397 11.3984 9.86008 11.4 9.80603C11.397 9.5943 11.3142 9.39151 11.1682 9.23816C11.0557 9.12702 10.9128 9.05174 10.7575 9.02184C10.6023 8.99193 10.4416 9.00874 10.296 9.07015C10.198 9.10882 10.1084 9.16585 10.0319 9.23816C9.88581 9.39163 9.80301 9.59461 9.80009 9.80651C9.80176 9.8604 9.80705 9.91413 9.81593 9.96731C9.82463 10.0174 9.84081 10.066 9.86393 10.1113C9.88142 10.1623 9.90563 10.2107 9.93594 10.2553L10.0319 10.3753C10.1084 10.4476 10.198 10.5047 10.296 10.5433Z"
    />
    <path d="M5.00033 13.4062C4.89584 13.4051 4.79259 13.3834 4.69648 13.3424C4.59956 13.3018 4.51028 13.245 4.43247 13.1743C4.28628 13.0211 4.2033 12.8183 4.20014 12.6065C4.20128 12.502 4.22297 12.3987 4.26398 12.3026C4.30071 12.2037 4.35797 12.1138 4.43199 12.0386C4.58671 11.8958 4.78954 11.8165 5.00009 11.8165C5.21065 11.8165 5.41348 11.8958 5.5682 12.0386C5.71422 12.192 5.79701 12.3948 5.80005 12.6065C5.79701 12.8182 5.71422 13.021 5.5682 13.1743C5.41482 13.3203 5.21205 13.4031 5.00033 13.4062Z"
    />
    <path d="M7.23144 13.1743C7.38493 13.3204 7.5879 13.4032 7.79978 13.4062C8.0115 13.4031 8.21427 13.3203 8.36765 13.1743C8.51367 13.021 8.59646 12.8182 8.5995 12.6065C8.59836 12.502 8.57667 12.3987 8.53566 12.3026C8.49893 12.2037 8.44167 12.1138 8.36765 12.0386C8.21292 11.8958 8.01009 11.8165 7.79954 11.8165C7.58899 11.8165 7.38616 11.8958 7.23144 12.0386C7.15742 12.1138 7.10016 12.2037 7.06343 12.3026C7.02242 12.3987 7.00072 12.502 6.99959 12.6065C7.00262 12.8182 7.08542 13.021 7.23144 13.1743Z"
    />
    <path d="M10.6003 13.4067C10.3883 13.4036 10.1854 13.3206 10.0319 13.1743C9.95792 13.0992 9.90066 13.0092 9.86393 12.9103C9.82292 12.8142 9.80123 12.711 9.80009 12.6065C9.80123 12.502 9.82292 12.3987 9.86393 12.3026C9.90066 12.2037 9.95792 12.1138 10.0319 12.0386C10.125 11.9463 10.2394 11.8783 10.365 11.8406C10.4905 11.8029 10.6234 11.7968 10.752 11.8226C10.805 11.83 10.8565 11.8462 10.9041 11.8706C10.9551 11.8881 11.0036 11.9123 11.0481 11.9426C11.0901 11.9721 11.1301 12.0042 11.1682 12.0386C11.3142 12.192 11.397 12.3948 11.4 12.6065C11.397 12.8182 11.3142 13.021 11.1682 13.1743C11.0148 13.3205 10.8121 13.4035 10.6003 13.4067Z"
    />
    <path fill-rule="evenodd" clip-rule="evenodd"
          d="M4.6 17.2061H11.0001C13.9206 17.2061 15.6007 15.526 15.6007 12.606V5.806C15.6007 3.09224 14.1495 1.44943 11.6002 1.23093V0.806083C11.599 0.647295 11.5355 0.495332 11.4232 0.383049C11.3109 0.270766 11.1589 0.207186 11.0001 0.206055C10.8414 0.207186 10.6894 0.270766 10.5771 0.383049C10.4648 0.495332 10.4012 0.647295 10.4001 0.806083V1.20594H5.2005V0.806083C5.19937 0.647295 5.13578 0.495332 5.0235 0.383049C4.91122 0.270766 4.75926 0.207186 4.60047 0.206055C4.44168 0.207186 4.28972 0.270766 4.17743 0.383049C4.06515 0.495332 4.00157 0.647295 4.00044 0.806083V1.23089C1.45124 1.44926 -6.10352e-05 3.0921 -6.10352e-05 5.806L-6.10352e-05 12.606C-6.10352e-05 15.526 1.68002 17.2061 4.6 17.2061ZM4.00044 2.43408C2.11765 2.61978 1.2 3.72792 1.2 5.806V5.878H14.4001V5.806C14.4006 3.7281 13.4827 2.61997 11.6002 2.43413V3.2062C11.599 3.36498 11.5355 3.51695 11.4232 3.62923C11.3109 3.74151 11.1589 3.80509 11.0001 3.80622C10.8414 3.80509 10.6894 3.74151 10.5771 3.62923C10.4648 3.51695 10.4012 3.36498 10.4001 3.2062V2.406H5.2005V3.2062C5.19937 3.36498 5.13578 3.51695 5.0235 3.62923C4.91122 3.74151 4.75926 3.80509 4.60047 3.80622C4.44168 3.80509 4.28972 3.74151 4.17743 3.62923C4.06515 3.51695 4.00157 3.36498 4.00044 3.2062V2.43408ZM14.4001 7.07806V12.606C14.4001 14.8938 13.2884 16.006 11.0001 16.006H4.6C2.31221 16.006 1.2 14.8943 1.2 12.606V7.07806H14.4001Z"
    />
</svg>
