<svg width="23" height="22" viewBox="0 0 23 22" xmlns="http://www.w3.org/2000/svg">
    <path d="M8.12769 9.17615C8.12769 9.75534 7.65817 10.2249 7.07898 10.2249C6.4998 10.2249 6.03027 9.75534 6.03027 9.17615C6.03027 8.59696 6.4998 8.12744 7.07898 8.12744C7.65817 8.12744 8.12769 8.59696 8.12769 9.17615Z"
    />
    <path d="M12.3225 9.17615C12.3225 9.75534 11.853 10.2249 11.2738 10.2249C10.6946 10.2249 10.2251 9.75534 10.2251 9.17615C10.2251 8.59696 10.6946 8.12744 11.2738 8.12744C11.853 8.12744 12.3225 8.59696 12.3225 9.17615Z"
    />
    <path d="M16.5174 9.17615C16.5174 9.75534 16.0478 10.2249 15.4687 10.2249C14.8895 10.2249 14.4199 9.75534 14.4199 9.17615C14.4199 8.59696 14.8895 8.12744 15.4687 8.12744C16.0478 8.12744 16.5174 8.59696 16.5174 9.17615Z"
    />
    <path fill-rule="evenodd" clip-rule="evenodd"
          d="M16.7793 2.88395C16.7793 1.29119 18.0705 0 19.6632 0C21.256 0 22.5472 1.29119 22.5472 2.88395C22.5472 4.47671 21.256 5.7679 19.6632 5.7679C18.0705 5.7679 16.7793 4.47671 16.7793 2.88395ZM19.6632 1.57306C18.9393 1.57306 18.3524 2.15997 18.3524 2.88395C18.3524 3.60793 18.9393 4.19483 19.6632 4.19483C20.3872 4.19483 20.9741 3.60793 20.9741 2.88395C20.9741 2.15997 20.3872 1.57306 19.6632 1.57306Z"
    />
    <path d="M21.401 6.70307C21.8839 6.48297 22.5319 6.76934 22.5394 7.30003C22.5472 7.85054 22.5472 8.46103 22.5472 9.14093L22.5472 10.5722C22.5475 12.1962 22.5476 13.1868 22.3036 14.019C21.7258 15.9898 20.1846 17.5309 18.2138 18.1088C17.3817 18.3528 16.391 18.3526 14.767 18.3524L14.0374 18.3524L13.9742 18.3525C13.0647 18.3583 12.1788 18.6422 11.4354 19.1661L11.3839 19.2028L8.64598 21.1584C7.06819 22.2854 4.99487 20.6578 5.71498 18.8576C5.81177 18.6156 5.63357 18.3524 5.37297 18.3524H4.7419C2.12302 18.3524 8.1941e-08 16.2294 8.1941e-08 13.6105V9.14101C-4.91869e-06 7.70247 -8.73548e-06 6.57465 0.0740512 5.6682C0.149464 4.74519 0.305571 3.98266 0.657239 3.29248C1.23536 2.15785 2.15785 1.23536 3.29248 0.657239C3.98266 0.305571 4.74519 0.149464 5.6682 0.0740512C6.57465 -8.79017e-06 7.70247 -4.97967e-06 9.141 8.34697e-08H13.4062C14.0862 -2.30965e-06 14.6967 -4.25542e-06 15.2472 0.00781454C15.7779 0.0153514 16.0643 0.663305 15.8442 1.14626C15.7283 1.40047 15.4806 1.5842 15.2012 1.58041C14.6702 1.5732 14.0667 1.57306 13.371 1.57306H9.1762C7.69489 1.57306 6.63121 1.57367 5.7963 1.64189C4.97057 1.70935 4.4381 1.839 4.00663 2.05885C3.16799 2.48616 2.48616 3.16799 2.05885 4.00663C1.839 4.4381 1.70935 4.97057 1.64189 5.7963C1.57367 6.63121 1.57306 7.69489 1.57306 9.1762V13.6105C1.57306 15.3606 2.9918 16.7793 4.7419 16.7793H5.37297C6.74646 16.7793 7.68563 18.1665 7.17553 19.4418C7.0389 19.7834 7.43229 20.0922 7.73166 19.8783L10.4696 17.9227L10.5293 17.8802C11.5351 17.1714 12.7337 16.7873 13.9641 16.7795L14.0374 16.7793H14.6129C16.4397 16.7793 17.1844 16.7713 17.7712 16.5993C19.2279 16.1722 20.367 15.033 20.7941 13.5764C20.9662 12.9896 20.9742 12.2449 20.9742 10.4181V9.1762C20.9742 8.48055 20.974 7.877 20.9668 7.346C20.963 7.06665 21.1468 6.81892 21.401 6.70307Z"
    />
</svg>
