<svg width="17" height="16" viewBox="0 0 17 16" xmlns="http://www.w3.org/2000/svg">
    <path d="M14.1522 0H7.44323C6.26877 0 5.31329 0.955481 5.31329 2.12995V5.03191H2.4112C1.23673 5.03191 0.28125 5.98739 0.28125 7.16108V13.8701C0.28125 15.0451 1.23673 16 2.4112 16H9.12017C10.2946 16 11.2501 15.0445 11.2501 13.8701V10.9681H14.1513C15.3258 10.9681 16.2812 10.0126 16.2812 8.83892V2.13059C16.282 0.955514 15.3265 3.23287e-05 14.1522 3.23287e-05V0ZM10.3444 13.8701C10.3444 14.5456 9.79488 15.0951 9.12014 15.0951L2.41116 15.095C1.73567 15.095 1.18692 14.5447 1.18692 13.87V7.16105C1.18692 6.48556 1.73642 5.9368 2.41116 5.9368H5.31235V8.83876C5.31235 10.0132 6.26783 10.9679 7.4423 10.9679H10.3443L10.3444 13.8701ZM15.3762 8.83899C15.3762 9.51448 14.8267 10.0632 14.1519 10.0632H7.44298C6.76748 10.0632 6.21873 9.51373 6.21873 8.83899L6.21885 2.13066C6.21885 1.45517 6.76835 0.905668 7.4431 0.905668H14.1521C14.8276 0.905668 15.3763 1.45595 15.3763 2.13066L15.3762 8.83899Z"
    />
</svg>
