<svg width="16" height="17" viewBox="0 0 16 17" fill="none" xmlns="http://www.w3.org/2000/svg">
<path fill-rule="evenodd" clip-rule="evenodd" d="M0.674275 15.5376C1.13221 15.9733 1.742 16.2131 2.37416 16.2059C2.43022 16.2059 2.50034 16.2032 2.56709 16.1947H2.60515C2.65374 16.192 2.70715 16.1893 2.76054 16.1893L5.51685 15.8002C6.18855 15.6732 6.81103 15.3596 7.31268 14.8954L14.5372 7.67381C14.9372 7.28087 15.281 6.83442 15.5587 6.34728C15.7932 5.93315 15.9386 5.47464 15.9857 5.00106C16.039 4.42515 15.9424 3.8452 15.7057 3.31746C15.4226 2.70199 15.0265 2.14522 14.5377 1.67607C14.1419 1.27083 13.6889 0.92545 13.1934 0.650708C12.6841 0.366793 12.1121 0.213985 11.529 0.206055C10.9577 0.239467 10.3989 0.386652 9.88544 0.63911C9.37194 0.891568 8.91432 1.24415 8.53909 1.67607L1.31512 8.8983C1.08006 9.14444 0.885388 9.42619 0.738412 9.73313C0.584865 10.0355 0.478544 10.3595 0.422943 10.694L0.0339518 13.45C-0.029436 13.8334 -0.00387534 14.2263 0.109039 14.5981C0.21691 14.9531 0.411304 15.2759 0.674275 15.5376ZM10.1957 1.8692C10.5652 1.68751 10.9677 1.58162 11.3788 1.55761V1.56021C11.7961 1.56496 12.2054 1.67285 12.5708 1.87416C12.9275 2.0718 13.2536 2.32022 13.5386 2.61177C13.8902 2.94951 14.1754 3.35028 14.3792 3.79313C14.5498 4.17288 14.619 4.59038 14.5799 5.00484C14.5467 5.34567 14.4422 5.67571 14.2733 5.97365C14.0737 6.32434 13.8264 6.64574 13.5386 6.92864L12.2765 8.16374C11.2762 7.79837 10.3657 7.21325 9.61109 6.44784C8.89454 5.72108 8.33821 4.85152 7.97557 3.89707L9.22687 2.61555C9.49687 2.30469 9.82615 2.0509 10.1957 1.8692ZM7.13114 4.76188L2.12543 9.88847C1.95643 10.0656 1.81623 10.2683 1.71037 10.489C1.64072 10.7064 1.6046 10.9333 1.60347 11.1616C1.56717 11.579 1.50611 12.2783 1.34432 13.4307C1.29856 13.7066 1.31662 13.9894 1.39751 14.2571C1.46627 14.482 1.46664 14.4823 1.58671 14.5869L1.58731 14.5874L1.64362 14.6376C1.76747 14.7775 1.93627 14.8701 2.12074 14.8997C2.13729 14.8997 2.53665 14.8656 3.07914 14.8095C3.58746 14.7561 4.32857 14.6739 4.97091 14.5725C5.43517 14.5315 5.87728 14.3561 6.24321 14.0676L11.3708 9.04998C10.4026 8.68311 9.52102 8.10928 8.78687 7.36496C8.05698 6.62498 7.49335 5.73695 7.13114 4.76188Z" fill="#6E7191"/>
</svg>
