<svg width="8" height="10" viewBox="0 0 8 10" fill="none" xmlns="http://www.w3.org/2000/svg">
<path fill-rule="evenodd" clip-rule="evenodd" d="M0.014148 2.09696C0.00117813 2.14087 -0.00285126 2.18715 0.00196462 2.23271C0.00995071 2.31953 0.0496686 2.40024 0.113553 2.45897C0.177437 2.51771 0.260818 2.55005 0.347252 2.55004C0.35831 2.55004 0.370631 2.54944 1.32247 2.45562C3.73426 2.20906 5.18172 2.30207 7.62016 2.54864H7.65671C7.74264 2.54887 7.82543 2.51648 7.88874 2.45786C7.95206 2.39923 7.99127 2.31883 7.99839 2.23243C8.00719 2.1406 7.97959 2.04883 7.92169 1.9774C7.8638 1.90598 7.78035 1.86068 7.68938 1.85114C7.06021 1.78879 6.49409 1.73616 5.95962 1.69611C5.95938 1.69308 5.95885 1.68999 5.95831 1.68689C5.95758 1.68268 5.95685 1.67845 5.95685 1.67432L5.85551 1.06985L5.85536 1.0689C5.78617 0.640988 5.68254 0 4.60589 0H3.3978C2.32456 0 2.22255 0.618259 2.14883 1.065L2.14873 1.06566L2.04738 1.6746C2.04687 1.67865 2.04617 1.68266 2.04517 1.68662C1.79168 1.70607 1.52776 1.7298 1.25131 1.7584L0.310979 1.85142C0.265761 1.85571 0.221752 1.86899 0.181669 1.89053C0.141586 1.91207 0.106306 1.94137 0.0775568 1.97684C0.048807 2.01231 0.0271178 2.05305 0.014148 2.09696ZM5.17933 1.18633L5.25686 1.65002C4.80008 1.62514 4.35726 1.61259 3.90728 1.61259C3.53386 1.61259 3.15402 1.62106 2.75706 1.64108L2.83736 1.18186L2.83799 1.1781C2.90604 0.767567 2.91682 0.702524 3.40444 0.702524H4.61225C5.10079 0.702524 5.1144 0.781872 5.17933 1.18633Z" fill="#EB365C"/>
<path fill-rule="evenodd" clip-rule="evenodd" d="M0.799721 8.37679C0.850758 9.10218 0.91486 10 2.52366 10H5.48366C7.09304 10 7.15712 9.10218 7.20816 8.37679L7.50776 3.69293C7.5108 3.64711 7.50491 3.60095 7.49032 3.55745C7.47573 3.51395 7.45275 3.47383 7.42276 3.43929C7.39276 3.40476 7.35642 3.37664 7.3156 3.35633C7.27477 3.33602 7.23033 3.32384 7.1849 3.32086C6.12151 3.13171 5.04483 3.02768 3.96518 3.00968C2.91083 3.02502 1.8596 3.12909 0.822426 3.32086C0.730966 3.32761 0.645838 3.37055 0.585405 3.44013C0.524972 3.50971 0.494182 3.60058 0.499567 3.69293L0.799721 8.37679ZM1.49103 8.33267L1.49085 8.33014L1.21479 4.01807C2.1193 3.82407 3.04053 3.71996 3.96518 3.70717C4.91502 3.72315 5.86132 3.82721 6.79227 4.01807L6.51648 8.33014C6.47026 9.03723 6.45224 9.3025 5.48366 9.3025H2.52366C1.56106 9.3025 1.54193 9.03757 1.49103 8.33267Z" fill="#EB365C"/>
</svg>
