<svg width="10" height="10" viewBox="0 0 10 10" fill="none" xmlns="http://www.w3.org/2000/svg">
<path fill-rule="evenodd" clip-rule="evenodd" d="M1.01415 2.09696C1.00118 2.14087 0.997149 2.18715 1.00196 2.23271C1.00995 2.31953 1.04967 2.40024 1.11355 2.45897C1.17744 2.51771 1.26082 2.55005 1.34725 2.55004C1.35831 2.55004 1.37063 2.54944 2.32247 2.45562C4.73426 2.20906 6.18172 2.30207 8.62016 2.54864H8.65671C8.74264 2.54887 8.82543 2.51648 8.88874 2.45786C8.95206 2.39923 8.99127 2.31883 8.99839 2.23243C9.00719 2.1406 8.97959 2.04883 8.92169 1.9774C8.8638 1.90598 8.78035 1.86068 8.68938 1.85114C8.06021 1.78879 7.49409 1.73616 6.95962 1.69611C6.95938 1.69308 6.95885 1.68999 6.95831 1.68689C6.95758 1.68268 6.95685 1.67845 6.95685 1.67433L6.85551 1.06985L6.85536 1.0689C6.78617 0.640988 6.68254 0 5.60589 0H4.3978C3.32456 0 3.22255 0.618259 3.14883 1.065L3.14873 1.06566L3.04738 1.6746C3.04687 1.67865 3.04617 1.68266 3.04517 1.68662C2.79168 1.70607 2.52776 1.7298 2.25131 1.7584L1.31098 1.85142C1.26576 1.85571 1.22175 1.86899 1.18167 1.89053C1.14159 1.91207 1.10631 1.94137 1.07756 1.97684C1.04881 2.01231 1.02712 2.05305 1.01415 2.09696ZM6.17933 1.18633L6.25686 1.65002C5.80008 1.62514 5.35726 1.61259 4.90728 1.61259C4.53386 1.61259 4.15402 1.62106 3.75706 1.64108L3.83736 1.18186L3.83799 1.1781C3.90604 0.767567 3.91682 0.702524 4.40444 0.702524H5.61225C6.10079 0.702524 6.1144 0.781872 6.17933 1.18633Z" fill="#EB365C"/>
<path fill-rule="evenodd" clip-rule="evenodd" d="M1.79972 8.37679C1.85076 9.10218 1.91486 10 3.52366 10H6.48366C8.09304 10 8.15712 9.10218 8.20816 8.37679L8.50776 3.69293C8.5108 3.64711 8.50491 3.60095 8.49032 3.55745C8.47573 3.51395 8.45275 3.47383 8.42276 3.43929C8.39276 3.40476 8.35642 3.37664 8.3156 3.35633C8.27477 3.33602 8.23033 3.32384 8.1849 3.32086C7.12151 3.13171 6.04483 3.02768 4.96518 3.00968C3.91083 3.02502 2.8596 3.12909 1.82243 3.32086C1.73097 3.32761 1.64584 3.37055 1.5854 3.44013C1.52497 3.50971 1.49418 3.60058 1.49957 3.69293L1.79972 8.37679ZM2.49103 8.33267L2.49085 8.33014L2.21479 4.01807C3.1193 3.82407 4.04053 3.71996 4.96518 3.70717C5.91502 3.72315 6.86132 3.82721 7.79227 4.01807L7.51648 8.33014C7.47026 9.03723 7.45224 9.3025 6.48366 9.3025H3.52366C2.56106 9.3025 2.54193 9.03757 2.49103 8.33267Z" fill="#EB365C"/>
</svg>
