<svg width="10" height="10" viewBox="0 0 10 10" fill="none" xmlns="http://www.w3.org/2000/svg">
<path fill-rule="evenodd" clip-rule="evenodd" d="M0.421422 9.58222C0.70763 9.85456 1.08875 10.0044 1.48385 9.9999C1.51889 9.9999 1.56272 9.99823 1.60443 9.9929H1.62822C1.65859 9.99123 1.69197 9.98956 1.72534 9.98956L3.44803 9.74634C3.86784 9.66699 4.25689 9.47099 4.57042 9.18083L9.08573 4.66735C9.33576 4.42176 9.55063 4.14273 9.72416 3.83826C9.87076 3.57943 9.96163 3.29286 9.99108 2.99688C10.0244 2.63693 9.96403 2.27446 9.81607 1.94463C9.6391 1.55996 9.39158 1.21198 9.08606 0.918759C8.83869 0.665484 8.55553 0.449622 8.24589 0.277908C7.92758 0.100461 7.57005 0.00495643 7.20563 0C6.84859 0.0208827 6.49934 0.112873 6.1784 0.270659C5.85746 0.428446 5.57145 0.648811 5.33693 0.918759L0.82195 5.43265C0.675036 5.58649 0.553368 5.76258 0.461507 5.95442C0.365541 6.14338 0.29909 6.34591 0.264339 6.55496L0.0212199 8.27747C-0.0183975 8.51711 -0.00242209 8.76262 0.0681491 8.99505C0.135569 9.2169 0.257065 9.41862 0.421422 9.58222ZM6.37231 1.03947C6.60327 0.925911 6.85482 0.859731 7.11177 0.844721V0.84635C7.37255 0.849314 7.62835 0.91675 7.85677 1.04256C8.07966 1.16609 8.28353 1.32136 8.46164 1.50357C8.68138 1.71466 8.85963 1.96514 8.98699 2.24192C9.09362 2.47926 9.13685 2.7402 9.11246 2.99924C9.0917 3.21226 9.02637 3.41853 8.92083 3.60474C8.79605 3.82393 8.64152 4.0248 8.46164 4.20161L7.67278 4.97355C7.0476 4.7452 6.47859 4.3795 6.00693 3.90112C5.55908 3.44689 5.21138 2.90342 4.98473 2.30688L5.76679 1.50593C5.93554 1.31164 6.14135 1.15303 6.37231 1.03947ZM4.45696 2.84739L1.32839 6.05151C1.22277 6.16222 1.13515 6.28888 1.06898 6.42683C1.02545 6.56274 1.00288 6.7045 1.00217 6.8472C0.979478 7.10809 0.941317 7.54513 0.8402 8.26542C0.811597 8.43785 0.822885 8.61457 0.873442 8.78189C0.916421 8.92245 0.916647 8.92265 0.991696 8.98804L0.992069 8.98837L1.02727 9.01973C1.10467 9.10714 1.21017 9.16502 1.32546 9.18352C1.33581 9.18352 1.5854 9.16219 1.92446 9.12716C2.24216 9.0938 2.70535 9.04239 3.10682 8.979C3.39698 8.95342 3.6733 8.8438 3.90201 8.66346L7.10674 5.52745C6.50162 5.29816 5.95064 4.93952 5.49179 4.47432C5.03562 4.01183 4.68334 3.45681 4.45696 2.84739Z" fill="#6E7191"/>
</svg>
