<svg width="11" height="12" viewBox="0 0 11 12" xmlns="http://www.w3.org/2000/svg">
    <path d="M4.35026 11.1439C4.44156 11.1846 4.54052 11.2059 4.64062 11.2061C4.81777 11.2056 4.98821 11.1384 5.11804 11.018L6.40721 9.84109V9.84125C6.80581 9.47622 7.03301 8.9609 7.03366 8.42048V5.23153L10.7314 1.5338C10.8772 1.38799 10.9592 1.19005 10.9592 0.983769C10.9592 0.777492 10.8772 0.579573 10.7314 0.433735C10.5854 0.287917 10.3876 0.205895 10.1814 0.206055H0.777812C0.571556 0.205895 0.373616 0.287917 0.227778 0.433735C0.0818011 0.579552 -6.10352e-05 0.777492 -6.10352e-05 0.983769C-6.10352e-05 1.19005 0.0818011 1.38797 0.227778 1.5338L3.92518 5.23153V10.4924C3.92406 10.6307 3.96387 10.7665 4.03934 10.8822C4.11497 10.9981 4.22305 11.0891 4.35016 11.144L4.35026 11.1439ZM0.715687 1.04612C0.690585 1.02102 0.68307 0.983126 0.696661 0.950352C0.710251 0.917416 0.742389 0.896151 0.777884 0.896151H10.1814C10.2169 0.896151 10.2491 0.917416 10.2627 0.950352C10.2762 0.983129 10.2687 1.02102 10.2436 1.04612L6.44484 4.84491C6.38008 4.9095 6.34379 4.99729 6.34379 5.08874V8.42062C6.34347 8.76726 6.19765 9.09791 5.94199 9.332L4.65282 10.5089C4.64626 10.5148 4.63683 10.5163 4.62867 10.5128C4.62068 10.5093 4.6154 10.5013 4.61524 10.4925V5.08872C4.61524 4.99727 4.57895 4.90949 4.51419 4.8449L0.715687 1.04612Z"
    />
</svg>
