<svg width="23" height="23" viewBox="0 0 23 23" xmlns="http://www.w3.org/2000/svg">
    <path d="M9.41055 7.46832C9.95856 5.82428 12.1275 5.47231 13.1673 6.85868C13.7763 7.67079 13.7339 8.79838 13.0654 9.56235L12.0821 10.6862C11.1896 11.7061 10.6977 13.0153 10.6977 14.3706V14.7093C10.6977 15.1524 11.0569 15.5116 11.5 15.5116C11.9431 15.5116 12.3023 15.1524 12.3023 14.7093V14.3706C12.3023 13.404 12.6532 12.4703 13.2897 11.7428L14.273 10.619C15.4408 9.28442 15.515 7.31459 14.451 5.89589C12.6346 3.47399 8.84558 4.08886 7.88824 6.96088L7.52954 8.03698C7.38942 8.45735 7.61661 8.91173 8.03698 9.05185C8.45735 9.19198 8.91173 8.96479 9.05185 8.54442L9.41055 7.46832Z"/>
    <path fill-rule="evenodd" clip-rule="evenodd"
          d="M11.5 0C5.14873 0 0 5.14873 0 11.5C0 17.8513 5.14873 23 11.5 23C17.8513 23 23 17.8513 23 11.5C23 5.14873 17.8513 0 11.5 0ZM1.60465 11.5C1.60465 6.03495 6.03495 1.60465 11.5 1.60465C16.9651 1.60465 21.3953 6.03495 21.3953 11.5C21.3953 16.9651 16.9651 21.3953 11.5 21.3953C6.03495 21.3953 1.60465 16.9651 1.60465 11.5Z"/>
    <path d="M12.5698 17.9186C12.5698 18.5094 12.0908 18.9884 11.5 18.9884C10.9092 18.9884 10.4302 18.5094 10.4302 17.9186C10.4302 17.3278 10.9092 16.8488 11.5 16.8488C12.0908 16.8488 12.5698 17.3278 12.5698 17.9186Z"/>
</svg>
