<svg width="10" height="11" viewBox="0 0 10 11" fill="none" xmlns="http://www.w3.org/2000/svg">
<path d="M6.78712 3.69779C6.70527 3.75971 6.65203 3.85047 6.63886 3.95019C6.62657 4.05027 6.65565 4.15106 6.71991 4.2304C6.75149 4.26963 6.79066 4.30225 6.83539 4.32676C6.88012 4.35127 6.92961 4.36715 6.98064 4.37318L9.24959 4.64211L9.277 4.64653C9.29779 4.64889 9.31871 4.64962 9.33963 4.64871C9.43372 4.64636 9.52387 4.6115 9.59363 4.55036C9.6634 4.48922 9.70808 4.40582 9.71978 4.31546C9.72206 4.29519 9.72274 4.27471 9.72199 4.25433L9.99724 2.09013C10.0095 1.99026 9.98048 1.88973 9.91646 1.81049C9.85244 1.73125 9.75861 1.67973 9.65547 1.66714C9.6043 1.66089 9.55231 1.66432 9.50258 1.67758C9.45286 1.69084 9.4064 1.71373 9.36576 1.74447C9.32513 1.77521 9.29107 1.8132 9.26577 1.85669C9.24046 1.90018 9.22435 1.94825 9.21827 1.99781L9.0625 3.22279C8.69528 2.74637 8.23904 2.33658 7.71419 2.01624C6.87254 1.50254 5.89229 1.24195 4.8975 1.26746C3.90271 1.29298 2.93811 1.60343 2.12576 2.15955C1.31342 2.71567 0.689853 3.49244 0.333982 4.39156C-0.00647743 5.24967 -0.0887124 6.18354 0.0968025 7.085C0.282317 7.98647 0.727991 8.81864 1.3822 9.48514C2.03642 10.1516 2.8724 10.6252 3.79334 10.851C4.71427 11.0767 5.68246 11.0455 6.58578 10.7608C6.68149 10.7261 6.75966 10.657 6.80401 10.5679C6.84837 10.4788 6.85548 10.3766 6.82387 10.2825C6.79226 10.1885 6.72436 10.1098 6.63432 10.063C6.54429 10.0162 6.43906 10.0048 6.34055 10.0312C5.56152 10.276 4.72585 10.2971 3.93469 10.0919C3.14352 9.88676 2.43079 9.4641 1.88277 8.87513C1.33474 8.28616 0.974924 7.55613 0.846864 6.7734C0.718803 5.99068 0.827993 5.18882 1.16122 4.46489C1.49444 3.74096 2.03741 3.126 2.7244 2.69445C3.41139 2.26289 4.21294 2.03325 5.03203 2.03332C5.85113 2.03339 6.65264 2.26317 7.33955 2.69484C7.80058 2.98457 8.19673 3.3569 8.50811 3.78934L7.07607 3.61952C6.97287 3.60781 6.86898 3.63588 6.78712 3.69779Z" fill="#6E7191"/>
<path d="M3.43109 0.768561H6.60861C6.71372 0.767836 6.81431 0.727117 6.88863 0.655207C6.96296 0.583297 7.00505 0.485974 7.0058 0.38428C7.00505 0.282587 6.96296 0.185264 6.88863 0.113354C6.81431 0.0414436 6.71372 0.000724399 6.60861 0H3.43109C3.32598 0.000724399 3.22539 0.0414436 3.15107 0.113354C3.07674 0.185264 3.03465 0.282587 3.0339 0.38428C3.03465 0.485974 3.07674 0.583297 3.15107 0.655207C3.22539 0.727117 3.32598 0.767836 3.43109 0.768561Z" fill="#6E7191"/>
<path d="M4.74012 7.05978C4.81445 7.13169 4.91504 7.17241 5.02015 7.17314C5.12526 7.17241 5.22585 7.13169 5.30018 7.05978C5.3745 6.98787 5.41659 6.89055 5.41734 6.78885V4.22709C5.41659 4.12539 5.3745 4.02807 5.30018 3.95616C5.22585 3.88425 5.12526 3.84353 5.02015 3.84281C4.91504 3.84353 4.81445 3.88425 4.74012 3.95616C4.6658 4.02807 4.62371 4.12539 4.62296 4.22709V6.78885C4.62371 6.89055 4.6658 6.98787 4.74012 7.05978Z" fill="#6E7191"/>
</svg>
