<svg width="17" height="17" viewBox="0 0 17 17" xmlns="http://www.w3.org/2000/svg">
    <path d="M5.66548 8.5C5.66548 6.93525 6.93325 5.66644 8.49755 5.66644C10.0618 5.66644 11.3303 6.93525 11.3303 8.5C11.3303 10.0647 10.0618 11.3336 8.49755 11.3336C6.93325 11.3336 5.66548 10.0647 5.66548 8.5ZM4.13416 8.5C4.13416 10.9106 6.08764 12.8646 8.49755 12.8646C10.9074 12.8646 12.8609 10.9106 12.8609 8.5C12.8609 6.0894 10.9074 4.13535 8.49755 4.13535C6.08764 4.13535 4.13416 6.0894 4.13416 8.5ZM12.014 3.96229C12.0139 4.16403 12.0736 4.36126 12.1856 4.52904C12.2976 4.69683 12.4568 4.82763 12.6431 4.9049C12.8294 4.98218 13.0344 5.00246 13.2322 4.96318C13.43 4.9239 13.6118 4.82683 13.7544 4.68424C13.8971 4.54164 13.9943 4.35994 14.0337 4.16209C14.0731 3.96425 14.053 3.75915 13.9759 3.57274C13.8988 3.38633 13.7682 3.22697 13.6005 3.11483C13.4329 3.00268 13.2358 2.94278 13.0341 2.9427H13.0337C12.7633 2.94283 12.5041 3.05027 12.3129 3.24145C12.1217 3.43262 12.0142 3.69188 12.014 3.96229ZM5.06454 15.4188C4.23606 15.3811 3.78576 15.243 3.48651 15.1264C3.08978 14.9719 2.80671 14.7879 2.50909 14.4906C2.21147 14.1933 2.02724 13.9104 1.87347 13.5136C1.75682 13.2144 1.61882 12.7638 1.58116 11.9351C1.53996 11.0391 1.53173 10.77 1.53173 8.50007C1.53173 6.23016 1.54064 5.96176 1.58116 5.06505C1.61888 4.23633 1.7579 3.78665 1.87347 3.48656C2.02792 3.08972 2.21188 2.80656 2.50909 2.50886C2.8063 2.21116 3.0891 2.02688 3.48651 1.87306C3.78562 1.75637 4.23606 1.61833 5.06454 1.58066C5.96025 1.53945 6.22931 1.53122 8.49755 1.53122C10.7658 1.53122 11.0351 1.54013 11.9316 1.58066C12.7601 1.6184 13.2096 1.75746 13.5096 1.87306C13.9063 2.02688 14.1894 2.21156 14.487 2.50886C14.7846 2.80616 14.9682 3.08972 15.1226 3.48656C15.2393 3.78576 15.3773 4.23633 15.415 5.06505C15.4562 5.96176 15.4644 6.23016 15.4644 8.50007C15.4644 10.77 15.4562 11.0384 15.415 11.9351C15.3772 12.7638 15.2385 13.2142 15.1226 13.5136C14.9682 13.9104 14.7842 14.1936 14.487 14.4906C14.1898 14.7876 13.9063 14.9719 13.5096 15.1264C13.2105 15.2431 12.7601 15.3811 11.9316 15.4188C11.0359 15.46 10.7668 15.4682 8.49755 15.4682C6.22829 15.4682 5.95997 15.46 5.06454 15.4188ZM4.99418 0.051476C4.08956 0.092684 3.47142 0.236164 2.93159 0.446284C2.37251 0.663272 1.89924 0.95438 1.4263 1.42671C0.953357 1.89904 0.663081 2.3732 0.446155 2.93243C0.236096 3.47276 0.0926572 4.09074 0.0514611 4.99562C0.00958523 5.90192 0 6.19167 0 8.5C0 10.8083 0.00958523 11.0981 0.0514611 12.0044C0.0926572 12.9093 0.236096 13.5272 0.446155 14.0676C0.663081 14.6265 0.953425 15.1012 1.4263 15.5733C1.89917 16.0454 2.37251 16.3361 2.93159 16.5537C3.47244 16.7638 4.08956 16.9073 4.99418 16.9485C5.9007 16.9897 6.18988 17 8.49755 17C10.8052 17 11.0949 16.9904 12.0009 16.9485C12.9056 16.9073 13.5233 16.7638 14.0635 16.5537C14.6222 16.3361 15.0959 16.0456 15.5688 15.5733C16.0417 15.101 16.3314 14.6265 16.5489 14.0676C16.759 13.5272 16.9031 12.9093 16.9436 12.0044C16.9848 11.0974 16.9944 10.8083 16.9944 8.5C16.9944 6.19167 16.9848 5.90192 16.9436 4.99562C16.9024 4.09068 16.759 3.47242 16.5489 2.93243C16.3314 2.37354 16.041 1.89978 15.5688 1.42671C15.0966 0.953632 14.6222 0.663272 14.0642 0.446284C13.5233 0.236164 12.9055 0.092004 12.0016 0.051476C11.0956 0.010268 10.8059 0 8.49823 0C6.19056 0 5.9007 0.009588 4.99418 0.051476Z"/>
</svg>
