<svg width="18" height="18" viewBox="0 0 18 18" xmlns="http://www.w3.org/2000/svg">
    <path d="M4.03368 17.2096V5.73929H0.224524V17.2096H4.03408H4.03368ZM2.1299 4.17348C3.45795 4.17348 4.28476 3.2927 4.28476 2.19197C4.2599 1.06616 3.45795 0.209961 2.15516 0.209961C0.851462 0.209961 0 1.06616 0 2.19187C0 3.2926 0.826504 4.17338 2.10494 4.17338H2.1296L2.1299 4.17348ZM6.1421 17.2096H9.95096V10.8047C9.95096 10.4624 9.97582 10.1191 10.0765 9.87459C10.3517 9.18937 10.9784 8.48006 12.0309 8.48006C13.4089 8.48006 13.9605 9.53183 13.9605 11.0739V17.2096H17.7692V10.6329C17.7692 7.10982 15.8903 5.47037 13.3843 5.47037C11.3296 5.47037 10.4273 6.61977 9.92591 7.40262H9.95126V5.73968H6.1423C6.19202 6.81573 6.142 17.21 6.142 17.21L6.1421 17.2096Z"/>
</svg>
