<svg width="22" height="22" viewBox="0 0 22 22" xmlns="http://www.w3.org/2000/svg">
    <path d="M8.03829 22L14.0255 21.9999C14.3755 21.9999 14.7154 21.9906 15.0358 21.9721C15.3587 21.9535 15.6738 21.9249 15.9723 21.8872C16.2702 21.8495 16.5608 21.8016 16.8361 21.7443C17.1096 21.6874 17.3763 21.6194 17.6284 21.5421C17.8737 21.4673 18.1148 21.3797 18.3507 21.2796C18.5747 21.1844 18.7928 21.0763 19.0039 20.9556C19.2071 20.8392 19.4026 20.7099 19.5893 20.5687C19.772 20.4301 19.9452 20.2795 20.1078 20.1181C20.2702 19.9563 20.4216 19.7839 20.5611 19.6023C20.7029 19.4165 20.8328 19.2221 20.9499 19.0201C21.0713 18.8101 21.1801 18.5932 21.2758 18.3705C21.3764 18.1358 21.4645 17.896 21.5397 17.6521C21.617 17.4025 21.6853 17.1373 21.7428 16.8641C21.7998 16.5934 21.8482 16.3045 21.8866 16.005C21.9241 15.711 21.9528 15.3977 21.972 15.0739C21.9905 14.7515 22 14.4135 22 14.0693V7.93097C22 7.5868 21.9904 7.24877 21.972 6.92637C21.9528 6.60258 21.9242 6.28931 21.8866 5.99524C21.848 5.6948 21.7997 5.40572 21.7428 5.13606C21.6857 4.86396 21.6173 4.59882 21.5397 4.3479C21.4644 4.10406 21.3763 3.86432 21.2758 3.62967C21.1801 3.40697 21.0713 3.19007 20.9499 2.98012C20.8329 2.77808 20.703 2.58365 20.5611 2.39802C20.4217 2.21622 20.2703 2.04389 20.1078 1.88218C19.9452 1.72062 19.772 1.56998 19.5893 1.43126C19.4026 1.29018 19.207 1.16101 19.0039 1.04452C18.7927 0.923916 18.5746 0.815738 18.3507 0.720548C18.1148 0.62044 17.8737 0.532829 17.6284 0.458077C17.3785 0.381181 17.112 0.313241 16.8361 0.255874C16.5619 0.198844 16.2712 0.150739 15.9723 0.112902C15.6725 0.075218 15.3574 0.046606 15.0358 0.0281154C14.7127 0.00950266 14.3728 0 14.0255 0H8.03853C7.83648 0.00640959 7.64484 0.0907815 7.50427 0.235235C7.36369 0.379689 7.28522 0.572879 7.28544 0.773883C7.28541 0.87407 7.30526 0.97328 7.34385 1.06583C7.38244 1.15837 7.43901 1.24244 7.51033 1.31321C7.58165 1.38398 7.66633 1.44007 7.75948 1.47825C7.85264 1.51644 7.95245 1.53598 8.05321 1.53575C8.06756 1.53573 8.08183 1.53534 8.09599 1.53459H14.0255C15.2406 1.53459 16.2239 1.64462 17.0314 1.871C17.8645 2.1048 18.5149 2.46263 19.0197 2.96515C19.5247 3.4672 19.8843 4.1141 20.1188 4.94275C20.3462 5.74524 20.4566 6.72276 20.4566 7.93106V14.0694C20.4566 15.2776 20.3462 16.255 20.1188 17.0575C19.8844 17.8859 19.5247 18.5326 19.0197 19.0353C18.5148 19.5379 17.8645 19.8956 17.0314 20.1291C16.2239 20.3554 15.2406 20.4655 14.0255 20.4655H8.10022C8.08493 20.4645 8.06956 20.4641 8.05411 20.4641C7.84922 20.4664 7.6535 20.549 7.50952 20.694C7.36554 20.8389 7.28494 21.0345 7.28519 21.2382C7.28513 21.4381 7.36405 21.6299 7.50493 21.7724C7.64581 21.9149 7.83736 21.9966 8.03829 22Z"
    />
    <path fill-rule="evenodd" clip-rule="evenodd"
          d="M11.6543 13.2868C11.6543 14.8993 11.0678 16.1258 10.0067 16.7348C9.54833 16.9988 9.02685 17.135 8.49716 17.1292C7.77252 17.1292 6.97884 16.8976 6.17656 16.4344L2.18245 14.1443C0.776399 13.3294 0 12.2143 0 10.9964C0 9.77847 0.776368 8.66342 2.18245 7.85723L6.17653 5.56706C7.58258 4.76081 8.93704 4.64933 10.0067 5.25838C11.0677 5.86735 11.6543 7.09392 11.6543 8.70642V10.2384H16.8724C16.893 10.2367 16.9137 10.2358 16.9347 10.2358C17.1396 10.2381 17.3353 10.3207 17.4793 10.4657C17.6233 10.6107 17.7039 10.8063 17.7036 11.01C17.7037 11.1102 17.6838 11.2094 17.6452 11.302C17.6066 11.3945 17.55 11.4786 17.4787 11.5493C17.4074 11.6201 17.3227 11.6762 17.2296 11.7144C17.1364 11.7526 17.0366 11.7721 16.9358 11.7719C16.9053 11.7719 16.8747 11.7701 16.8444 11.7666H11.6543V13.2868ZM10.1569 8.80951C10.1569 7.7281 9.81915 6.93347 9.20112 6.58123C8.94907 6.44274 8.66502 6.37213 8.37708 6.37637C7.89922 6.37637 7.35542 6.54028 6.77867 6.8761L2.96401 9.06343C2.01661 9.60415 1.49743 10.2923 1.49743 10.9968C1.49743 11.7013 2.01661 12.3896 2.96401 12.9301L6.77867 15.1174C7.72625 15.6582 8.58305 15.7647 9.20112 15.4124C9.81918 15.0602 10.1569 14.2654 10.1569 13.1842V8.80951Z"
    />
</svg>
