<svg width="23" height="17" viewBox="0 0 23 17" xmlns="http://www.w3.org/2000/svg">
    <path d="M1.54507 16.9999H5.15022V8.2445L0 4.38184V15.4548C0 16.3097 0.692705 16.9999 1.54507 16.9999Z"/>
    <path d="M17.5107 16.9999H21.1159C21.9708 16.9999 22.661 16.3072 22.661 15.4548V4.38184L17.5107 8.2445"/>
    <path d="M17.5107 1.54945V8.24473L22.661 4.38207V2.32198C22.661 0.41125 20.4798 -0.678021 18.9528 0.467903"/>
    <path d="M5.15137 8.24509V1.5498L11.3316 6.185L17.5119 1.5498V8.24509L11.3316 12.8803"/>
    <path d="M0 2.32198V4.38207L5.15022 8.24473V1.54945L3.70816 0.467903C2.17854 -0.678021 0 0.41125 0 2.32198Z"/>
</svg>
