<svg width="17" height="17" viewBox="0 0 17 17" xmlns="http://www.w3.org/2000/svg">
    <path fill-rule="evenodd" clip-rule="evenodd"
          d="M8.41156 0C3.67266 0 0 3.50779 0 8.24528C0 10.7235 1.00533 12.8648 2.64194 14.3441C2.77903 14.469 2.86196 14.6417 2.86873 14.8282L2.91443 16.34C2.92966 16.8223 3.42217 17.1353 3.85883 16.9421L5.5276 16.1981C5.66977 16.1348 5.82717 16.1228 5.9761 16.1639C6.74279 16.3777 7.56025 16.4906 8.41156 16.4906C13.1505 16.4906 16.8231 12.9828 16.8231 8.24528C16.8231 3.50779 13.1505 0 8.41156 0ZM13.4619 6.34344L10.9909 10.3045C10.5982 10.9338 9.75538 11.0912 9.1664 10.6448L7.20145 9.15515C7.02036 9.01832 6.77326 9.02003 6.59385 9.15686L3.94006 11.1921C3.58634 11.464 3.1226 11.0347 3.36124 10.6551L5.83224 6.69405C6.2249 6.06466 7.06775 5.90732 7.65672 6.3537L9.62168 7.84336C9.80277 7.98018 10.0499 7.97847 10.2293 7.84165L12.8831 5.80641C13.2368 5.53448 13.7005 5.96376 13.4619 6.34344Z"/>
</svg>
