<svg width="20" height="23" viewBox="0 0 20 23" fill="none" xmlns="http://www.w3.org/2000/svg">
<g id="Group 2861">
<g id="Vector">
<path fill-rule="evenodd" clip-rule="evenodd" d="M8.93335 0C5.06917 0 2.07942 3.33896 2.55871 7.11919L2.64901 7.83146C2.78116 8.8737 2.395 9.91475 1.61204 10.6271C-0.0103975 12.1031 -0.461158 14.4524 0.502338 16.4107L0.619953 16.6497C1.46903 18.3755 3.19305 19.5057 5.11765 19.6239L5.33192 19.986C6.48449 21.934 8.28027 23 10.166 23C12.0517 23 13.8475 21.934 15.0001 19.986L15.2177 19.6182C16.8346 19.4923 18.3088 18.6259 19.1881 17.2638C20.5333 15.1799 20.177 12.446 18.3411 10.7651L18.2911 10.7194C18.0673 10.5145 17.8739 10.2848 17.7132 10.0369C17.4593 9.64531 16.9315 9.53079 16.5344 9.7811C16.1372 10.0314 16.021 10.5517 16.2749 10.9433C16.5127 11.3101 16.7988 11.6498 17.1295 11.9525L17.1795 11.9982C18.4118 13.1265 18.6509 14.9615 17.748 16.3603C17.1083 17.3512 15.9995 17.9512 14.8081 17.9512H14.7342C14.731 17.9512 14.7278 17.9511 14.7246 17.9511C14.7175 17.9511 14.7105 17.9511 14.7034 17.9512H5.62854C5.61829 17.951 5.60804 17.951 5.59777 17.9512H5.45274C4.04892 17.9512 2.76849 17.1605 2.15582 15.9153L2.0382 15.6762C1.4031 14.3854 1.70023 12.8368 2.76968 11.8639C3.95749 10.7832 4.54332 9.20387 4.34285 7.62272L4.25254 6.91045C3.9006 4.13468 6.09594 1.68293 8.93335 1.68293H10.8713C12.1442 1.68293 13.2853 2.17393 14.129 2.96722C14.4701 3.28796 15.0103 3.27535 15.3357 2.93906C15.661 2.60276 15.6482 2.07012 15.3071 1.74938C14.1599 0.670639 12.6018 0 10.8713 0H8.93335ZM10.166 21.3171C9.11773 21.3171 7.99932 20.7984 7.13518 19.6341H13.1968C12.3327 20.7984 11.2143 21.3171 10.166 21.3171Z" fill="#B0B6C7"/>
<path d="M18.1322 6.45122C18.1322 7.69049 17.1132 8.69512 15.8562 8.69512C14.5992 8.69512 13.5802 7.69049 13.5802 6.45122C13.5802 5.21195 14.5992 4.20732 15.8562 4.20732C17.1132 4.20732 18.1322 5.21195 18.1322 6.45122Z" fill="#B0B6C7"/>
</g>
<path id="Vector_2" d="M18.1321 6.45118C18.1321 7.69045 17.1131 8.69508 15.8561 8.69508C14.5991 8.69508 13.5801 7.69045 13.5801 6.45118C13.5801 5.21191 14.5991 4.20728 15.8561 4.20728C17.1131 4.20728 18.1321 5.21191 18.1321 6.45118Z" fill="#EB365C"/>
</g>
</svg>
