<svg width="10" height="11" viewBox="0 0 10 11" fill="none" xmlns="http://www.w3.org/2000/svg">
<path fill-rule="evenodd" clip-rule="evenodd" d="M3.74914 11H3.88839C4.66417 11.0018 5.42173 10.7637 6.05624 10.3185C6.69061 9.87554 7.17177 9.24755 7.43409 8.52084C7.54248 8.20608 7.60521 7.87752 7.62038 7.54505V7.54055C7.64944 7.4033 7.64924 7.26152 7.61944 7.12443C7.58964 6.98734 7.53093 6.85805 7.44748 6.74513C7.29522 6.5584 7.07975 6.43392 6.84158 6.39519L6.31979 6.36715H1.32117L0.799373 6.39519C0.561303 6.43421 0.345619 6.55863 0.193158 6.74513C0.109806 6.85808 0.0516642 6.98739 0.0221348 7.12451C-0.00739454 7.26162 -0.00736202 7.40342 0.0221348 7.54055V7.54567C0.0369911 7.8782 0.0998293 8.20682 0.208734 8.52146C0.470794 9.24814 0.952024 9.87601 1.58658 10.3185C2.21953 10.763 2.97505 11.001 3.74914 11ZM1.48752 7.10882L1.89031 7.08971H5.74535L6.14783 7.10882C6.32658 7.13297 6.49168 7.21822 6.61448 7.35001C6.67825 7.42437 6.72335 7.51267 6.74657 7.60774C6.76979 7.70281 6.77045 7.80196 6.74813 7.89724V7.90043C6.7368 8.13052 6.68837 8.35733 6.60483 8.5721C6.36807 9.09277 5.98259 9.53223 5.49676 9.8356C5.01092 10.139 4.44612 10.2928 3.87312 10.2777H3.76471C3.19168 10.2925 2.62697 10.1386 2.14108 9.83529C1.65519 9.53195 1.26981 9.09264 1.0327 8.5721C0.948992 8.35736 0.900459 8.13055 0.88909 7.90043V7.89786C0.866519 7.80261 0.866773 7.70337 0.889713 7.6082C0.912653 7.51304 0.957657 7.42462 1.02117 7.35001C1.14439 7.21877 1.30898 7.13363 1.48752 7.10882Z" fill="#6E7191"/>
<path fill-rule="evenodd" clip-rule="evenodd" d="M2.89371 4.48604C3.1773 4.6033 3.4814 4.66326 3.78839 4.66244C4.09557 4.66324 4.3999 4.60329 4.68369 4.48604C4.96749 4.36879 5.22498 4.19656 5.44162 3.97935C5.65924 3.76346 5.83194 3.50662 5.94939 3.22378C6.06684 2.94094 6.12687 2.63772 6.12602 2.33158C6.12684 2.0253 6.06684 1.7219 5.94939 1.43891C5.83195 1.15591 5.65923 0.898893 5.44162 0.682796C5.22501 0.465568 4.9675 0.293386 4.68369 0.176184C4.39989 0.0589807 4.09556 -0.000912556 3.78839 1.10924e-05C3.48141 -0.000937583 3.17731 0.0589744 2.89371 0.176184C2.61011 0.293393 2.35275 0.465564 2.13641 0.682796C1.9187 0.898835 1.74614 1.15583 1.62863 1.43883C1.51113 1.72183 1.45086 2.02527 1.45169 2.33158C1.45085 2.63775 1.51081 2.94101 1.62832 3.22386C1.74583 3.50671 1.9187 3.76351 2.13641 3.97935C2.35278 4.19657 2.61012 4.36878 2.89371 4.48604ZM2.64605 1.19034C2.94905 0.888011 3.35981 0.71788 3.78839 0.717207V0.718139C4.217 0.718559 4.62781 0.888432 4.93104 1.19057C5.23426 1.49271 5.40526 1.90244 5.4061 2.32995C5.40551 2.75764 5.23491 3.1677 4.93166 3.4701C4.62842 3.77249 4.2172 3.94257 3.78839 3.94307C3.35975 3.9424 2.94875 3.77218 2.64574 3.46978C2.34274 3.16739 2.17234 2.75747 2.17192 2.32995C2.17243 1.90247 2.34306 1.49267 2.64605 1.19034Z" fill="#6E7191"/>
<path fill-rule="evenodd" clip-rule="evenodd" d="M7.4716 9.24308C7.42088 9.33885 7.3992 9.3869 7.41802 9.44481L7.41927 9.4438C7.43681 9.5017 7.54699 9.4737 7.54699 9.4737L7.69963 9.4438L7.9529 9.3735L8.19557 9.27803C8.38287 9.19684 8.56143 9.09695 8.72858 8.97991C9.23714 8.62486 9.62299 8.12156 9.83322 7.53899C9.92035 7.28668 9.97066 7.02321 9.98275 6.75662V6.75305C10.0061 6.64323 10.0057 6.52974 9.98182 6.42005C9.9579 6.31036 9.91107 6.20696 9.84413 6.11672C9.7223 5.96724 9.54966 5.86747 9.35909 5.83615C9.35909 5.83615 9.09347 5.81005 8.47781 5.81005C8.18333 5.80955 8.02711 5.81346 7.84058 5.81813C7.66926 5.82242 7.47236 5.82735 7.11928 5.83009C7.06025 5.82258 7.00031 5.833 6.94732 5.85999C6.93067 5.87147 6.91705 5.88696 6.90807 5.90505C6.89908 5.92314 6.89498 5.94322 6.89592 5.96338C6.89855 5.98527 6.90646 6.00617 6.91928 6.02413C6.9321 6.04208 6.94925 6.05651 6.96912 6.06615C7.01593 6.09095 7.03182 6.09297 7.07656 6.09865C7.10013 6.10164 7.13171 6.10565 7.18002 6.11454C7.36368 6.14271 7.5394 6.20918 7.69558 6.30959C7.78646 6.36765 7.85403 6.45554 7.88686 6.55808C7.93239 6.65591 7.95431 6.76301 7.95072 6.87081C7.95869 7.13839 7.95742 7.38721 7.95072 7.54629V7.55072C7.94078 7.88616 7.88214 8.21842 7.77658 8.53707C7.74755 8.6182 7.71777 8.69615 7.68811 8.76901C7.67631 8.80019 7.6644 8.83041 7.6526 8.85904C7.5939 8.99872 7.53285 9.1279 7.4716 9.24308ZM8.65444 6.96946C8.66507 6.77905 8.66299 6.5881 8.6479 6.39799L8.80521 6.40568C8.94849 6.42493 9.08091 6.49317 9.17935 6.59878C9.23046 6.65841 9.26664 6.72919 9.28526 6.80541C9.30388 6.88162 9.30439 6.96111 9.28651 7.03751V7.04007C9.27762 7.22449 9.23883 7.40632 9.17187 7.57845C9.01995 7.9433 8.76736 8.25767 8.44354 8.48518C8.46491 8.405 8.48516 8.32296 8.50366 8.24151C8.59231 7.82613 8.64271 7.40354 8.65444 6.97901V6.96946Z" fill="#6E7191"/>
<path fill-rule="evenodd" clip-rule="evenodd" d="M5.95202 3.94206C5.90895 3.99647 5.87378 4.04231 5.90249 4.11645C5.92497 4.17476 5.96167 4.19069 6.01668 4.21458C6.03191 4.22119 6.04854 4.22841 6.06666 4.23731C6.33083 4.37191 6.62357 4.44195 6.92022 4.4416C7.25322 4.44252 7.58033 4.35463 7.86785 4.18706C8.00325 4.10661 8.1281 4.00967 8.2395 3.89848C8.41399 3.72542 8.55216 3.51959 8.64634 3.29283C8.74052 3.06608 8.78875 2.82294 8.78808 2.5775C8.78873 2.33197 8.74051 2.08872 8.64634 1.86186C8.55216 1.635 8.41398 1.42903 8.2395 1.25582C8.0659 1.0817 7.8595 0.94366 7.63203 0.849722C7.40457 0.755784 7.16048 0.707829 6.9143 0.708582C6.84417 0.708588 6.77404 0.712377 6.70433 0.720001H6.69997C6.55874 0.73569 6.41973 0.766844 6.28534 0.812903C6.20559 0.840902 6.17602 0.853958 6.14858 0.928409C6.13774 0.958734 6.13451 0.99125 6.13924 1.0231C6.14397 1.05495 6.1565 1.08514 6.17569 1.11103C6.36528 1.49108 6.46542 1.90927 6.46851 2.33375C6.46809 2.6595 6.41235 2.98288 6.30403 3.29019C6.25 3.44398 6.18072 3.59192 6.09687 3.73179C6.05312 3.80489 6.00472 3.8751 5.95202 3.94206ZM7.03454 2.34998C7.03582 1.99071 6.99112 1.63278 6.90152 1.28479L6.91336 1.28441C7.25711 1.28474 7.58675 1.42114 7.82985 1.66355C8.07295 1.90596 8.20979 2.23464 8.21021 2.5775C8.20979 2.92036 8.07295 3.24905 7.82985 3.49145C7.58675 3.73386 7.25711 3.87018 6.91336 3.87052C6.86005 3.87059 6.80679 3.86739 6.75386 3.86097C6.84758 3.62838 6.91757 3.38689 6.96258 3.14027C7.01097 2.87961 7.03497 2.61508 7.03454 2.34998Z" fill="#6E7191"/>
</svg>
