<svg width="10" height="11" viewBox="0 0 10 11" fill="none" xmlns="http://www.w3.org/2000/svg">
<g id="Group 35434">
<path id="&#208;&#144;" d="M3.24447 7.50162C3.17191 7.50162 3.11346 7.48549 3.06912 7.45324C3.02881 7.421 3.00462 7.37666 2.99656 7.32022C2.9885 7.26379 3.00059 7.20131 3.03284 7.13278L4.68354 3.39604C4.71982 3.31138 4.76617 3.25092 4.82261 3.21464C4.87904 3.17433 4.94152 3.15417 5.01005 3.15417C5.07857 3.15417 5.13904 3.17433 5.19144 3.21464C5.24788 3.25092 5.29625 3.31138 5.33656 3.39604L6.98726 7.13278C7.01951 7.20131 7.0316 7.2658 7.02354 7.32627C7.01951 7.3827 6.99733 7.42704 6.95702 7.45929C6.91671 7.48751 6.86028 7.50162 6.78772 7.50162C6.7071 7.50162 6.64261 7.48146 6.59423 7.44115C6.54586 7.39681 6.50354 7.33433 6.46726 7.25371L6.03795 6.24999L6.29795 6.39511H3.71005L3.97005 6.24999L3.54075 7.25371C3.50447 7.34239 3.46416 7.40689 3.41982 7.4472C3.37547 7.48348 3.31702 7.50162 3.24447 7.50162ZM4.99795 3.83138L4.0547 6.06255L3.90958 5.93557H6.09842L5.95935 6.06255L5.01005 3.83138H4.99795Z" fill="#6E7191"/>
<path id="Vector" d="M9.37528 0.364737C9.37442 0.172081 9.21755 0.0166 9.02489 0.0174596C8.83224 0.0183192 8.67675 0.175194 8.67761 0.36785L8.68173 1.29144C8.68333 1.64888 8.68395 1.8949 8.66613 2.08261C8.46282 1.86348 8.2401 1.66262 8.00069 1.48275C7.16491 0.854814 6.12542 0.482572 5 0.482572C2.23858 0.482572 0 2.72115 0 5.48257C0 8.244 2.23858 10.4826 5 10.4826C7.76142 10.4826 10 8.244 10 5.48257C10 5.28992 9.84382 5.13374 9.65116 5.13374C9.45851 5.13374 9.30233 5.28992 9.30233 5.48257C9.30233 7.85868 7.37611 9.7849 5 9.7849C2.62389 9.7849 0.697674 7.85868 0.697674 5.48257C0.697674 3.10646 2.62389 1.18025 5 1.18025C5.96913 1.18025 6.86252 1.50026 7.58161 2.04054C7.81198 2.21361 8.02442 2.40928 8.21564 2.62423C8.19283 2.62783 8.16809 2.63112 8.14117 2.63406C7.94985 2.65495 7.69697 2.65435 7.3205 2.65268L6.39691 2.64855C6.20425 2.64769 6.04738 2.80318 6.04652 2.99583C6.04566 3.18849 6.20114 3.34536 6.3938 3.34622L7.33753 3.35043C7.68864 3.35201 7.98147 3.35332 8.21691 3.32761C8.46385 3.30064 8.69145 3.24037 8.88916 3.08736C8.93169 3.05444 8.97205 3.0189 9.01 2.98095C9.04795 2.94299 9.0835 2.90264 9.11642 2.8601C9.26943 2.66239 9.3297 2.43479 9.35667 2.18785C9.38238 1.95242 9.38107 1.65959 9.37949 1.3085L9.37528 0.364737Z" fill="#6E7191"/>
</g>
</svg>
