<svg width="18" height="18" viewBox="0 0 18 18" xmlns="http://www.w3.org/2000/svg">
    <path d="M17.4443 3.23425C17.4104 3.49782 17.1859 3.69499 16.9202 3.69466H16.8493L15.2024 3.47869C16.3845 4.99415 17.018 6.86571 16.9995 8.7875C16.9811 10.7093 16.3119 12.5683 15.1009 14.0611C13.89 15.5538 12.209 16.5919 10.3321 17.0062C8.45516 17.4206 6.49334 17.1864 4.76664 16.3423C3.03995 15.4982 1.65033 14.0937 0.824502 12.3581C-0.00128584 10.6226 -0.214593 8.65822 0.219753 6.78581C0.653937 4.91348 1.70975 3.24353 3.21529 2.04852C4.72062 0.85355 6.58664 0.204197 8.50871 0.206059C8.80216 0.206059 9.03996 0.443854 9.03996 0.737304C9.03996 1.03075 8.80216 1.26855 8.50871 1.26855C6.82107 1.26792 5.18322 1.8412 3.86452 2.89438C2.54574 3.94756 1.62426 5.41797 1.25176 7.06379C0.879104 8.70986 1.07737 10.4337 1.81401 11.9521C2.55063 13.4706 3.78183 14.6932 5.30538 15.4194C6.82877 16.1456 8.55388 16.3321 10.1973 15.9482C11.8407 15.5643 13.3047 14.6329 14.3489 13.307C15.393 11.981 15.9551 10.3393 15.9429 8.6519C15.9306 6.96426 15.3448 5.33082 14.2815 4.02026L14.193 6.0744C14.1799 6.35663 13.9479 6.57926 13.6652 6.58084H13.6404H13.6406C13.4995 6.57625 13.3664 6.51506 13.2711 6.41119C13.1757 6.30715 13.1264 6.16912 13.134 6.02841L13.2757 2.73121V2.73105C13.2738 2.72299 13.2738 2.71445 13.2757 2.70623C13.2739 2.68868 13.2739 2.67081 13.2757 2.6531V2.57879C13.2742 2.57184 13.2742 2.56456 13.2757 2.55761C13.285 2.53563 13.2956 2.51428 13.3076 2.49373C13.3221 2.47001 13.3387 2.44741 13.3572 2.42653C13.389 2.38954 13.426 2.35744 13.467 2.33088C13.4905 2.31459 13.5153 2.30036 13.5413 2.28834L13.6121 2.26352H13.821L16.9341 2.67791H16.9343C17.0758 2.68345 17.2092 2.74527 17.3051 2.84978C17.4009 2.95413 17.451 3.09247 17.4442 3.23398L17.4443 3.23425Z"
    />
</svg>
