<svg width="23" height="22" viewBox="0 0 23 22" xmlns="http://www.w3.org/2000/svg">
    <path fill-rule="evenodd" clip-rule="evenodd"
          d="M9.26113 14.3621C9.92016 14.807 10.695 15.0444 11.4876 15.0444C12.5503 15.0441 13.5694 14.6174 14.3209 13.8582C15.0724 13.0991 15.4947 12.0695 15.4951 10.9959C15.4951 10.1952 15.26 9.41247 14.8197 8.7467C14.3793 8.08093 13.7534 7.56202 13.0212 7.2556C12.2889 6.94918 11.4831 6.86901 10.7057 7.02522C9.92837 7.18143 9.2143 7.56701 8.65384 8.13321C8.09339 8.6994 7.71171 9.42077 7.55708 10.2061C7.40245 10.9914 7.48181 11.8054 7.78513 12.5452C8.08845 13.285 8.6021 13.9173 9.26113 14.3621ZM10.1517 8.9762C10.5471 8.70929 11.012 8.56683 11.4876 8.56683C12.125 8.56772 12.7361 8.82393 13.1868 9.27928C13.6376 9.73463 13.8912 10.352 13.8921 10.9959C13.8921 11.4763 13.751 11.946 13.4868 12.3455C13.2226 12.7449 12.8471 13.0563 12.4077 13.2401C11.9684 13.424 11.4849 13.4721 11.0185 13.3783C10.5521 13.2846 10.1236 13.0533 9.78734 12.7135C9.45106 12.3738 9.22205 11.941 9.12928 11.4698C9.0365 10.9986 9.08412 10.5102 9.26611 10.0663C9.4481 9.62249 9.75629 9.24311 10.1517 8.9762Z"/>
    <path fill-rule="evenodd" clip-rule="evenodd"
          d="M14.2479 21.911C14.4674 21.9659 14.6925 21.9948 14.9186 21.997C15.3722 21.9934 15.8174 21.8725 16.2117 21.646L18.0602 20.5775C18.3861 20.3935 18.6716 20.1446 18.8994 19.8459C19.1272 19.5471 19.2926 19.2048 19.3855 18.8395C19.4842 18.4776 19.5104 18.0995 19.4628 17.7272C19.4151 17.3549 19.2944 16.996 19.1079 16.6713C18.9605 16.4817 18.8634 16.2572 18.826 16.0191C18.7885 15.781 18.8119 15.5372 18.8939 15.3107C19.0481 15.1267 19.2457 14.9848 19.4683 14.8981C19.691 14.8113 19.9317 14.7824 20.1683 14.8141C20.9188 14.8127 21.6383 14.5108 22.169 13.9746C22.6998 13.4384 22.9986 12.7116 23 11.9534V10.0562C22.9986 9.29791 22.6998 8.57111 22.169 8.03493C21.6383 7.49876 20.9188 7.1969 20.1683 7.19547C19.9317 7.22715 19.691 7.19827 19.4683 7.11149C19.2457 7.02471 19.0481 6.88281 18.8939 6.69881C18.8146 6.47196 18.7926 6.2287 18.83 5.9911C18.8674 5.7535 18.9629 5.5291 19.1079 5.33825C19.4817 4.67965 19.5815 3.89804 19.3852 3.1652C19.1888 2.43235 18.7125 1.80823 18.0609 1.43001L16.2225 0.36148C15.9293 0.187788 15.605 0.0743347 15.2682 0.0276391C14.9315 -0.0190566 14.5889 0.00192543 14.2602 0.0893796C13.9315 0.176834 13.6231 0.329037 13.3528 0.537244C13.0825 0.745452 12.8556 1.00556 12.6851 1.30263L12.5678 1.5059C11.9373 2.60695 11.0714 2.60695 10.4409 1.5059L10.3128 1.28975C9.96658 0.694844 9.40159 0.262304 8.74102 0.0863952C8.08044 -0.0895138 7.37781 0.00546695 6.78625 0.350639L4.9371 1.41985C4.61115 1.60412 4.32566 1.85337 4.09796 2.15247C3.87025 2.45158 3.70507 2.7943 3.61245 3.15985C3.4186 3.89132 3.51839 4.67053 3.89012 5.32808C4.03839 5.51776 4.13608 5.74265 4.17389 5.9813C4.2117 6.21995 4.18835 6.46441 4.10609 6.69136C3.95186 6.87535 3.75434 7.01726 3.53168 7.10404C3.30901 7.19082 3.06833 7.2197 2.83174 7.18802C2.08115 7.18945 1.36171 7.4913 0.830964 8.02748C0.300217 8.56366 0.00141821 9.29046 0 10.0487V11.9459C0.00106197 12.7041 0.299427 13.4309 0.829778 13.9673C1.36013 14.5037 2.07926 14.806 2.82973 14.808C3.06632 14.7763 3.307 14.8052 3.52966 14.892C3.75233 14.9787 3.94985 15.1207 4.10408 15.3046C4.18338 15.5315 4.20535 15.7748 4.16798 16.0124C4.13062 16.25 4.03511 16.4744 3.89012 16.6652C3.51667 17.3237 3.41718 18.105 3.61348 18.8375C3.80978 19.57 4.28584 20.1939 4.9371 20.5721L6.77753 21.6379C7.06828 21.8147 7.39161 21.93 7.72784 21.9766C8.06407 22.0231 8.40617 22.0001 8.73332 21.9089C9.06134 21.8224 9.36908 21.6709 9.63872 21.4633C9.90836 21.2556 10.1345 20.996 10.3041 20.6995L10.4215 20.4962C11.052 19.3951 11.9179 19.3951 12.5483 20.4962L12.6764 20.7123C13.0264 21.3028 13.5899 21.7326 14.2479 21.911ZM12.9375 18.4991C12.5071 18.2048 12.0066 18.0323 11.4879 17.9994V18.0021C10.9701 18.0379 10.471 18.2118 10.0415 18.5062C9.61197 18.8006 9.26749 19.2049 9.04319 19.6777L8.92581 19.881C8.7904 20.1099 8.5719 20.2764 8.31681 20.3451C8.19303 20.3786 8.06379 20.3864 7.93696 20.3678C7.81013 20.3493 7.68835 20.3049 7.57903 20.2374L5.73055 19.1682C5.45195 19.0001 5.24896 18.7292 5.16447 18.4127C5.07894 18.0981 5.12018 17.7622 5.27916 17.4783C5.57306 17.0451 5.74774 16.5407 5.78534 16.0169C5.82293 15.493 5.72208 14.9685 5.49312 14.497C5.20576 14.0582 4.80745 13.7051 4.33949 13.4742C3.87154 13.2433 3.35096 13.143 2.83174 13.1838C2.50591 13.1837 2.19348 13.0528 1.96308 12.8201C1.73269 12.5873 1.60318 12.2717 1.603 11.9425V10.0453C1.60229 9.88219 1.63359 9.72052 1.69511 9.56966C1.75662 9.41881 1.84712 9.28177 1.96138 9.16647C2.07564 9.05117 2.21139 8.95989 2.36078 8.89791C2.51017 8.83593 2.67024 8.80448 2.83174 8.80538C3.35076 8.8474 3.87146 8.74844 4.33988 8.51874C4.8083 8.28904 5.2074 7.93698 5.4958 7.49902C5.72477 7.02749 5.82561 6.50296 5.78802 5.97913C5.75043 5.45529 5.57574 4.95094 5.28184 4.51771C5.20205 4.37668 5.15061 4.22113 5.13047 4.05997C5.11033 3.89881 5.12188 3.73523 5.16447 3.57859C5.24953 3.26002 5.45594 2.98842 5.7386 2.8231L7.58708 1.74169C7.80902 1.61354 8.0717 1.57795 8.31923 1.64249C8.56675 1.70702 8.77957 1.8666 8.9124 2.08726L9.02977 2.3034C9.25274 2.77763 9.59729 3.18294 10.0277 3.47723C10.458 3.77153 10.9585 3.94409 11.4772 3.977C11.9959 3.94409 12.4964 3.77153 12.9267 3.47723C13.3571 3.18294 13.7016 2.77763 13.9246 2.3034L14.042 2.10013C14.1071 1.98727 14.1937 1.88851 14.2967 1.8095C14.3997 1.73048 14.5171 1.67277 14.6422 1.63966C14.7673 1.60656 14.8976 1.59871 15.0257 1.61656C15.1539 1.63442 15.2772 1.67763 15.3888 1.74373L17.2373 2.81226C17.5152 2.97953 17.7181 3.24912 17.8033 3.56436C17.8459 3.721 17.8575 3.88459 17.8373 4.04574C17.8172 4.2069 17.7658 4.36245 17.686 4.50348C17.3921 4.93672 17.2174 5.44106 17.1798 5.9649C17.1422 6.48873 17.243 7.01326 17.472 7.48479C17.7601 7.92222 18.1587 8.27395 18.6265 8.50362C19.0942 8.73328 19.6142 8.83255 20.1327 8.79115C20.4585 8.79133 20.771 8.92217 21.0014 9.15492C21.2318 9.38767 21.3613 9.7033 21.3615 10.0325V11.9297C21.3623 12.0929 21.3312 12.2547 21.2697 12.4058C21.2083 12.5568 21.1178 12.694 21.0035 12.8094C20.8893 12.9249 20.7535 13.0163 20.604 13.0783C20.4545 13.1404 20.2943 13.1719 20.1327 13.171C19.6142 13.1296 19.0942 13.2288 18.6265 13.4585C18.1587 13.6882 17.7601 14.0399 17.472 14.4773C17.243 14.9489 17.1422 15.4734 17.1798 15.9972C17.2174 16.5211 17.3921 17.0254 17.686 17.4587C17.7658 17.5997 17.8172 17.7552 17.8373 17.9164C17.8575 18.0775 17.8459 18.2411 17.8033 18.3978C17.7176 18.7168 17.5102 18.9885 17.2265 19.1533L15.378 20.2326C15.1549 20.3602 14.8912 20.3943 14.6434 20.3277C14.3956 20.2611 14.1836 20.099 14.0527 19.8762L13.9354 19.673C13.7124 19.1987 13.3678 18.7934 12.9375 18.4991Z"/>
</svg>
