<svg width="21" height="17" viewBox="0 0 21 17" xmlns="http://www.w3.org/2000/svg">
    <path d="M1.23017 7.40354C1.23017 7.40354 10.0905 3.67172 13.1634 2.35766C14.3414 1.83208 18.3362 0.150066 18.3362 0.150066C18.3362 0.150066 20.18 -0.585749 20.0263 1.2013C19.9751 1.93719 19.5654 4.51265 19.1557 7.29842C18.5411 11.2405 17.8753 15.5505 17.8753 15.5505C17.8753 15.5505 17.7728 16.7595 16.9022 16.9697C16.0315 17.18 14.5974 16.2339 14.3414 16.0236C14.1365 15.866 10.5002 13.5007 9.1686 12.3443C8.81008 12.029 8.40037 11.3983 9.21978 10.6624C11.0636 8.92784 13.2658 6.77284 14.5974 5.40626C15.2121 4.77548 15.8266 3.30378 13.2658 5.09083C9.62955 7.66637 6.04445 10.0842 6.04445 10.0842C6.04445 10.0842 5.22498 10.6098 3.68852 10.1367C2.152 9.66373 0.359449 9.03296 0.359449 9.03296C0.359449 9.03296 -0.869656 8.24455 1.23017 7.40354Z"/>
</svg>
