<svg width="19" height="19" viewBox="0 0 19 19" fill="none" xmlns="http://www.w3.org/2000/svg">
<path d="M2.78249 16.2175C4.56408 17.9991 6.98044 19 9.5 19C12.0189 18.9979 14.434 17.9963 16.2152 16.2152C17.9963 14.434 18.9979 12.0189 19 9.5C19 9.32422 18.9302 9.15564 18.8059 9.03135C18.6816 8.90705 18.513 8.83722 18.3372 8.83722C18.1614 8.83722 17.9929 8.90705 17.8686 9.03135C17.7443 9.15564 17.6744 9.32422 17.6744 9.5C17.6744 11.1168 17.195 12.6972 16.2968 14.0415C15.3986 15.3858 14.1219 16.4335 12.6282 17.0522C11.1345 17.6709 9.49093 17.8328 7.90524 17.5174C6.31956 17.202 4.86301 16.4234 3.7198 15.2802C2.57658 14.137 1.79804 12.6804 1.48263 11.0948C1.16721 9.50907 1.32909 7.86546 1.9478 6.37178C2.5665 4.87809 3.61424 3.60142 4.95852 2.7032C6.3028 1.80498 7.88325 1.32556 9.5 1.32556C9.67539 1.32431 9.84325 1.25408 9.96727 1.13005C10.0913 1.00603 10.1615 0.838172 10.1628 0.662778C10.1615 0.487385 10.0913 0.319529 9.96727 0.195504C9.84325 0.0714788 9.67539 0.00124939 9.5 0C6.98044 0 4.56408 1.00089 2.78249 2.78249C1.00089 4.56408 0 6.98044 0 9.5C0 12.0196 1.00089 14.4359 2.78249 16.2175Z" fill="#6E7191"/>
<path fill-rule="evenodd" clip-rule="evenodd" d="M9.49948 14.1389C9.32409 14.1377 9.15623 14.0674 9.03221 13.9434C8.90818 13.8194 8.83795 13.6515 8.8367 13.4761V13.3967C7.66905 13.0289 6.62704 11.9898 6.62704 10.9895C6.62843 10.8142 6.69876 10.6469 6.82277 10.523C6.94678 10.3991 7.11452 10.3285 7.28982 10.3273C7.46545 10.3281 7.63347 10.398 7.75791 10.522C7.88235 10.6459 7.95314 10.8139 7.95467 10.9895C7.95467 11.1412 8.03926 11.3106 8.29642 11.5969C8.45661 11.7545 8.63911 11.885 8.8367 11.9852V9.96795L7.95364 9.65983C7.54354 9.54828 7.18635 9.29591 6.94394 8.94683C6.70152 8.59775 6.58937 8.17447 6.62808 7.75124C6.62808 6.79046 7.63412 5.68334 8.84161 5.44663C8.85959 5.29936 8.92628 5.16146 9.03221 5.05553C9.15623 4.9315 9.32409 4.86127 9.49948 4.86002C9.67488 4.86127 9.84273 4.9315 9.96676 5.05553C10.0908 5.17955 10.161 5.34741 10.1623 5.5228V5.53986C11.3293 5.90798 12.3735 6.94697 12.3735 7.94748C12.372 8.12274 12.3018 8.29014 12.1778 8.41402C12.0538 8.5379 11.886 8.60836 11.7108 8.60975C11.5355 8.60836 11.3687 8.5379 11.2447 8.41402C11.1208 8.29014 11.0495 8.12274 11.048 7.94748C11.048 7.62266 10.6541 7.21071 10.1623 6.95753V9.02624L11.049 9.33673C11.4019 9.42954 11.717 9.62944 11.951 9.90941C12.185 10.1894 12.3262 10.5352 12.3549 10.8989C12.3681 10.995 12.3747 11.0919 12.3746 11.1889V11.2443C12.336 12.1923 11.3471 13.2609 10.162 13.4913C10.1569 13.6612 10.0872 13.823 9.96676 13.9434C9.84273 14.0674 9.67488 14.1377 9.49948 14.1389ZM8.8367 6.81077V8.56212L8.38859 8.40522C8.08848 8.30023 7.95674 8.22948 7.95674 7.75228C8.04503 7.44519 8.23436 7.17705 8.49422 6.99112C8.60037 6.91516 8.71568 6.85468 8.8367 6.81077ZM10.1623 12.1269V10.4304L10.613 10.5877C10.9036 10.6895 11.0385 10.7586 11.0459 11.1998C10.9529 11.5029 10.7624 11.7667 10.5033 11.9495C10.3974 12.0242 10.2826 12.0837 10.1623 12.1269Z" fill="#6E7191"/>
<path d="M14.5812 3.48211V1.54612C14.5799 1.37072 14.5097 1.20287 14.3857 1.07884C14.2616 0.954819 14.0938 0.88459 13.9184 0.88334C13.743 0.88459 13.5751 0.954819 13.4511 1.07884C13.3271 1.20287 13.2569 1.37072 13.2556 1.54612V5.08111C13.2564 5.19432 13.286 5.30438 13.3401 5.40154C13.3696 5.45519 13.4065 5.50499 13.4502 5.54931C13.5114 5.61121 13.5843 5.6603 13.6647 5.69371C13.7451 5.72713 13.8313 5.74419 13.9184 5.7439C13.9207 5.74391 13.923 5.74391 13.9253 5.74389H17.4534C17.6292 5.74389 17.7977 5.67406 17.922 5.54977C18.0463 5.42547 18.1162 5.25689 18.1162 5.08111C18.1162 4.90533 18.0463 4.73675 17.922 4.61246C17.7977 4.48816 17.6292 4.41833 17.4534 4.41833H15.5187L18.8076 1.13149C18.9318 1.00725 19.0016 0.838745 19.0016 0.663041C19.0016 0.487338 18.9318 0.31883 18.8076 0.194589C18.6833 0.0703482 18.5148 0.000550227 18.3391 0.000550227C18.1634 0.000550227 17.9949 0.0703482 17.8707 0.194589L14.5812 3.48211Z" fill="#6E7191"/>
</svg>
