<svg width="17" height="19" viewBox="0 0 17 19" fill="none" xmlns="http://www.w3.org/2000/svg">
<path d="M12.1723 0.215418C11.8878 -0.071806 11.4265 -0.071806 11.142 0.215418C10.8574 0.502642 10.8574 0.968324 11.142 1.25555L11.8411 1.96129L7.37136 1.96127C5.71384 1.96101 4.70238 1.96085 3.85965 2.23727C2.15915 2.79503 0.82594 4.1409 0.273415 5.85754C-0.000404152 6.70827 -0.000245033 7.72932 1.58129e-05 9.40257V9.71999C-0.000245033 11.3932 -0.000404152 12.4143 0.273416 13.265C0.397757 13.6513 0.808782 13.8628 1.19147 13.7372C1.57415 13.6117 1.78358 13.1968 1.65924 12.8105C1.46616 12.2106 1.45717 11.4438 1.45717 9.56128C1.45717 7.67878 1.46616 6.91196 1.65924 6.31209C2.06762 5.04327 3.05304 4.0485 4.30993 3.63624C4.90416 3.44133 5.66377 3.43225 7.52858 3.43225H11.5876L10.9479 3.97047C10.6387 4.23051 10.597 4.69428 10.8546 5.00632C11.1122 5.31837 11.5716 5.36053 11.8807 5.10049L13.2492 3.94924C13.6225 3.63522 13.8272 3.19474 13.8571 2.74607C13.8886 2.27284 13.7259 1.78373 13.363 1.41739L12.1723 0.215418Z" fill="#6E7191"/>
<path d="M16.7266 5.85754C16.6022 5.47122 16.1912 5.25981 15.8085 5.38533C15.4259 5.51085 15.2164 5.92578 15.3408 6.31209C15.5338 6.91196 15.5428 7.67878 15.5428 9.56128C15.5428 11.4438 15.5338 12.2106 15.3408 12.8105C14.9324 14.0793 13.947 15.0741 12.6901 15.4863C12.0958 15.6812 11.3362 15.6903 9.47143 15.6903H7.52858C6.58895 15.6903 5.93 15.6881 5.43102 15.6608L6.1009 14.9846C6.38543 14.6973 6.38543 14.2317 6.1009 13.9444C5.81638 13.6572 5.35507 13.6572 5.07055 13.9444L3.87988 15.1464C3.61929 15.4095 3.46082 15.7375 3.40491 16.078C3.3104 16.6534 3.50913 17.2707 3.99365 17.6783L5.36216 18.8295C5.67128 19.0896 6.13069 19.0474 6.38828 18.7353C6.64588 18.4233 6.60412 17.9595 6.295 17.6995L5.6332 17.1427C6.12794 17.1615 6.69846 17.1614 7.37726 17.1613H9.62863C11.2862 17.1616 12.2976 17.1617 13.1404 16.8853C14.8408 16.3275 16.1741 14.9817 16.7266 13.265C17.0004 12.4143 17.0002 11.3932 17 9.71998V9.40258C17.0002 7.72933 17.0004 6.70827 16.7266 5.85754Z" fill="#6E7191"/>
</svg>
