<svg width="22" height="18" viewBox="0 0 22 18" xmlns="http://www.w3.org/2000/svg">
    <path d="M21.3645 2.966C20.6979 3.25309 19.9972 3.45301 19.2797 3.56081C19.6152 3.50325 20.1088 2.89884 20.3053 2.6542C20.6038 2.28518 20.8313 1.86392 20.9763 1.41181C20.9763 1.37824 21.0098 1.33027 20.9763 1.30628C20.9594 1.29705 20.9404 1.29221 20.9211 1.29221C20.9019 1.29221 20.8829 1.29705 20.866 1.30628C20.0868 1.72861 19.2576 2.05094 18.3978 2.26566C18.3679 2.27482 18.336 2.27564 18.3056 2.26803C18.2752 2.26043 18.2474 2.24468 18.2253 2.22248C18.1584 2.14273 18.0863 2.06742 18.0096 1.99703C17.659 1.68257 17.2611 1.4252 16.8307 1.23433C16.2496 0.995723 15.6219 0.892388 14.9951 0.932128C14.3869 0.970573 13.7931 1.13385 13.2506 1.41181C12.7164 1.70486 12.2469 2.10298 11.8703 2.58225C11.4742 3.07553 11.1882 3.648 11.0316 4.26115C10.9025 4.84438 10.8878 5.44717 10.9885 6.03599C10.9885 6.13672 10.9885 6.15111 10.9022 6.13672C7.48509 5.63305 4.68141 4.41945 2.39055 1.81475C2.28991 1.69963 2.23719 1.69963 2.15571 1.81475C1.15885 3.33056 1.6429 5.72899 2.88898 6.91381C3.05672 7.07211 3.22925 7.22561 3.41137 7.36951C2.84006 7.32892 2.28269 7.17396 1.7723 6.91381C1.67645 6.85145 1.62373 6.88503 1.61894 7.00016C1.60536 7.15976 1.60536 7.32024 1.61894 7.47984C1.71894 8.24475 2.02012 8.96935 2.49167 9.57954C2.96323 10.1897 3.58824 10.6636 4.3028 10.9528C4.47699 11.0274 4.65849 11.0837 4.84436 11.1207C4.31546 11.2249 3.77301 11.2411 3.23884 11.1686C3.12382 11.1446 3.08068 11.207 3.12382 11.3173C3.82833 13.2361 5.35717 13.8213 6.47864 14.1475C6.632 14.1715 6.78537 14.1715 6.9579 14.2098C6.9579 14.2098 6.9579 14.2098 6.92914 14.2386C6.59845 14.843 5.26132 15.2508 4.64786 15.4618C3.52816 15.8644 2.33434 16.0182 1.14927 15.9127C0.962355 15.8839 0.919222 15.8887 0.871296 15.9127C0.82337 15.9367 0.871296 15.9895 0.924014 16.0374C1.16364 16.1957 1.40327 16.3348 1.65249 16.4692C2.39441 16.8742 3.17876 17.1959 3.99128 17.4285C8.19918 18.5894 12.9343 17.7355 16.0926 14.5936C18.5752 12.128 19.4474 8.72703 19.4474 5.32126C19.4474 5.19174 19.6056 5.11499 19.6966 5.04783C20.3247 4.55802 20.8784 3.97957 21.3405 3.33056C21.4205 3.23381 21.4615 3.11064 21.4555 2.98518C21.4555 2.91323 21.4555 2.92762 21.3645 2.966Z"/>
</svg>
