<svg width="18" height="18" viewBox="0 0 18 18" xmlns="http://www.w3.org/2000/svg">
    <path d="M6.10588 17.206H5.8872C4.67173 17.2076 3.48542 16.8396 2.49161 16.1526C1.49516 15.4687 0.738947 14.4985 0.327347 13.3754C0.156715 12.889 0.0581973 12.3811 0.0347999 11.8671V11.8592C-0.0117809 11.6473 -0.0115817 11.428 0.0347999 11.216C0.0811815 11.004 0.172738 10.8042 0.303865 10.6297C0.54329 10.3414 0.881999 10.149 1.25586 10.0887L2.07529 10.0455H9.92415L10.7426 10.0887C11.1166 10.1486 11.4554 10.3411 11.6946 10.6297C11.8259 10.8041 11.9179 11.0039 11.9646 11.2159C12.0114 11.4278 12.0117 11.6471 11.9656 11.8592V11.866C11.9418 12.3799 11.8433 12.8879 11.6731 13.3745C11.2613 14.4976 10.5053 15.468 9.5093 16.1526C8.51302 16.8407 7.32401 17.2088 6.10588 17.206ZM2.96858 11.1623L2.33653 11.1919C2.05593 11.23 1.79725 11.3616 1.60369 11.5647C1.50415 11.6801 1.43326 11.8168 1.39725 11.9639C1.36123 12.111 1.36106 12.2643 1.39627 12.4115V12.4155C1.41411 12.7712 1.48984 13.1217 1.6213 13.4536C1.9935 14.258 2.59903 14.9371 3.36191 15.4059C4.12479 15.8747 5.01147 16.1125 5.91117 16.0897H6.08142C6.98121 16.113 7.8682 15.8753 8.63117 15.4065C9.39414 14.9376 9.99946 14.2583 10.3713 13.4536C10.5023 13.1215 10.5778 12.7711 10.5958 12.4155V12.4106C10.631 12.2633 10.6307 12.1101 10.5944 11.9632C10.5581 11.8163 10.4868 11.6797 10.3869 11.5647C10.1939 11.3609 9.93497 11.2292 9.65411 11.1919L9.02205 11.1623H2.96858ZM5.94884 7.41143C5.46682 7.41266 4.9891 7.31989 4.54383 7.13864C4.09857 6.95739 3.69476 6.69128 3.35506 6.35556C3.0132 6.022 2.74169 5.62514 2.55716 5.18802C2.37262 4.75091 2.27849 4.28222 2.27978 3.80905C2.27851 3.33566 2.37263 2.86672 2.55716 2.42936C2.74169 1.992 3.0132 1.59485 3.35506 1.26098C3.69475 0.925309 4.09855 0.659234 4.54383 0.478146C4.98912 0.297058 5.46687 0.204553 5.94884 0.206073C6.43111 0.204565 6.90873 0.297066 7.35434 0.478146C7.79994 0.659226 8.20449 0.925293 8.54458 1.26098C8.88621 1.59498 9.15707 1.99215 9.3415 2.42948C9.52593 2.86681 9.62054 3.33572 9.61937 3.80905C9.62056 4.28217 9.52594 4.75081 9.3415 5.1879C9.15706 5.625 8.88621 6.02186 8.54458 6.35556C8.20445 6.69127 7.79992 6.9574 7.35434 7.13864C6.90876 7.31988 6.43115 7.41262 5.94884 7.41143ZM5.94884 1.31309C5.27575 1.314 4.63028 1.57696 4.15442 2.0443C3.67857 2.51165 3.411 3.14526 3.41034 3.80605C3.41113 4.4668 3.67909 5.10024 4.15491 5.56756C4.63074 6.03487 5.27579 6.29797 5.94884 6.29901C6.62211 6.29823 7.26763 6.03525 7.74375 5.56792C8.21987 5.10059 8.48739 4.46702 8.48832 3.80605C8.48673 3.14551 8.21882 2.51254 7.74277 2.04574C7.26672 1.57895 6.62168 1.31639 5.94884 1.31561V1.31309Z"
    />
</svg>
