<svg width="17" height="18" viewBox="0 0 17 18" xmlns="http://www.w3.org/2000/svg">
    <path d="M4.8367 15.6958C4.8367 15.4113 4.8367 15.1268 4.8367 14.8424C4.83872 14.8307 4.83831 14.8188 4.83549 14.8074C4.83268 14.7959 4.82752 14.7851 4.82034 14.7757C4.81315 14.7663 4.80409 14.7584 4.79372 14.7526C4.78335 14.7468 4.77189 14.7432 4.76005 14.742C4.04846 14.5417 3.39167 14.1848 2.83863 13.698C2.43568 13.3348 2.10018 12.9044 1.84739 12.4263C1.49109 11.7356 1.25397 10.9908 1.14586 10.2226C1.01191 9.25895 0.965384 8.28536 1.00685 7.3135C1.01595 6.8604 1.03933 6.41245 1.0913 5.95936C1.17417 5.09834 1.39338 4.25562 1.74086 3.46218C2.16994 2.4866 2.94835 1.70296 3.926 1.26234C4.59199 0.960379 5.29262 0.73993 6.01241 0.60587C6.71829 0.473395 7.43297 0.392086 8.15079 0.362588C8.79783 0.339917 9.44561 0.349368 10.0917 0.390907C11.0164 0.42958 11.9327 0.581333 12.8199 0.842716C13.4776 1.03058 14.1033 1.31476 14.6763 1.68584C15.2346 2.06558 15.6862 2.57987 15.9885 3.18028C16.3438 3.88154 16.5854 4.63392 16.7043 5.40972C16.7815 5.87032 16.8323 6.33489 16.8563 6.80119C16.8901 7.37915 16.8862 7.95967 16.8641 8.53506C16.842 9.11044 16.7926 9.66908 16.7212 10.2329C16.6308 11.0791 16.3683 11.8984 15.9495 12.6412C15.4043 13.581 14.531 14.2906 13.4941 14.6364C12.7852 14.8824 12.0531 15.0575 11.309 15.159C10.7646 15.2337 10.219 15.2877 9.67077 15.3096C9.25115 15.3289 8.83153 15.3238 8.41191 15.3173C8.17417 15.3173 7.93773 15.2942 7.70129 15.2736C7.67807 15.2692 7.65409 15.2718 7.63235 15.281C7.61062 15.2901 7.59211 15.3055 7.57917 15.3251C7.10109 15.894 6.60482 16.4475 6.10465 16.9984C6.01354 17.0989 5.90806 17.1857 5.79156 17.2559C5.71509 17.3056 5.62789 17.3368 5.537 17.3469C5.44612 17.3571 5.3541 17.3459 5.26837 17.3144C5.18264 17.2828 5.1056 17.2317 5.04348 17.1652C4.98135 17.0987 4.93589 17.0186 4.91075 16.9315C4.86124 16.7767 4.83669 16.6151 4.838 16.4527C4.8367 16.1978 4.8367 15.9468 4.8367 15.6958ZM5.41481 16.7757L5.47587 16.7191L6.56065 15.5259C6.9781 15.0668 7.39512 14.6072 7.81171 14.1473C7.83219 14.1192 7.85981 14.097 7.89177 14.083C7.92372 14.069 7.95886 14.0636 7.99359 14.0675C8.1352 14.0816 8.2768 14.0868 8.41971 14.0881C8.91338 14.0881 9.40705 14.0881 9.90072 14.0533C10.3489 14.0186 10.7958 13.9645 11.2401 13.895C11.7185 13.8125 12.1921 13.7046 12.6588 13.5719C13.6981 13.2951 14.5022 12.703 15.0076 11.7441C15.306 11.1545 15.4931 10.5158 15.5597 9.85959C15.6387 9.24107 15.686 8.61898 15.7013 7.99572C15.7244 7.21277 15.6704 6.42946 15.5403 5.65686C15.45 5.09712 15.2876 4.55117 15.057 4.03241C14.7634 3.38881 14.3477 2.85591 13.7072 2.51351C12.725 1.98833 11.6623 1.75406 10.5672 1.63435C10.2567 1.60088 9.94619 1.58286 9.6344 1.57127C8.99598 1.53866 8.3562 1.5421 7.71817 1.58157C7.25933 1.61531 6.80294 1.67635 6.35149 1.76436C5.68757 1.88427 5.04529 2.10117 4.44566 2.40796C4.09803 2.582 3.78264 2.8131 3.51288 3.09146C3.07568 3.57563 2.75498 4.15173 2.57491 4.77642C2.36128 5.50395 2.24467 6.25606 2.22804 7.01358C2.18624 7.77109 2.19579 8.53054 2.25662 9.28679C2.29447 9.73684 2.37052 10.1829 2.48397 10.6203C2.65276 11.302 2.98021 11.935 3.44013 12.4688C3.93666 13.0133 4.57841 13.4078 5.29139 13.6066C5.38103 13.6337 5.42131 13.6646 5.42131 13.765C5.41351 14.1357 5.42131 14.5064 5.42131 14.8771L5.41481 16.7757Z"/>
    <path d="M4.5025 5.27851C4.4934 4.99662 4.648 4.79195 4.83508 4.60788C5.08181 4.3737 5.35364 4.16694 5.64574 3.99131C5.77893 3.90992 5.9373 3.87891 6.09173 3.90398C6.24615 3.92904 6.38626 4.00851 6.48628 4.12775C6.83968 4.49583 7.15601 4.89719 7.43075 5.32614C7.5668 5.51909 7.66953 5.73311 7.73474 5.95945C7.7608 6.04777 7.7625 6.1414 7.73965 6.23059C7.7168 6.31979 7.67025 6.40129 7.60483 6.4666C7.45496 6.61237 7.29522 6.74784 7.12675 6.87207C7.04186 6.93911 6.97874 7.02939 6.94524 7.1317C6.91175 7.23401 6.90936 7.34381 6.93837 7.44746C7.04242 7.93412 7.27819 8.38354 7.62042 8.74753C8.03626 9.25054 8.57206 9.64294 9.17938 9.88928C9.32861 9.96531 9.4996 9.98847 9.66396 9.95493C9.75397 9.9306 9.83396 9.87881 9.8926 9.8069C9.98354 9.69234 10.0823 9.58164 10.1641 9.45936C10.2703 9.30682 10.4324 9.2014 10.6158 9.16558C10.7993 9.12975 10.9896 9.16634 11.1463 9.26756C11.5866 9.52072 12.0024 9.81374 12.3882 10.1429C12.4792 10.2201 12.574 10.2948 12.665 10.3733C12.7726 10.4546 12.8503 10.5686 12.8862 10.6979C12.9221 10.8272 12.9142 10.9646 12.8637 11.089C12.7835 11.2982 12.6665 11.4917 12.5182 11.6605C12.3338 11.9143 12.0991 12.1281 11.8283 12.2886C11.6989 12.3639 11.5534 12.4082 11.4036 12.4178C11.2538 12.4274 11.1038 12.4021 10.9657 12.344C9.9146 11.9247 8.93248 11.3525 8.05173 10.6462C7.19028 9.9435 6.43743 9.11951 5.81722 8.20047C5.29535 7.43965 4.88016 6.61214 4.58305 5.74062C4.55141 5.63521 4.52539 5.52823 4.5051 5.42011C4.49932 5.37312 4.49845 5.32567 4.5025 5.27851Z"/>
    <path d="M8.99029 3.90861C9.8697 3.92472 10.7155 4.24613 11.3803 4.8168C12.045 5.38748 12.4865 6.17121 12.6279 7.03138C12.6848 7.34411 12.7152 7.66101 12.7188 7.97876C12.7188 8.05342 12.6993 8.10748 12.6188 8.1152C12.5382 8.12293 12.5174 8.0547 12.5174 7.98648C12.5295 7.34375 12.3963 6.70647 12.1277 6.12132C11.9015 5.64051 11.5663 5.21789 11.1483 4.88636C10.7304 4.55482 10.2408 4.32331 9.71781 4.20982C9.44128 4.14639 9.1585 4.11358 8.87467 4.11199C8.84703 4.11246 8.81947 4.109 8.79282 4.1017C8.77014 4.09536 8.75083 4.08054 8.73895 4.06037C8.72708 4.0402 8.72357 4.01625 8.72917 3.99357C8.72933 3.98281 8.73166 3.97219 8.73601 3.96233C8.74036 3.95247 8.74665 3.94356 8.75451 3.93614C8.76237 3.92871 8.77164 3.9229 8.78179 3.91906C8.79194 3.91522 8.80275 3.91342 8.81361 3.91376C8.87207 3.90604 8.93183 3.90861 8.99029 3.90861Z"/>
    <path d="M11.5016 7.39971C11.4973 7.04211 11.4084 6.69049 11.2421 6.37307C11.0758 6.05564 10.8368 5.78125 10.5442 5.57188C10.2027 5.33418 9.80561 5.18665 9.39055 5.14324C9.32039 5.13423 9.25024 5.13037 9.17879 5.12265C9.10734 5.11492 9.06446 5.08532 9.07096 5.01324C9.07746 4.94115 9.12292 4.91541 9.20087 4.92056C10.3519 4.99007 11.3315 5.63496 11.6328 6.83592C11.688 7.06749 11.7155 7.30467 11.7147 7.54259C11.7147 7.56448 11.7147 7.58636 11.7147 7.60695C11.7147 7.67131 11.6731 7.71379 11.6095 7.71251C11.5953 7.71203 11.5815 7.70872 11.5687 7.70276C11.5559 7.6968 11.5445 7.68832 11.5351 7.67784C11.5258 7.66736 11.5187 7.65509 11.5142 7.6418C11.5098 7.62851 11.5082 7.61446 11.5094 7.60052C11.499 7.54002 11.5016 7.47823 11.5016 7.39971Z"/>
    <path d="M9.48577 5.96546C10.1172 6.00794 10.5576 6.31429 10.6784 6.97978C10.693 7.06503 10.7034 7.15095 10.7096 7.23722C10.7096 7.30673 10.694 7.36594 10.6173 7.36594C10.5407 7.36594 10.5147 7.31445 10.5121 7.23722C10.5114 6.98212 10.432 6.73332 10.2847 6.52411C10.1299 6.33462 9.90768 6.21115 9.66375 6.17914C9.60922 6.16903 9.55412 6.16215 9.49876 6.15854C9.40782 6.15854 9.35716 6.11349 9.36885 6.04398C9.38054 5.97447 9.43511 5.9616 9.48577 5.96546Z"/>
</svg>
