<svg width="11" height="10" viewBox="0 0 11 10" fill="none" xmlns="http://www.w3.org/2000/svg">
<path d="M8.31886 9.55455H5.77851C5.73198 9.55587 5.68564 9.5482 5.64225 9.53201C5.59886 9.51582 5.55929 9.49143 5.52589 9.46029C5.4925 9.42915 5.46594 9.39188 5.44781 9.35071C5.42968 9.30954 5.42034 9.26529 5.42034 9.22059C5.42034 9.17588 5.42968 9.13163 5.44781 9.09046C5.46594 9.04929 5.4925 9.01203 5.52589 8.98089C5.55929 8.94974 5.59886 8.92536 5.64225 8.90916C5.68564 8.89297 5.73198 8.88531 5.77851 8.88662H8.32006C8.69022 8.88593 9.04497 8.74425 9.30645 8.49266C9.56794 8.24107 9.7148 7.90014 9.7148 7.54469V7.34885H9.18251C8.85014 7.35427 8.52762 7.24043 8.27803 7.02959C8.02844 6.81875 7.86974 6.52608 7.83296 6.20883C7.81759 6.03707 7.83948 5.86412 7.89723 5.70089C7.95499 5.53766 8.04736 5.3877 8.16851 5.26049C8.28967 5.13327 8.43698 5.03156 8.60114 4.96177C8.76529 4.89199 8.94274 4.85564 9.12226 4.85504H9.71118V4.5487C9.71078 4.1933 9.56358 3.85256 9.30188 3.60125C9.04018 3.34995 8.68535 3.2086 8.31524 3.20821H2.98994C2.61984 3.2086 2.265 3.34995 2.0033 3.60125C1.7416 3.85256 1.5944 4.1933 1.594 4.5487V5.31932C1.59337 5.40774 1.55651 5.49237 1.49139 5.5549C1.42628 5.61743 1.33815 5.65282 1.24607 5.65343C1.15404 5.65275 1.06598 5.61732 1.00093 5.5548C0.935886 5.49228 0.899068 5.40769 0.898438 5.31932V4.5487C0.898597 4.01608 1.119 3.50532 1.5112 3.1287C1.9034 2.75209 2.43529 2.54044 2.98994 2.54028L8.31434 2.54028C8.86899 2.54044 9.40088 2.75209 9.79308 3.1287C10.1853 3.50532 10.4057 4.01608 10.4058 4.5487V5.19001C10.4052 5.27844 10.3683 5.36307 10.3032 5.4256C10.2381 5.48812 10.15 5.52352 10.0579 5.52412H9.12226C9.04464 5.52287 8.96758 5.53685 8.89579 5.5652C8.82399 5.59355 8.75899 5.63568 8.70474 5.68901C8.6398 5.74777 8.58975 5.82004 8.55841 5.90028C8.52708 5.98051 8.51531 6.06656 8.524 6.15184C8.54696 6.30157 8.6261 6.43807 8.74655 6.53567C8.86699 6.63327 9.02043 6.68524 9.17799 6.68179H10.0591C10.1512 6.6824 10.2393 6.71779 10.3044 6.78032C10.3696 6.84285 10.4064 6.92748 10.407 7.0159V7.54469C10.4081 7.80852 10.3548 8.06994 10.2503 8.31393C10.1458 8.55792 9.99207 8.77968 9.79803 8.96645C9.60398 9.15322 9.3734 9.30132 9.11956 9.40225C8.86571 9.50317 8.5936 9.55493 8.31886 9.55455Z" fill="#6E7191"/>
<path d="M1.25076 5.28346C1.15868 5.28286 1.07055 5.24746 1.00544 5.18493C0.940323 5.12241 0.903463 5.03778 0.902832 4.94935V2.91432C0.904518 2.58872 1.00858 2.2712 1.20139 2.00336C1.3942 1.73552 1.66677 1.52985 1.98338 1.41329L5.66572 0.0774332C5.85134 0.00901004 6.05162 -0.014587 6.24896 0.00871576C6.44629 0.0320185 6.63465 0.101508 6.79748 0.211077C6.96094 0.319629 7.09447 0.464712 7.18656 0.633829C7.27866 0.802947 7.32657 0.991028 7.32615 1.18187V2.87411C7.32752 2.9188 7.31954 2.96329 7.30268 3.00496C7.28582 3.04663 7.26042 3.08462 7.22799 3.11669C7.19556 3.14877 7.15676 3.17426 7.11388 3.19167C7.071 3.20908 7.02492 3.21805 6.97837 3.21805C6.93182 3.21805 6.88574 3.20908 6.84286 3.19167C6.79998 3.17426 6.76118 3.14877 6.72875 3.11669C6.69632 3.08462 6.67093 3.04663 6.65406 3.00496C6.6372 2.96329 6.62922 2.9188 6.63059 2.87411V1.18187C6.63105 1.09847 6.61014 1.01624 6.56969 0.942436C6.52924 0.868631 6.47049 0.80552 6.39864 0.758669C6.32822 0.710402 6.24635 0.679823 6.16048 0.669718C6.07462 0.659613 5.98748 0.670303 5.90701 0.700814L2.22467 2.03696C2.03988 2.10539 1.88086 2.2257 1.76834 2.38221C1.65582 2.53871 1.59502 2.72415 1.59387 2.91432V4.94964C1.5948 4.99336 1.58659 5.03681 1.56974 5.07743C1.55288 5.11805 1.52771 5.15501 1.49573 5.18613C1.46374 5.21725 1.42558 5.24189 1.38351 5.25861C1.34143 5.27533 1.2963 5.28378 1.25076 5.28346Z" fill="#6E7191"/>
<path d="M9.1815 7.35034C8.84908 7.35575 8.52652 7.24186 8.27692 7.03097C8.02733 6.82007 7.86865 6.52733 7.83194 6.21003C7.8138 6.02773 7.83855 5.84384 7.90435 5.67195C7.97015 5.50006 8.07533 5.34457 8.21211 5.21696C8.33089 5.10159 8.47253 5.01023 8.62868 4.94828C8.78482 4.88632 8.9523 4.85503 9.12125 4.85623H10.0852C10.3014 4.85874 10.5079 4.94282 10.6601 5.09031C10.8123 5.23781 10.8979 5.43687 10.8986 5.6445V6.56294C10.8984 6.76824 10.8148 6.96539 10.6656 7.11244C10.5164 7.25949 10.3134 7.34484 10.0997 7.35034H9.1815ZM10.0765 5.52416H9.12577C9.04815 5.52291 8.97108 5.53689 8.89929 5.56524C8.8275 5.59359 8.76249 5.63572 8.70825 5.68905C8.64331 5.74781 8.59325 5.82008 8.56192 5.90032C8.53059 5.98055 8.51882 6.0666 8.52751 6.15188C8.55039 6.30166 8.62951 6.43824 8.74997 6.53589C8.87042 6.63355 9.02389 6.68556 9.1815 6.68212H10.0903C10.1218 6.6802 10.1513 6.66677 10.1727 6.6446C10.1942 6.62243 10.206 6.59321 10.2057 6.56294V5.6445C10.2048 5.6122 10.1908 5.5815 10.1667 5.55901C10.1425 5.53651 10.1101 5.524 10.0765 5.52416Z" fill="#6E7191"/>
<path d="M4.4972 8.19149C4.40511 8.19089 4.31698 8.15549 4.25187 8.09296C4.18675 8.03044 4.1499 7.94581 4.14926 7.85738V7.28752C4.14903 7.23918 4.12892 7.19288 4.09333 7.1587C4.05773 7.12452 4.00952 7.10521 3.95918 7.10499H1.4827C1.39061 7.10438 1.30248 7.06898 1.23737 7.00646C1.17226 6.94393 1.1354 6.8593 1.13477 6.77088C1.1354 6.68245 1.17226 6.59782 1.23737 6.5353C1.30248 6.47277 1.39061 6.43737 1.4827 6.43677H3.95918C4.19393 6.43745 4.41886 6.52731 4.58485 6.6867C4.75084 6.8461 4.84441 7.0621 4.84513 7.28752V7.85738C4.8445 7.94581 4.80764 8.03044 4.74252 8.09296C4.67741 8.15549 4.58928 8.19089 4.4972 8.19149Z" fill="#6E7191"/>
<path d="M2.04811 7.64856C2.00241 7.64871 1.95713 7.64012 1.91493 7.62328C1.87272 7.60644 1.83444 7.5817 1.8023 7.55049L1.23657 7.00724C1.17196 6.94434 1.13574 6.85954 1.13574 6.77119C1.13574 6.68285 1.17196 6.59805 1.23657 6.53515L1.8023 5.9919C1.86753 5.92947 1.95589 5.89445 2.04799 5.89453C2.14008 5.89461 2.22838 5.92977 2.2935 5.9923C2.35862 6.05484 2.39524 6.13963 2.39531 6.22806C2.39539 6.3165 2.35893 6.40135 2.29392 6.46399L1.97401 6.77119L2.29392 7.0784C2.35853 7.1413 2.39475 7.2261 2.39475 7.31445C2.39475 7.4028 2.35853 7.48759 2.29392 7.55049C2.26179 7.5817 2.2235 7.60644 2.18129 7.62328C2.13909 7.64012 2.09381 7.64871 2.04811 7.64856Z" fill="#6E7191"/>
<path d="M4.4972 9.45663H2.02071C1.78596 9.45594 1.56103 9.36609 1.39504 9.20669C1.22905 9.04729 1.13548 8.8313 1.13477 8.60588V8.03601C1.1354 7.94759 1.17226 7.86296 1.23737 7.80043C1.30248 7.73791 1.39061 7.70251 1.4827 7.7019C1.57473 7.70259 1.66278 7.73801 1.72783 7.80053C1.79288 7.86305 1.8297 7.94764 1.83033 8.03601V8.60588C1.83056 8.65422 1.85067 8.70051 1.88626 8.7347C1.92186 8.76888 1.97007 8.78818 2.02041 8.78841H4.49689C4.58736 8.79097 4.67323 8.82727 4.73627 8.88962C4.79932 8.95198 4.83459 9.03547 4.83459 9.12237C4.83459 9.20928 4.79932 9.29277 4.73627 9.35512C4.67323 9.41748 4.58736 9.45378 4.49689 9.45634L4.4972 9.45663Z" fill="#6E7191"/>
<path d="M3.93119 10.0001C3.88549 10.0003 3.84021 9.99168 3.79801 9.97484C3.7558 9.95801 3.71751 9.93326 3.68538 9.90206C3.62077 9.83916 3.58455 9.75436 3.58455 9.66601C3.58455 9.57766 3.62077 9.49286 3.68538 9.42996L4.0062 9.12276L3.68538 8.81555C3.62037 8.75291 3.5839 8.66806 3.58398 8.57962C3.58406 8.49119 3.62068 8.4064 3.6858 8.34387C3.75092 8.28133 3.83922 8.24617 3.93131 8.24609C4.02341 8.24602 4.11177 8.28103 4.177 8.34346L4.74273 8.88671C4.80733 8.94961 4.84356 9.03441 4.84356 9.12276C4.84356 9.21111 4.80733 9.2959 4.74273 9.3588L4.177 9.90206C4.14513 9.9336 4.10689 9.95856 4.06462 9.97542C4.02236 9.99228 3.97695 10.0007 3.93119 10.0001Z" fill="#6E7191"/>
</svg>
