<svg width="18" height="18" viewBox="0 0 18 18" xmlns="http://www.w3.org/2000/svg">
    <path d="M0.882812 17.3994L2.10144 12.8683C1.11865 11.1032 0.806404 9.04342 1.22201 7.06702C1.63761 5.09062 2.75318 3.33013 4.36402 2.10861C5.97485 0.887088 7.97289 0.286467 9.9915 0.416962C12.0101 0.547457 13.9139 1.40032 15.3535 2.81904C16.793 4.23776 17.6719 6.12717 17.8287 8.14058C17.9855 10.154 17.4098 12.1563 16.2072 13.7801C15.0046 15.404 13.2558 16.5404 11.2816 16.9809C9.3075 17.4213 7.24048 17.1363 5.45986 16.178L0.882812 17.3994ZM5.68056 14.4824L5.96363 14.6501C7.25336 15.4133 8.75975 15.7291 10.248 15.5483C11.7363 15.3676 13.1229 14.7004 14.1918 13.6507C15.2606 12.6011 15.9516 11.2279 16.1571 9.74525C16.3626 8.26259 16.071 6.75371 15.3279 5.45375C14.5847 4.15378 13.4317 3.13575 12.0485 2.5583C10.6653 1.98085 9.12962 1.87643 7.68076 2.26129C6.2319 2.64616 4.95126 3.4987 4.03841 4.68606C3.12555 5.87342 2.63176 7.32889 2.63399 8.82568C2.63278 10.0668 2.97658 11.2838 3.62712 12.3414L3.80464 12.6336L3.12336 15.1626L5.68056 14.4824Z"/>
    <path fill-rule="evenodd" clip-rule="evenodd"
          d="M12.5489 9.98905C12.383 9.85543 12.1887 9.76138 11.9808 9.71407C11.773 9.66676 11.557 9.66743 11.3495 9.71603C11.0376 9.84536 10.8361 10.3339 10.6346 10.5782C10.5921 10.6368 10.5297 10.6778 10.459 10.6937C10.3884 10.7096 10.3143 10.6992 10.2508 10.6644C9.10908 10.218 8.15209 9.39931 7.53526 8.34136C7.48265 8.27534 7.45775 8.19152 7.46581 8.10754C7.47386 8.02356 7.51424 7.94597 7.57844 7.89112C7.80319 7.669 7.9682 7.39388 8.05822 7.09122C8.07821 6.75738 8.0016 6.42484 7.83752 6.13326C7.71068 5.72448 7.46928 5.36049 7.14185 5.0843C6.97297 5.00847 6.78572 4.98304 6.60269 5.01109C6.41965 5.03914 6.24866 5.11946 6.11033 5.24236C5.87019 5.4492 5.67958 5.70719 5.55254 5.99732C5.4255 6.28745 5.36527 6.60234 5.37628 6.91879C5.37702 7.0965 5.39958 7.27344 5.44345 7.44567C5.55485 7.85946 5.72618 8.2548 5.95201 8.61917C6.11494 8.89828 6.29271 9.16849 6.48456 9.42864C7.10805 10.2831 7.89179 11.0086 8.79227 11.5649C9.24415 11.8476 9.7271 12.0774 10.2316 12.2498C10.7557 12.487 11.3343 12.578 11.906 12.5133C12.2318 12.464 12.5404 12.3356 12.8048 12.1394C13.0691 11.9431 13.2811 11.685 13.4221 11.3877C13.5049 11.2081 13.5301 11.0073 13.4941 10.8129C13.4077 10.4153 12.8752 10.1806 12.5489 9.98905Z"/>
</svg>
