<svg width="19" height="19" viewBox="0 0 19 19" fill="none" xmlns="http://www.w3.org/2000/svg">
<path d="M9.4992 19C6.97986 19 4.5637 17.9991 2.78225 16.2175C1.00081 14.4359 0 12.0196 0 9.5C0 6.98044 1.00081 4.56408 2.78225 2.78249C4.5637 1.00089 6.97986 0 9.4992 0C9.67458 0.00124939 9.84242 0.0714788 9.96644 0.195504C10.0905 0.319529 10.1607 0.487385 10.1619 0.662778C10.1607 0.838172 10.0905 1.00603 9.96644 1.13005C9.84242 1.25408 9.67458 1.32431 9.4992 1.32556C7.88259 1.32556 6.30227 1.80498 4.95811 2.7032C3.61394 3.60142 2.56629 4.87809 1.94764 6.37178C1.32898 7.86546 1.16712 9.50907 1.4825 11.0948C1.79789 12.6804 2.57636 14.137 3.71948 15.2802C4.8626 16.4234 6.31903 17.202 7.90458 17.5174C9.49014 17.8328 11.1336 17.6709 12.6272 17.0522C14.1207 16.4335 15.3973 15.3858 16.2954 14.0415C17.1936 12.6972 17.673 11.1168 17.673 9.5C17.673 9.32422 17.7428 9.15564 17.8671 9.03135C17.9914 8.90705 18.1599 8.83722 18.3357 8.83722C18.5114 8.83722 18.68 8.90705 18.8043 9.03135C18.9286 9.15564 18.9984 9.32422 18.9984 9.5C18.9963 12.0189 17.9948 14.434 16.2138 16.2152C14.4328 17.9963 12.0179 18.9979 9.4992 19Z" fill="#6E7191"/>
<path fill-rule="evenodd" clip-rule="evenodd" d="M9.49868 14.1389C9.32331 14.1377 9.15546 14.0674 9.03145 13.9434C8.90744 13.8194 8.83721 13.6515 8.83596 13.4761V13.397C7.66798 13.0295 6.62545 11.99 6.62545 10.9895C6.62684 10.8142 6.69716 10.6469 6.82116 10.523C6.94516 10.3991 7.11289 10.3285 7.28818 10.3273C7.46379 10.3281 7.6318 10.398 7.75622 10.522C7.88065 10.6459 7.95144 10.8139 7.95297 10.9895C7.95297 11.1412 8.03755 11.3106 8.29469 11.5969C8.45515 11.7547 8.63799 11.8855 8.83596 11.9857V9.96831L7.95193 9.65983C7.54187 9.54828 7.18472 9.29591 6.94232 8.94683C6.69992 8.59775 6.58778 8.17447 6.62649 7.75124C6.62649 6.79018 7.63303 5.68269 8.84089 5.44642C8.85891 5.29923 8.92558 5.16141 9.03145 5.05553C9.15546 4.9315 9.32331 4.86127 9.49868 4.86002C9.67406 4.86127 9.84191 4.9315 9.96592 5.05553C10.0899 5.17955 10.1602 5.34741 10.1614 5.5228V5.54019C11.328 5.90859 12.3715 6.94726 12.3715 7.94748C12.3699 8.12274 12.2997 8.29014 12.1758 8.41402C12.0518 8.5379 11.884 8.60836 11.7087 8.60975C11.5335 8.60836 11.3667 8.5379 11.2428 8.41402C11.1188 8.29014 11.0475 8.12274 11.046 7.94748C11.046 7.62289 10.6527 7.21129 10.1614 6.95807V9.02661L11.0471 9.33673C11.3999 9.42954 11.715 9.62944 11.949 9.90941C12.1829 10.1894 12.3241 10.5352 12.3528 10.8989C12.366 10.995 12.3726 11.0919 12.3725 11.1889V11.2443C12.334 12.1921 11.3457 13.2603 10.1611 13.4911C10.1561 13.6611 10.0864 13.8229 9.96592 13.9434C9.84191 14.0674 9.67406 14.1377 9.49868 14.1389ZM10.1614 12.1266C10.2814 12.0833 10.3958 12.024 10.5013 11.9495C10.7604 11.7667 10.9509 11.5029 11.0439 11.1998C11.0365 10.7586 10.9016 10.6895 10.6111 10.5877L10.1614 10.4308V12.1266ZM8.83596 6.8104C8.71457 6.85434 8.59891 6.91494 8.49247 6.99112C8.23264 7.17705 8.04332 7.44519 7.95504 7.75228C7.95504 8.22948 8.08677 8.30023 8.38685 8.40522L8.83596 8.56248V6.8104Z" fill="#6E7191"/>
<path d="M13.6636 5.69371C13.7439 5.72713 13.8302 5.74419 13.9172 5.7439C14.0042 5.74426 14.0904 5.72728 14.1708 5.69396C14.2512 5.66064 14.3241 5.61165 14.3854 5.54984L17.6714 2.26553V4.19989C17.6726 4.37529 17.7428 4.54314 17.8668 4.66717C17.9909 4.79119 18.1587 4.86142 18.3341 4.86267C18.5095 4.86142 18.6773 4.79119 18.8013 4.66717C18.9253 4.54314 18.9956 4.37529 18.9968 4.19989V0.72808C18.9989 0.706558 19 0.684855 19 0.663041C19 0.487338 18.9302 0.31883 18.806 0.194589C18.6817 0.0703482 18.5133 0.000550227 18.3376 0.000550227C18.3223 0.000550227 18.3071 0.00107684 18.292 0.00211999H14.7994C14.624 0.00336938 14.4562 0.0735988 14.3321 0.197624C14.2081 0.321649 14.1379 0.489505 14.1367 0.664898C14.1379 0.840292 14.2081 1.00815 14.3321 1.13217C14.4562 1.2562 14.624 1.32643 14.7994 1.32768H16.7355L13.4491 4.6124C13.3259 4.73723 13.2569 4.90552 13.2569 5.08086C13.2569 5.2562 13.3259 5.42449 13.4491 5.54931C13.5103 5.61121 13.5832 5.6603 13.6636 5.69371Z" fill="#6E7191"/>
</svg>
