<svg width="25" height="17" viewBox="0 0 25 17" xmlns="http://www.w3.org/2000/svg">
    <path fill-rule="evenodd" clip-rule="evenodd"
          d="M22.3431 0.506137C23.3874 0.788182 24.2083 1.61114 24.4858 2.65432C24.9906 4.5475 24.9906 8.5 24.9906 8.5C24.9906 8.5 24.9906 12.4525 24.4858 14.3457C24.2045 15.3927 23.3836 16.2157 22.3431 16.4939C20.4547 17 12.8781 17 12.8781 17C12.8781 17 5.3054 17 3.41319 16.4939C2.36881 16.2118 1.54795 15.3889 1.27047 14.3457C0.765625 12.4525 0.765625 8.5 0.765625 8.5C0.765625 8.5 0.765625 4.5475 1.27047 2.65432C1.5518 1.60727 2.37266 0.784318 3.41319 0.506137C5.3054 0 12.8781 0 12.8781 0C12.8781 0 20.4547 0 22.3431 0.506137ZM10.7656 11.8635L16.7656 8.39941L10.7656 4.93531V11.8635Z"/>
</svg>
