<svg width="10" height="11" viewBox="0 0 10 11" fill="none" xmlns="http://www.w3.org/2000/svg">
<path d="M2.78212 6.62815C2.8478 6.69384 2.93693 6.73077 3.02983 6.73077H6.96612C7.05902 6.73077 7.14814 6.69384 7.21383 6.62815C7.27952 6.56246 7.31645 6.47341 7.31645 6.38051C7.31645 6.28761 7.27952 6.19849 7.21383 6.1328C7.14814 6.06711 7.05902 6.03025 6.96612 6.03025H3.02983C2.93693 6.03025 2.8478 6.06711 2.78212 6.1328C2.71643 6.19849 2.6795 6.28761 2.6795 6.38051C2.6795 6.47341 2.71643 6.56246 2.78212 6.62815Z" fill="white"/>
<path d="M3.02983 8.2501C2.93693 8.2501 2.8478 8.21317 2.78212 8.14748C2.71643 8.0818 2.6795 7.99274 2.6795 7.89984C2.6795 7.80695 2.71643 7.71782 2.78212 7.65213C2.8478 7.58644 2.93693 7.54959 3.02983 7.54959H5.41885C5.51175 7.54959 5.60088 7.58644 5.66657 7.65213C5.73225 7.71782 5.7689 7.80695 5.7689 7.89984C5.7689 7.99274 5.73225 8.0818 5.66657 8.14748C5.60088 8.21317 5.51175 8.2501 5.41885 8.2501H3.02983Z" fill="white"/>
<path fill-rule="evenodd" clip-rule="evenodd" d="M3.6046 10.2061H6.3954C8.92116 10.2061 10 9.12721 10 6.60145V3.81066C10 1.28606 8.92087 0.206055 6.3954 0.206055H3.6046C1.08001 0.206055 0 1.28606 0 3.81066V6.60145C0 9.12721 1.08001 10.2061 3.6046 10.2061ZM3.02653 0.925131C3.20693 0.91065 3.39944 0.903682 3.6046 0.903682H6.3954C6.60058 0.903682 6.7931 0.910657 6.97352 0.925152V3.68521C6.98794 3.79892 6.97331 3.91444 6.931 4.02097C6.88868 4.12749 6.82006 4.22156 6.73154 4.29439C6.61644 4.33562 6.49266 4.34653 6.37212 4.32608C6.25158 4.30563 6.13833 4.25451 6.04326 4.17763L5.43028 3.81014C5.29869 3.73693 5.15061 3.69852 5.00003 3.69852C4.84945 3.69852 4.70136 3.73693 4.56978 3.81014L3.9568 4.17763C3.86127 4.25364 3.74805 4.30421 3.62769 4.32463C3.50733 4.34504 3.38376 4.33464 3.26851 4.29439C3.17919 4.22223 3.10999 4.12826 3.06761 4.02154C3.02522 3.91483 3.01107 3.79899 3.02653 3.68521V0.925131ZM2.32599 1.03476V3.68521C2.30497 3.92329 2.34932 4.1626 2.45425 4.37734C2.55918 4.59209 2.72071 4.77413 2.92145 4.90386C3.08515 4.99401 3.26932 5.04046 3.4562 5.03872C3.75921 5.02968 4.05429 4.93979 4.31087 4.77835L4.9256 4.40969C4.97186 4.39108 5.02353 4.39108 5.06979 4.40969L5.6851 4.77835C5.8846 4.92146 6.11876 5.00856 6.36329 5.03063C6.60781 5.05271 6.85379 5.00893 7.07569 4.90386C7.27642 4.77413 7.43796 4.59209 7.54289 4.37734C7.64782 4.1626 7.69216 3.92329 7.67115 3.68521V1.03413C8.85217 1.33102 9.30237 2.16259 9.30237 3.81066V6.60145C9.30237 8.74571 8.53965 9.50843 6.3954 9.50843H3.6046C1.46035 9.50843 0.697627 8.74571 0.697627 6.60145V3.81066C0.697627 2.16376 1.14667 1.3322 2.32599 1.03476Z" fill="white"/>
</svg>
