<svg width="16" height="16" viewBox="0 0 16 16" fill="none" xmlns="http://www.w3.org/2000/svg">
<path fill-rule="evenodd" clip-rule="evenodd" d="M3.55573 14.6519C4.87139 15.531 6.41817 16.0001 8.00046 16C10.1215 15.9982 12.1552 15.1548 13.655 13.655C15.1548 12.1552 15.9982 10.1215 16 8.00046C16.0001 6.41817 15.531 4.87139 14.6519 3.55573C13.7729 2.24006 12.5235 1.21461 11.0617 0.609055C9.59985 0.00349717 7.99128 -0.154968 6.43939 0.153699C4.8875 0.462366 3.462 1.2243 2.34315 2.34315C1.2243 3.462 0.462366 4.8875 0.153699 6.43939C-0.154968 7.99128 0.00349717 9.59985 0.609055 11.0617C1.21461 12.5235 2.24006 13.7729 3.55573 14.6519ZM4.17621 2.27651C5.3082 1.52015 6.63904 1.11645 8.00046 1.11645C9.62071 1.11839 11.1815 1.69127 12.4144 2.72274L2.72057 12.4166C1.9823 11.534 1.47486 10.4776 1.24914 9.34275C0.983578 8.00748 1.11992 6.62345 1.64093 5.36568C2.16195 4.1079 3.04423 3.03286 4.17621 2.27651ZM3.50347 13.2116L13.2094 3.50561C14.2842 4.75071 14.882 6.34456 14.884 8.00046C14.8839 9.36188 14.4801 10.6927 13.7237 11.8246C12.9673 12.9566 11.8922 13.8388 10.6344 14.3597C9.37655 14.8806 7.99251 15.0169 6.65727 14.7512C5.48785 14.5186 4.40186 13.9868 3.50347 13.2116Z" fill="white"/>
</svg>
