<svg width="18" height="17" viewBox="0 0 18 17" fill="none" xmlns="http://www.w3.org/2000/svg">
<path d="M9.10682 11.9137C9.12383 11.9354 9.14556 11.953 9.17036 11.9651C9.19517 11.9772 9.2224 11.9835 9.25 11.9835C9.2776 11.9835 9.30483 11.9772 9.32964 11.9651C9.35444 11.953 9.37617 11.9354 9.39318 11.9137L11.9386 8.69325C12.0318 8.57507 11.9477 8.40007 11.7955 8.40007H10.1114V0.709162C10.1114 0.609162 10.0295 0.527344 9.92955 0.527344H8.56591C8.46591 0.527344 8.38409 0.609162 8.38409 0.709162V8.3978H6.70455C6.55227 8.3978 6.46818 8.5728 6.56136 8.69098L9.10682 11.9137ZM17.5682 11.1183H16.2045C16.1045 11.1183 16.0227 11.2001 16.0227 11.3001V14.8001H2.47727V11.3001C2.47727 11.2001 2.39545 11.1183 2.29545 11.1183H0.931818C0.831818 11.1183 0.75 11.2001 0.75 11.3001V15.8001C0.75 16.2023 1.075 16.5273 1.47727 16.5273H17.0227C17.425 16.5273 17.75 16.2023 17.75 15.8001V11.3001C17.75 11.2001 17.6682 11.1183 17.5682 11.1183Z" fill="#111825"/>
</svg>
