<svg width="16" height="16" viewBox="0 0 16 16" fill="none" xmlns="http://www.w3.org/2000/svg">
<path fill-rule="evenodd" clip-rule="evenodd" d="M0.674275 15.3316C1.13221 15.7673 1.742 16.0071 2.37416 15.9998C2.43022 15.9998 2.50034 15.9972 2.56709 15.9886H2.60515C2.65374 15.986 2.70715 15.9833 2.76054 15.9833L5.51685 15.5942C6.18855 15.4672 6.81103 15.1536 7.31268 14.6893L14.5372 7.46775C14.9372 7.07481 15.281 6.62836 15.5587 6.14122C15.7932 5.72709 15.9386 5.26858 15.9857 4.79501C16.039 4.21909 15.9424 3.63914 15.7057 3.1114C15.4226 2.49594 15.0265 1.93917 14.5377 1.47001C14.1419 1.06477 13.6889 0.719395 13.1934 0.444653C12.6841 0.160738 12.1121 0.00793028 11.529 0C10.9577 0.0334124 10.3989 0.180597 9.88544 0.433055C9.37194 0.685513 8.91432 1.0381 8.53909 1.47001L1.31512 8.69224C1.08006 8.93838 0.885388 9.22013 0.738412 9.52708C0.584865 9.82941 0.478544 10.1535 0.422943 10.4879L0.0339518 13.244C-0.029436 13.6274 -0.00387534 14.0202 0.109039 14.3921C0.21691 14.747 0.411304 15.0698 0.674275 15.3316ZM10.1957 1.66315C10.5652 1.48146 10.9677 1.37557 11.3788 1.35155V1.35416C11.7961 1.3589 12.2054 1.4668 12.5708 1.6681C12.9275 1.86575 13.2536 2.11417 13.5386 2.40572C13.8902 2.74346 14.1754 3.14422 14.3792 3.58707C14.5498 3.96682 14.619 4.38433 14.5799 4.79879C14.5467 5.13962 14.4422 5.46965 14.2733 5.76759C14.0737 6.11828 13.8264 6.43968 13.5386 6.72258L12.2765 7.95768C11.2762 7.59231 10.3657 7.0072 9.61109 6.24179C8.89454 5.51502 8.33821 4.64547 7.97557 3.69101L9.22687 2.4095C9.49687 2.09863 9.82615 1.84484 10.1957 1.66315ZM7.13114 4.55583L2.12543 9.68242C1.95643 9.85955 1.81623 10.0622 1.71037 10.2829C1.64072 10.5004 1.6046 10.7272 1.60347 10.9555C1.56717 11.3729 1.50611 12.0722 1.34432 13.2247C1.29856 13.5006 1.31662 13.7833 1.39751 14.051C1.46627 14.2759 1.46664 14.2762 1.58671 14.3809L1.58731 14.3814L1.64362 14.4316C1.76747 14.5714 1.93627 14.664 2.12074 14.6936C2.13729 14.6936 2.53665 14.6595 3.07914 14.6035C3.58746 14.5501 4.32857 14.4678 4.97091 14.3664C5.43517 14.3255 5.87728 14.1501 6.24321 13.8615L11.3708 8.84393C10.4026 8.47705 9.52102 7.90323 8.78687 7.15891C8.05698 6.41892 7.49335 5.5309 7.13114 4.55583Z" fill="white"/>
</svg>
