<svg width="362" height="231" viewBox="0 0 362 231" fill="none" xmlns="http://www.w3.org/2000/svg">
<g clip-path="url(#clip0_554_31)">
<path d="M0 0L362 0L362 231L0 231L0 0Z" fill="white"/>
<rect width="336.258" height="1166.47" transform="matrix(-0.482415 -0.875943 -0.875943 0.482415 1049.1 35.6077)" fill="url(#paint0_linear_554_31)"/>
<rect x="-537.777" y="526.153" width="309.325" height="1121.86" transform="rotate(-118.843 -537.777 526.153)" fill="url(#paint1_linear_554_31)"/>
<path d="M181 131C181 84.0567 162.405 39.036 129.304 5.84211C96.2042 -27.3518 51.3107 -46 4.50002 -46C-42.3107 -46 -87.2042 -27.3518 -120.304 5.84209C-153.405 39.036 -172 84.0567 -172 131L-108.429 131C-108.429 100.964 -96.5313 72.1591 -75.3529 50.9208C-54.1746 29.6825 -25.4507 17.7509 4.50002 17.751C34.4507 17.751 63.1746 29.6825 84.353 50.9208C105.531 72.1591 117.429 100.964 117.429 131L181 131Z" fill="#EEEEEE" fill-opacity="0.02"/>
<path d="M534 131C534 177.943 515.405 222.964 482.304 256.158C449.204 289.352 404.311 308 357.5 308C310.689 308 265.796 289.352 232.696 256.158C199.595 222.964 181 177.943 181 131L244.571 131C244.571 161.036 256.469 189.841 277.647 211.079C298.825 232.317 327.549 244.249 357.5 244.249C387.451 244.249 416.175 232.317 437.353 211.079C458.531 189.841 470.429 161.036 470.429 131L534 131Z" fill="#EEEEEE" fill-opacity="0.02"/>
</g>
<defs>
<linearGradient id="paint0_linear_554_31" x1="168.129" y1="0" x2="168.129" y2="1166.47" gradientUnits="userSpaceOnUse">
<stop stop-color="#434959"/>
<stop offset="1" stop-color="#111727"/>
</linearGradient>
<linearGradient id="paint1_linear_554_31" x1="-383.115" y1="526.153" x2="-383.115" y2="1648.01" gradientUnits="userSpaceOnUse">
<stop stop-color="#434959"/>
<stop offset="1" stop-color="#111727"/>
</linearGradient>
<clipPath id="clip0_554_31">
<path d="M0 0L362 0L362 231L0 231L0 0Z" fill="white"/>
</clipPath>
</defs>
</svg>
