<svg width="412" height="80" viewBox="0 0 412 80" fill="none" xmlns="http://www.w3.org/2000/svg">
<g filter="url(#filter0_d_1137_118)">
<rect x="3" y="2" width="406" height="74" rx="2" fill="#FAFAFA"/>
<rect x="14" y="26" width="26" height="26" rx="2" fill="white"/>
<rect x="14" y="26" width="26" height="26" rx="2" stroke="#C1C1C1" stroke-width="2"/>
<path d="M55.8438 34.0469V44H54.1279V34.0469H55.8438ZM59.3779 33.5V34.4639C59.3779 34.751 59.3255 35.0495 59.2207 35.3594C59.1204 35.6647 58.9792 35.9587 58.7969 36.2412C58.6146 36.5192 58.4049 36.7607 58.168 36.9658L57.3408 36.4463C57.5277 36.1637 57.6781 35.8652 57.792 35.5508C57.9105 35.2318 57.9697 34.874 57.9697 34.4775V33.5H59.3779ZM62.3447 38.1074V44H60.6973V36.6035H62.249L62.3447 38.1074ZM62.0781 40.0283L61.5176 40.0215C61.5176 39.5111 61.5814 39.0394 61.709 38.6064C61.8366 38.1735 62.0234 37.7975 62.2695 37.4785C62.5156 37.1549 62.821 36.9066 63.1855 36.7334C63.5547 36.5557 63.9808 36.4668 64.4639 36.4668C64.8011 36.4668 65.1087 36.5169 65.3867 36.6172C65.6693 36.7129 65.9131 36.8656 66.1182 37.0752C66.3278 37.2848 66.4873 37.5537 66.5967 37.8818C66.7106 38.21 66.7676 38.6064 66.7676 39.0713V44H65.1201V39.2148C65.1201 38.8548 65.0654 38.5723 64.9561 38.3672C64.8512 38.1621 64.6986 38.0163 64.498 37.9297C64.3021 37.8385 64.0674 37.793 63.7939 37.793C63.484 37.793 63.2197 37.8522 63.001 37.9707C62.7868 38.0892 62.6113 38.251 62.4746 38.4561C62.3379 38.6611 62.2376 38.8981 62.1738 39.167C62.11 39.4359 62.0781 39.723 62.0781 40.0283ZM66.665 39.5908L65.8926 39.7617C65.8926 39.3151 65.9541 38.8936 66.0771 38.4971C66.2048 38.096 66.3893 37.7451 66.6309 37.4443C66.877 37.139 67.18 36.8997 67.54 36.7266C67.9001 36.5534 68.3125 36.4668 68.7773 36.4668C69.1556 36.4668 69.4928 36.5192 69.7891 36.624C70.0898 36.7243 70.3451 36.8838 70.5547 37.1025C70.7643 37.3213 70.9238 37.6061 71.0332 37.957C71.1426 38.3034 71.1973 38.7227 71.1973 39.2148V44H69.543V39.208C69.543 38.8343 69.4883 38.5449 69.3789 38.3398C69.2741 38.1348 69.1237 37.9935 68.9277 37.916C68.7318 37.834 68.4971 37.793 68.2236 37.793C67.9684 37.793 67.7428 37.8408 67.5469 37.9365C67.3555 38.0277 67.1937 38.1576 67.0615 38.3262C66.9294 38.4902 66.8291 38.6794 66.7607 38.8936C66.6969 39.1077 66.665 39.3402 66.665 39.5908ZM78.0127 38.1826V44H76.3652V36.6035H77.917L78.0127 38.1826ZM77.7188 40.0283L77.1855 40.0215C77.1901 39.4974 77.263 39.0166 77.4043 38.5791C77.5501 38.1416 77.7507 37.7656 78.0059 37.4512C78.2656 37.1367 78.5755 36.8952 78.9355 36.7266C79.2956 36.5534 79.6966 36.4668 80.1387 36.4668C80.4941 36.4668 80.8154 36.5169 81.1025 36.6172C81.3942 36.7129 81.6426 36.8701 81.8477 37.0889C82.0573 37.3076 82.2168 37.5924 82.3262 37.9434C82.4355 38.2897 82.4902 38.7158 82.4902 39.2217V44H80.8359V39.2148C80.8359 38.8594 80.7835 38.5791 80.6787 38.374C80.5785 38.1644 80.4303 38.0163 80.2344 37.9297C80.043 37.8385 79.8037 37.793 79.5166 37.793C79.234 37.793 78.9811 37.8522 78.7578 37.9707C78.5345 38.0892 78.3454 38.251 78.1904 38.4561C78.04 38.6611 77.9238 38.8981 77.8418 39.167C77.7598 39.4359 77.7188 39.723 77.7188 40.0283ZM83.8574 40.3838V40.2266C83.8574 39.6934 83.9349 39.1989 84.0898 38.7432C84.2448 38.2829 84.4681 37.8841 84.7598 37.5469C85.056 37.2051 85.416 36.9408 85.8398 36.7539C86.2682 36.5625 86.7513 36.4668 87.2891 36.4668C87.8314 36.4668 88.3145 36.5625 88.7383 36.7539C89.1667 36.9408 89.529 37.2051 89.8252 37.5469C90.1214 37.8841 90.347 38.2829 90.502 38.7432C90.6569 39.1989 90.7344 39.6934 90.7344 40.2266V40.3838C90.7344 40.917 90.6569 41.4115 90.502 41.8672C90.347 42.3229 90.1214 42.7217 89.8252 43.0635C89.529 43.4007 89.1689 43.665 88.7451 43.8564C88.3213 44.0433 87.8405 44.1367 87.3027 44.1367C86.7604 44.1367 86.2751 44.0433 85.8467 43.8564C85.4229 43.665 85.0628 43.4007 84.7666 43.0635C84.4704 42.7217 84.2448 42.3229 84.0898 41.8672C83.9349 41.4115 83.8574 40.917 83.8574 40.3838ZM85.5049 40.2266V40.3838C85.5049 40.7165 85.5391 41.0309 85.6074 41.3271C85.6758 41.6234 85.7829 41.8831 85.9287 42.1064C86.0745 42.3298 86.2614 42.5052 86.4893 42.6328C86.7171 42.7604 86.9883 42.8242 87.3027 42.8242C87.6081 42.8242 87.8724 42.7604 88.0957 42.6328C88.3236 42.5052 88.5104 42.3298 88.6562 42.1064C88.8021 41.8831 88.9092 41.6234 88.9775 41.3271C89.0505 41.0309 89.0869 40.7165 89.0869 40.3838V40.2266C89.0869 39.8984 89.0505 39.5885 88.9775 39.2969C88.9092 39.0007 88.7998 38.7386 88.6494 38.5107C88.5036 38.2829 88.3167 38.1051 88.0889 37.9775C87.8656 37.8454 87.599 37.7793 87.2891 37.7793C86.9792 37.7793 86.7103 37.8454 86.4824 37.9775C86.2591 38.1051 86.0745 38.2829 85.9287 38.5107C85.7829 38.7386 85.6758 39.0007 85.6074 39.2969C85.5391 39.5885 85.5049 39.8984 85.5049 40.2266ZM95.5059 36.6035V37.8066H91.3359V36.6035H95.5059ZM92.5391 34.792H94.1865V41.9561C94.1865 42.1839 94.2184 42.3594 94.2822 42.4824C94.3506 42.6009 94.444 42.6807 94.5625 42.7217C94.681 42.7627 94.82 42.7832 94.9795 42.7832C95.0934 42.7832 95.2028 42.7764 95.3076 42.7627C95.4124 42.749 95.4967 42.7354 95.5605 42.7217L95.5674 43.9795C95.4307 44.0205 95.2712 44.057 95.0889 44.0889C94.9111 44.1208 94.7061 44.1367 94.4736 44.1367C94.0954 44.1367 93.7604 44.0706 93.4688 43.9385C93.1771 43.8018 92.9492 43.5807 92.7852 43.2754C92.6211 42.9701 92.5391 42.5645 92.5391 42.0586V34.792ZM104.434 42.5166V38.9893C104.434 38.7249 104.386 38.4971 104.29 38.3057C104.194 38.1143 104.049 37.9661 103.853 37.8613C103.661 37.7565 103.42 37.7041 103.128 37.7041C102.859 37.7041 102.627 37.7497 102.431 37.8408C102.235 37.932 102.082 38.055 101.973 38.21C101.863 38.3649 101.809 38.5404 101.809 38.7363H100.168C100.168 38.4447 100.239 38.1621 100.38 37.8887C100.521 37.6152 100.726 37.3714 100.995 37.1572C101.264 36.943 101.585 36.7744 101.959 36.6514C102.333 36.5283 102.752 36.4668 103.217 36.4668C103.773 36.4668 104.265 36.5602 104.693 36.7471C105.126 36.9339 105.466 37.2165 105.712 37.5947C105.963 37.9684 106.088 38.4378 106.088 39.0029V42.291C106.088 42.6283 106.111 42.9313 106.156 43.2002C106.206 43.4645 106.277 43.6947 106.368 43.8906V44H104.68C104.602 43.8223 104.541 43.5967 104.495 43.3232C104.454 43.0452 104.434 42.7764 104.434 42.5166ZM104.673 39.502L104.687 40.5205H103.504C103.199 40.5205 102.93 40.5501 102.697 40.6094C102.465 40.6641 102.271 40.7461 102.116 40.8555C101.961 40.9648 101.845 41.097 101.768 41.252C101.69 41.4069 101.651 41.5824 101.651 41.7783C101.651 41.9743 101.697 42.1543 101.788 42.3184C101.879 42.4779 102.011 42.6032 102.185 42.6943C102.362 42.7855 102.576 42.8311 102.827 42.8311C103.164 42.8311 103.458 42.7627 103.709 42.626C103.964 42.4847 104.165 42.3138 104.311 42.1133C104.456 41.9082 104.534 41.7145 104.543 41.5322L105.076 42.2637C105.021 42.4505 104.928 42.651 104.796 42.8652C104.664 43.0794 104.491 43.2845 104.276 43.4805C104.067 43.6719 103.814 43.8291 103.518 43.9521C103.226 44.0752 102.889 44.1367 102.506 44.1367C102.023 44.1367 101.592 44.041 101.214 43.8496C100.836 43.6536 100.539 43.3916 100.325 43.0635C100.111 42.7308 100.004 42.3548 100.004 41.9355C100.004 41.5436 100.077 41.1973 100.223 40.8965C100.373 40.5911 100.592 40.3359 100.879 40.1309C101.171 39.9258 101.526 39.7708 101.945 39.666C102.365 39.5566 102.843 39.502 103.381 39.502H104.673ZM112.951 38.0117V44H111.304V36.6035H112.876L112.951 38.0117ZM115.214 36.5557L115.2 38.0869C115.1 38.0687 114.991 38.055 114.872 38.0459C114.758 38.0368 114.644 38.0322 114.53 38.0322C114.248 38.0322 113.999 38.0732 113.785 38.1553C113.571 38.2327 113.391 38.3467 113.245 38.4971C113.104 38.6429 112.994 38.8206 112.917 39.0303C112.84 39.2399 112.794 39.4746 112.78 39.7344L112.404 39.7617C112.404 39.2969 112.45 38.8662 112.541 38.4697C112.632 38.0732 112.769 37.7246 112.951 37.4238C113.138 37.123 113.37 36.8883 113.648 36.7197C113.931 36.5511 114.257 36.4668 114.626 36.4668C114.726 36.4668 114.833 36.4759 114.947 36.4941C115.066 36.5124 115.155 36.5329 115.214 36.5557ZM115.754 40.3838V40.2266C115.754 39.6934 115.831 39.1989 115.986 38.7432C116.141 38.2829 116.365 37.8841 116.656 37.5469C116.952 37.2051 117.312 36.9408 117.736 36.7539C118.165 36.5625 118.648 36.4668 119.186 36.4668C119.728 36.4668 120.211 36.5625 120.635 36.7539C121.063 36.9408 121.425 37.2051 121.722 37.5469C122.018 37.8841 122.243 38.2829 122.398 38.7432C122.553 39.1989 122.631 39.6934 122.631 40.2266V40.3838C122.631 40.917 122.553 41.4115 122.398 41.8672C122.243 42.3229 122.018 42.7217 121.722 43.0635C121.425 43.4007 121.065 43.665 120.642 43.8564C120.218 44.0433 119.737 44.1367 119.199 44.1367C118.657 44.1367 118.172 44.0433 117.743 43.8564C117.319 43.665 116.959 43.4007 116.663 43.0635C116.367 42.7217 116.141 42.3229 115.986 41.8672C115.831 41.4115 115.754 40.917 115.754 40.3838ZM117.401 40.2266V40.3838C117.401 40.7165 117.436 41.0309 117.504 41.3271C117.572 41.6234 117.679 41.8831 117.825 42.1064C117.971 42.3298 118.158 42.5052 118.386 42.6328C118.614 42.7604 118.885 42.8242 119.199 42.8242C119.505 42.8242 119.769 42.7604 119.992 42.6328C120.22 42.5052 120.407 42.3298 120.553 42.1064C120.699 41.8831 120.806 41.6234 120.874 41.3271C120.947 41.0309 120.983 40.7165 120.983 40.3838V40.2266C120.983 39.8984 120.947 39.5885 120.874 39.2969C120.806 39.0007 120.696 38.7386 120.546 38.5107C120.4 38.2829 120.213 38.1051 119.985 37.9775C119.762 37.8454 119.495 37.7793 119.186 37.7793C118.876 37.7793 118.607 37.8454 118.379 37.9775C118.156 38.1051 117.971 38.2829 117.825 38.5107C117.679 38.7386 117.572 39.0007 117.504 39.2969C117.436 39.5885 117.401 39.8984 117.401 40.2266ZM124.019 33.5H125.666V42.4209L125.509 44H124.019V33.5ZM130.492 40.2334V40.377C130.492 40.9238 130.431 41.4274 130.308 41.8877C130.189 42.3434 130.007 42.7399 129.761 43.0771C129.519 43.4144 129.218 43.6764 128.858 43.8633C128.503 44.0456 128.09 44.1367 127.621 44.1367C127.161 44.1367 126.76 44.0501 126.418 43.877C126.076 43.7038 125.789 43.4577 125.557 43.1387C125.329 42.8197 125.144 42.4391 125.003 41.9971C124.862 41.555 124.761 41.0674 124.702 40.5342V40.0762C124.761 39.5384 124.862 39.0508 125.003 38.6133C125.144 38.1712 125.329 37.7907 125.557 37.4717C125.789 37.1481 126.074 36.8997 126.411 36.7266C126.753 36.5534 127.152 36.4668 127.607 36.4668C128.081 36.4668 128.498 36.5579 128.858 36.7402C129.223 36.9225 129.526 37.1823 129.768 37.5195C130.009 37.8522 130.189 38.2487 130.308 38.709C130.431 39.1693 130.492 39.6774 130.492 40.2334ZM128.845 40.377V40.2334C128.845 39.9007 128.817 39.5885 128.763 39.2969C128.708 39.0007 128.617 38.7409 128.489 38.5176C128.366 38.2943 128.198 38.1188 127.983 37.9912C127.774 37.859 127.512 37.793 127.197 37.793C126.906 37.793 126.655 37.8431 126.445 37.9434C126.236 38.0436 126.06 38.1803 125.919 38.3535C125.778 38.5267 125.666 38.7272 125.584 38.9551C125.507 39.1829 125.454 39.429 125.427 39.6934V40.9307C125.468 41.2725 125.554 41.5869 125.687 41.874C125.823 42.1566 126.015 42.3844 126.261 42.5576C126.507 42.7262 126.824 42.8105 127.211 42.8105C127.516 42.8105 127.774 42.749 127.983 42.626C128.193 42.5029 128.359 42.332 128.482 42.1133C128.61 41.89 128.701 41.6302 128.756 41.334C128.815 41.0378 128.845 40.7188 128.845 40.377ZM131.572 40.3838V40.2266C131.572 39.6934 131.65 39.1989 131.805 38.7432C131.96 38.2829 132.183 37.8841 132.475 37.5469C132.771 37.2051 133.131 36.9408 133.555 36.7539C133.983 36.5625 134.466 36.4668 135.004 36.4668C135.546 36.4668 136.029 36.5625 136.453 36.7539C136.882 36.9408 137.244 37.2051 137.54 37.5469C137.836 37.8841 138.062 38.2829 138.217 38.7432C138.372 39.1989 138.449 39.6934 138.449 40.2266V40.3838C138.449 40.917 138.372 41.4115 138.217 41.8672C138.062 42.3229 137.836 42.7217 137.54 43.0635C137.244 43.4007 136.884 43.665 136.46 43.8564C136.036 44.0433 135.555 44.1367 135.018 44.1367C134.475 44.1367 133.99 44.0433 133.562 43.8564C133.138 43.665 132.778 43.4007 132.481 43.0635C132.185 42.7217 131.96 42.3229 131.805 41.8672C131.65 41.4115 131.572 40.917 131.572 40.3838ZM133.22 40.2266V40.3838C133.22 40.7165 133.254 41.0309 133.322 41.3271C133.391 41.6234 133.498 41.8831 133.644 42.1064C133.789 42.3298 133.976 42.5052 134.204 42.6328C134.432 42.7604 134.703 42.8242 135.018 42.8242C135.323 42.8242 135.587 42.7604 135.811 42.6328C136.038 42.5052 136.225 42.3298 136.371 42.1064C136.517 41.8831 136.624 41.6234 136.692 41.3271C136.765 41.0309 136.802 40.7165 136.802 40.3838V40.2266C136.802 39.8984 136.765 39.5885 136.692 39.2969C136.624 39.0007 136.515 38.7386 136.364 38.5107C136.218 38.2829 136.032 38.1051 135.804 37.9775C135.58 37.8454 135.314 37.7793 135.004 37.7793C134.694 37.7793 134.425 37.8454 134.197 37.9775C133.974 38.1051 133.789 38.2829 133.644 38.5107C133.498 38.7386 133.391 39.0007 133.322 39.2969C133.254 39.5885 133.22 39.8984 133.22 40.2266ZM143.221 36.6035V37.8066H139.051V36.6035H143.221ZM140.254 34.792H141.901V41.9561C141.901 42.1839 141.933 42.3594 141.997 42.4824C142.065 42.6009 142.159 42.6807 142.277 42.7217C142.396 42.7627 142.535 42.7832 142.694 42.7832C142.808 42.7832 142.918 42.7764 143.022 42.7627C143.127 42.749 143.212 42.7354 143.275 42.7217L143.282 43.9795C143.146 44.0205 142.986 44.057 142.804 44.0889C142.626 44.1208 142.421 44.1367 142.188 44.1367C141.81 44.1367 141.475 44.0706 141.184 43.9385C140.892 43.8018 140.664 43.5807 140.5 43.2754C140.336 42.9701 140.254 42.5645 140.254 42.0586V34.792Z" fill="black"/>
<g clip-path="url(#clip0_1137_118)">
<path d="M386.306 26.2118C386.305 25.987 386.3 25.7633 386.29 25.5407V12.8508L382.782 16.359C379.91 12.8444 375.543 10.5996 370.65 10.5996C365.558 10.5996 361.035 13.0299 358.176 16.7936L363.926 22.6045C364.49 21.5623 365.29 20.6671 366.256 19.991C367.26 19.2076 368.682 18.567 370.65 18.567C370.887 18.567 371.071 18.5948 371.206 18.6471C373.644 18.8395 375.757 20.185 377.001 22.1379L372.931 26.2083C378.087 26.1881 383.911 26.1762 386.306 26.2109" fill="#1C3AA9"/>
<path d="M370.56 10.6006C370.335 10.6013 370.111 10.6065 369.888 10.6166H357.198L360.707 14.1249C357.192 16.9962 354.947 21.3642 354.947 26.2567C354.947 31.3482 357.378 35.8715 361.141 38.7309L366.952 32.9804C365.91 32.4169 365.015 31.6163 364.339 30.651C363.555 29.6471 362.915 28.2246 362.915 26.2569C362.915 26.0192 362.942 25.8357 362.995 25.7009C363.187 23.2629 364.533 21.1496 366.486 19.9052L370.556 23.9757C370.536 18.82 370.524 12.9956 370.559 10.601" fill="#4285F4"/>
<path d="M354.947 26.2559C354.948 26.4807 354.953 26.7044 354.963 26.927V39.6169L358.472 36.1087C361.343 39.6233 365.711 41.8681 370.603 41.8681C375.695 41.8681 380.218 39.4378 383.078 35.6741L377.327 29.8632C376.764 30.9054 375.963 31.8006 374.998 32.4767C373.994 33.2602 372.571 33.9007 370.604 33.9007C370.366 33.9007 370.182 33.8729 370.048 33.8206C367.61 33.6282 365.496 32.2827 364.252 30.3298L368.322 26.2594C363.167 26.2796 357.342 26.2915 354.948 26.2568" fill="#ABABAB"/>
<path d="M357.589 47.9317C357.208 47.9317 356.866 48.0041 356.563 48.1487C356.261 48.2901 356.004 48.4923 355.794 48.7553C355.587 49.0183 355.427 49.3372 355.316 49.7119C355.207 50.0834 355.153 50.4993 355.153 50.9595V52.2861C355.153 52.7496 355.207 53.1671 355.316 53.5386C355.427 53.9101 355.585 54.2274 355.789 54.4904C355.993 54.7534 356.239 54.9555 356.529 55.0969C356.818 55.2383 357.144 55.309 357.505 55.309C357.877 55.309 358.202 55.2547 358.482 55.1462C358.764 55.0378 359.001 54.8816 359.192 54.6778C359.382 54.4707 359.529 54.2208 359.631 53.9282C359.736 53.6356 359.798 53.3036 359.818 52.9321H358.906C358.883 53.2181 358.843 53.463 358.787 53.6668C358.731 53.8674 358.649 54.0334 358.541 54.1649C358.436 54.2931 358.297 54.3884 358.127 54.4509C357.959 54.5101 357.752 54.5397 357.505 54.5397C357.242 54.5397 357.019 54.4821 356.835 54.3671C356.65 54.2487 356.501 54.0876 356.386 53.8838C356.274 53.68 356.192 53.4416 356.139 53.1688C356.09 52.8959 356.065 52.6017 356.065 52.286V50.9497C356.065 50.6111 356.095 50.3036 356.154 50.0275C356.216 49.7513 356.31 49.5163 356.435 49.3223C356.56 49.1283 356.718 48.9787 356.909 48.8736C357.099 48.7651 357.326 48.7108 357.589 48.7108C357.809 48.7108 357.998 48.7437 358.156 48.8094C358.314 48.8719 358.445 48.9705 358.551 49.1053C358.656 49.2368 358.736 49.4045 358.792 49.6083C358.848 49.8121 358.886 50.0554 358.906 50.3381H359.818C359.802 49.9502 359.741 49.6067 359.636 49.3075C359.53 49.0083 359.384 48.7568 359.197 48.553C359.009 48.3492 358.781 48.1946 358.511 48.0894C358.245 47.9842 357.938 47.9316 357.589 47.9316L357.589 47.9317ZM379.859 47.9317C379.478 47.9317 379.136 48.0041 378.833 48.1487C378.531 48.2901 378.275 48.4923 378.064 48.7553C377.857 49.0183 377.698 49.3372 377.586 49.7119C377.477 50.0834 377.423 50.4993 377.423 50.9595V52.2861C377.423 52.7496 377.477 53.1671 377.586 53.5386C377.698 53.9101 377.855 54.2274 378.059 54.4904C378.263 54.7534 378.51 54.9555 378.799 55.0969C379.088 55.2383 379.414 55.309 379.775 55.309C380.147 55.309 380.472 55.2547 380.752 55.1462C381.034 55.0378 381.271 54.8816 381.462 54.6778C381.652 54.4707 381.799 54.2208 381.901 53.9282C382.006 53.6356 382.068 53.3036 382.088 52.9321H381.176C381.153 53.2181 381.113 53.463 381.057 53.6668C381.002 53.8674 380.919 54.0334 380.811 54.1649C380.706 54.2931 380.568 54.3884 380.397 54.4509C380.229 54.5101 380.022 54.5397 379.775 54.5397C379.512 54.5397 379.289 54.4821 379.105 54.3671C378.921 54.2487 378.771 54.0876 378.656 53.8838C378.544 53.68 378.462 53.4416 378.409 53.1688C378.36 52.8959 378.335 52.6017 378.335 52.286V50.9497C378.335 50.6111 378.365 50.3036 378.424 50.0275C378.487 49.7513 378.58 49.5163 378.705 49.3223C378.83 49.1283 378.988 48.9787 379.179 48.8736C379.369 48.7651 379.596 48.7108 379.859 48.7108C380.079 48.7108 380.268 48.7437 380.426 48.8094C380.584 48.8719 380.716 48.9705 380.821 49.1053C380.926 49.2368 381.006 49.4045 381.062 49.6083C381.118 49.8121 381.156 50.0554 381.176 50.3381H382.088C382.072 49.9502 382.011 49.6067 381.906 49.3075C381.8 49.0083 381.654 48.7568 381.467 48.553C381.279 48.3491 381.051 48.1946 380.781 48.0894C380.515 47.9842 380.208 47.9316 379.859 47.9316L379.859 47.9317ZM362.787 48.0304L360.474 55.2103H361.401L361.958 53.3364H364.385L364.952 55.2103H365.879L363.561 48.0304H362.787ZM366.855 48.0304V55.2103H367.758V52.3994H369.143C369.488 52.3994 369.794 52.3518 370.061 52.2564C370.327 52.1578 370.55 52.0164 370.731 51.8323C370.915 51.6482 371.053 51.4214 371.145 51.1518C371.241 50.8789 371.288 50.5699 371.288 50.2247C371.288 49.9058 371.241 49.6132 371.145 49.3469C371.053 49.0773 370.917 48.8456 370.736 48.6516C370.555 48.4543 370.33 48.3015 370.061 48.193C369.794 48.0845 369.489 48.0303 369.143 48.0303L366.855 48.0304ZM371.979 48.0304V48.8095H373.863V55.2103H374.765V48.8095H376.654V48.0304H371.979ZM383.306 48.0304V55.2103H384.209V51.8915H387.098V55.2103H388.006V48.0304H387.098V51.1174H384.209V48.0304H383.306ZM391.428 48.0304L389.115 55.2103H390.042L390.6 53.3364H393.026L393.593 55.2103H394.52L392.202 48.0304H391.428ZM367.758 48.8095H369.143C369.363 48.8095 369.551 48.8489 369.705 48.9279C369.863 49.0067 369.991 49.1119 370.09 49.2435C370.192 49.375 370.266 49.5278 370.312 49.7021C370.361 49.873 370.386 50.0505 370.386 50.2347C370.386 50.4385 370.361 50.6259 370.312 50.7968C370.266 50.9645 370.192 51.1108 370.09 51.2357C369.991 51.3573 369.863 51.4527 369.705 51.5217C369.551 51.5908 369.363 51.6253 369.143 51.6253H367.758V48.8095ZM363.171 49.2928L364.153 52.5573H362.195L363.171 49.2928ZM391.813 49.2928L392.794 52.5573H390.836L391.813 49.2928ZM349.335 49.7761C349.108 49.7761 348.912 49.8336 348.748 49.9487C348.587 50.0637 348.452 50.2199 348.343 50.4171L348.329 49.8747H347.48V55.2103H348.353V51.3934C348.436 51.1665 348.552 50.9874 348.703 50.8559C348.858 50.7244 349.054 50.6586 349.29 50.6586C349.366 50.6586 349.433 50.662 349.492 50.6685C349.552 50.6718 349.616 50.68 349.685 50.6931L349.68 49.8449C349.667 49.8383 349.645 49.8317 349.616 49.8252C349.589 49.8153 349.56 49.8071 349.527 49.8005C349.494 49.794 349.46 49.789 349.423 49.7857C349.391 49.7791 349.361 49.7759 349.335 49.7759L349.335 49.7761ZM352.269 49.7761C352.016 49.7761 351.771 49.8204 351.534 49.9092C351.297 49.998 351.087 50.1443 350.903 50.3481C350.722 50.5486 350.576 50.8116 350.464 51.1371C350.352 51.4593 350.296 51.8554 350.296 52.3256V52.9272C350.296 53.3348 350.344 53.6883 350.439 53.9874C350.535 54.2866 350.671 54.5348 350.849 54.7321C351.029 54.926 351.248 55.0707 351.504 55.166C351.761 55.2614 352.049 55.3091 352.367 55.3091C352.598 55.3091 352.803 55.286 352.984 55.24C353.168 55.194 353.331 55.1348 353.472 55.0625C353.613 54.9869 353.735 54.9014 353.837 54.8061C353.939 54.7107 354.026 54.6121 354.098 54.5102L353.645 53.9579C353.572 54.0466 353.495 54.1288 353.413 54.2044C353.331 54.2768 353.24 54.3409 353.142 54.3968C353.043 54.4494 352.935 54.4905 352.816 54.52C352.698 54.5496 352.565 54.5644 352.417 54.5644C352.012 54.5644 351.702 54.4346 351.485 54.1748C351.271 53.9151 351.164 53.4993 351.164 52.9272V52.8039H354.143V52.296C354.143 51.8884 354.108 51.5283 354.039 51.216C353.97 50.9037 353.86 50.6407 353.709 50.427C353.558 50.2133 353.364 50.0522 353.127 49.9437C352.89 49.832 352.604 49.7761 352.269 49.7761L352.269 49.7761ZM352.269 50.5256C352.459 50.5256 352.617 50.5601 352.742 50.6292C352.867 50.6982 352.966 50.7952 353.038 50.9201C353.114 51.0451 353.168 51.1947 353.201 51.3689C353.237 51.5398 353.26 51.7289 353.27 51.936V52.0543H351.169C351.182 51.7552 351.218 51.5069 351.278 51.3097C351.337 51.1124 351.414 50.9563 351.509 50.8412C351.608 50.7229 351.721 50.6407 351.85 50.5947C351.978 50.5486 352.118 50.5256 352.269 50.5256L352.269 50.5256Z" fill="#A6A6A6"/>
</g>
<path d="M345.98 64.8789H344.5V64.1016H345.98C346.238 64.1016 346.447 64.0599 346.605 63.9766C346.764 63.8932 346.88 63.7786 346.953 63.6328C347.029 63.4844 347.066 63.3151 347.066 63.125C347.066 62.9453 347.029 62.7773 346.953 62.6211C346.88 62.4622 346.764 62.3346 346.605 62.2383C346.447 62.1419 346.238 62.0938 345.98 62.0938H344.801V67H343.82V61.3125H345.98C346.421 61.3125 346.794 61.3906 347.102 61.5469C347.411 61.7005 347.647 61.9141 347.809 62.1875C347.97 62.4583 348.051 62.7682 348.051 63.1172C348.051 63.4844 347.97 63.7995 347.809 64.0625C347.647 64.3255 347.411 64.5273 347.102 64.668C346.794 64.8086 346.421 64.8789 345.98 64.8789ZM349.781 63.5781V67H348.84V62.7734H349.738L349.781 63.5781ZM351.074 62.7461L351.066 63.6211C351.009 63.6107 350.947 63.6029 350.879 63.5977C350.814 63.5924 350.749 63.5898 350.684 63.5898C350.522 63.5898 350.38 63.6133 350.258 63.6602C350.135 63.7044 350.033 63.7695 349.949 63.8555C349.868 63.9388 349.806 64.0404 349.762 64.1602C349.717 64.2799 349.691 64.4141 349.684 64.5625L349.469 64.5781C349.469 64.3125 349.495 64.0664 349.547 63.8398C349.599 63.6133 349.677 63.4141 349.781 63.2422C349.888 63.0703 350.021 62.9362 350.18 62.8398C350.341 62.7435 350.527 62.6953 350.738 62.6953C350.796 62.6953 350.857 62.7005 350.922 62.7109C350.99 62.7214 351.04 62.7331 351.074 62.7461ZM352.672 62.7734V67H351.727V62.7734H352.672ZM351.664 61.6641C351.664 61.5208 351.711 61.4023 351.805 61.3086C351.901 61.2122 352.034 61.1641 352.203 61.1641C352.37 61.1641 352.501 61.2122 352.598 61.3086C352.694 61.4023 352.742 61.5208 352.742 61.6641C352.742 61.8047 352.694 61.9219 352.598 62.0156C352.501 62.1094 352.37 62.1562 352.203 62.1562C352.034 62.1562 351.901 62.1094 351.805 62.0156C351.711 61.9219 351.664 61.8047 351.664 61.6641ZM355.078 66.2539L356.113 62.7734H357.09L355.621 67H355.012L355.078 66.2539ZM354.285 62.7734L355.34 66.2695L355.391 67H354.781L353.305 62.7734H354.285ZM359.992 66.1523V64.1367C359.992 63.9857 359.965 63.8555 359.91 63.7461C359.855 63.6367 359.772 63.5521 359.66 63.4922C359.551 63.4323 359.413 63.4023 359.246 63.4023C359.092 63.4023 358.96 63.4284 358.848 63.4805C358.736 63.5326 358.648 63.6029 358.586 63.6914C358.523 63.7799 358.492 63.8802 358.492 63.9922H357.555C357.555 63.8255 357.595 63.6641 357.676 63.5078C357.757 63.3516 357.874 63.2122 358.027 63.0898C358.181 62.9674 358.365 62.8711 358.578 62.8008C358.792 62.7305 359.031 62.6953 359.297 62.6953C359.615 62.6953 359.896 62.7487 360.141 62.8555C360.388 62.9622 360.582 63.1237 360.723 63.3398C360.866 63.5534 360.938 63.8216 360.938 64.1445V66.0234C360.938 66.2161 360.951 66.3893 360.977 66.543C361.005 66.694 361.046 66.8255 361.098 66.9375V67H360.133C360.089 66.8984 360.053 66.7695 360.027 66.6133C360.004 66.4544 359.992 66.3008 359.992 66.1523ZM360.129 64.4297L360.137 65.0117H359.461C359.286 65.0117 359.133 65.0286 359 65.0625C358.867 65.0938 358.757 65.1406 358.668 65.2031C358.579 65.2656 358.513 65.3411 358.469 65.4297C358.424 65.5182 358.402 65.6185 358.402 65.7305C358.402 65.8424 358.428 65.9453 358.48 66.0391C358.533 66.1302 358.608 66.2018 358.707 66.2539C358.809 66.306 358.931 66.332 359.074 66.332C359.267 66.332 359.435 66.293 359.578 66.2148C359.724 66.1341 359.839 66.0365 359.922 65.9219C360.005 65.8047 360.049 65.694 360.055 65.5898L360.359 66.0078C360.328 66.1146 360.275 66.2292 360.199 66.3516C360.124 66.474 360.025 66.5911 359.902 66.7031C359.783 66.8125 359.638 66.9023 359.469 66.9727C359.302 67.043 359.109 67.0781 358.891 67.0781C358.615 67.0781 358.368 67.0234 358.152 66.9141C357.936 66.8021 357.767 66.6523 357.645 66.4648C357.522 66.2747 357.461 66.0599 357.461 65.8203C357.461 65.5964 357.503 65.3984 357.586 65.2266C357.672 65.0521 357.797 64.9062 357.961 64.7891C358.128 64.6719 358.331 64.5833 358.57 64.5234C358.81 64.4609 359.083 64.4297 359.391 64.4297H360.129ZM363.648 66.3281C363.802 66.3281 363.94 66.2982 364.062 66.2383C364.188 66.1758 364.288 66.0898 364.363 65.9805C364.441 65.8711 364.484 65.7448 364.492 65.6016H365.379C365.374 65.875 365.293 66.1237 365.137 66.3477C364.98 66.5716 364.773 66.75 364.516 66.8828C364.258 67.013 363.973 67.0781 363.66 67.0781C363.337 67.0781 363.056 67.0234 362.816 66.9141C362.577 66.8021 362.378 66.6484 362.219 66.4531C362.06 66.2578 361.94 66.0326 361.859 65.7773C361.781 65.5221 361.742 65.2487 361.742 64.957V64.8203C361.742 64.5286 361.781 64.2552 361.859 64C361.94 63.7422 362.06 63.5156 362.219 63.3203C362.378 63.125 362.577 62.9727 362.816 62.8633C363.056 62.7513 363.336 62.6953 363.656 62.6953C363.995 62.6953 364.292 62.763 364.547 62.8984C364.802 63.0312 365.003 63.2174 365.148 63.457C365.297 63.694 365.374 63.9701 365.379 64.2852H364.492C364.484 64.1289 364.445 63.9883 364.375 63.8633C364.307 63.7357 364.211 63.6341 364.086 63.5586C363.964 63.4831 363.816 63.4453 363.645 63.4453C363.454 63.4453 363.297 63.4844 363.172 63.5625C363.047 63.638 362.949 63.7422 362.879 63.875C362.809 64.0052 362.758 64.1523 362.727 64.3164C362.698 64.4779 362.684 64.6458 362.684 64.8203V64.957C362.684 65.1315 362.698 65.3008 362.727 65.4648C362.755 65.6289 362.805 65.776 362.875 65.9062C362.948 66.0339 363.047 66.1367 363.172 66.2148C363.297 66.2904 363.456 66.3281 363.648 66.3281ZM367.328 66.5391L368.477 62.7734H369.484L367.789 67.6445C367.75 67.7487 367.699 67.862 367.637 67.9844C367.574 68.1068 367.492 68.2227 367.391 68.332C367.292 68.444 367.168 68.5339 367.02 68.6016C366.871 68.6719 366.691 68.707 366.48 68.707C366.397 68.707 366.316 68.6992 366.238 68.6836C366.163 68.6706 366.091 68.6562 366.023 68.6406L366.02 67.9219C366.046 67.9245 366.077 67.9271 366.113 67.9297C366.152 67.9323 366.184 67.9336 366.207 67.9336C366.363 67.9336 366.493 67.9141 366.598 67.875C366.702 67.8385 366.786 67.7786 366.852 67.6953C366.919 67.612 366.977 67.5 367.023 67.3594L367.328 66.5391ZM366.68 62.7734L367.684 65.9375L367.852 66.9297L367.199 67.0977L365.664 62.7734H366.68ZM373.91 64.1953V64.9453H371.844V64.1953H373.91ZM378.973 61.3125V67H378V61.3125H378.973ZM380.758 61.3125V62.0938H376.23V61.3125H380.758ZM382.902 67.0781C382.59 67.0781 382.307 67.0273 382.055 66.9258C381.805 66.8216 381.591 66.6771 381.414 66.4922C381.24 66.3073 381.105 66.0898 381.012 65.8398C380.918 65.5898 380.871 65.3203 380.871 65.0312V64.875C380.871 64.5443 380.919 64.2448 381.016 63.9766C381.112 63.7083 381.246 63.4792 381.418 63.2891C381.59 63.0964 381.793 62.9492 382.027 62.8477C382.262 62.7461 382.516 62.6953 382.789 62.6953C383.091 62.6953 383.355 62.7461 383.582 62.8477C383.809 62.9492 383.996 63.0924 384.145 63.2773C384.296 63.4596 384.408 63.6771 384.48 63.9297C384.556 64.1823 384.594 64.4609 384.594 64.7656V65.168H381.328V64.4922H383.664V64.418C383.659 64.2487 383.625 64.0898 383.562 63.9414C383.503 63.793 383.41 63.6732 383.285 63.582C383.16 63.4909 382.993 63.4453 382.785 63.4453C382.629 63.4453 382.49 63.4792 382.367 63.5469C382.247 63.612 382.147 63.707 382.066 63.832C381.986 63.957 381.923 64.1081 381.879 64.2852C381.837 64.4596 381.816 64.6562 381.816 64.875V65.0312C381.816 65.2161 381.841 65.388 381.891 65.5469C381.943 65.7031 382.018 65.8398 382.117 65.957C382.216 66.0742 382.336 66.1667 382.477 66.2344C382.617 66.2995 382.777 66.332 382.957 66.332C383.184 66.332 383.385 66.2865 383.562 66.1953C383.74 66.1042 383.893 65.9753 384.023 65.8086L384.52 66.2891C384.428 66.4219 384.31 66.5495 384.164 66.6719C384.018 66.7917 383.84 66.8893 383.629 66.9648C383.421 67.0404 383.178 67.0781 382.902 67.0781ZM386.273 63.5781V67H385.332V62.7734H386.23L386.273 63.5781ZM387.566 62.7461L387.559 63.6211C387.501 63.6107 387.439 63.6029 387.371 63.5977C387.306 63.5924 387.241 63.5898 387.176 63.5898C387.014 63.5898 386.872 63.6133 386.75 63.6602C386.628 63.7044 386.525 63.7695 386.441 63.8555C386.361 63.9388 386.298 64.0404 386.254 64.1602C386.21 64.2799 386.184 64.4141 386.176 64.5625L385.961 64.5781C385.961 64.3125 385.987 64.0664 386.039 63.8398C386.091 63.6133 386.169 63.4141 386.273 63.2422C386.38 63.0703 386.513 62.9362 386.672 62.8398C386.833 62.7435 387.02 62.6953 387.23 62.6953C387.288 62.6953 387.349 62.7005 387.414 62.7109C387.482 62.7214 387.533 62.7331 387.566 62.7461ZM389.098 63.6328V67H388.156V62.7734H389.043L389.098 63.6328ZM388.945 64.7305L388.625 64.7266C388.625 64.4349 388.661 64.1654 388.734 63.918C388.807 63.6706 388.914 63.4557 389.055 63.2734C389.195 63.0885 389.37 62.9466 389.578 62.8477C389.789 62.7461 390.033 62.6953 390.309 62.6953C390.501 62.6953 390.677 62.724 390.836 62.7812C390.997 62.8359 391.137 62.9232 391.254 63.043C391.374 63.1628 391.465 63.3164 391.527 63.5039C391.592 63.6914 391.625 63.918 391.625 64.1836V67H390.684V64.2656C390.684 64.0599 390.652 63.8984 390.59 63.7812C390.53 63.6641 390.443 63.5807 390.328 63.5312C390.216 63.4792 390.082 63.4531 389.926 63.4531C389.749 63.4531 389.598 63.487 389.473 63.5547C389.35 63.6224 389.25 63.7148 389.172 63.832C389.094 63.9492 389.036 64.0846 389 64.2383C388.964 64.3919 388.945 64.556 388.945 64.7305ZM391.566 64.4805L391.125 64.5781C391.125 64.3229 391.16 64.082 391.23 63.8555C391.303 63.6263 391.409 63.4258 391.547 63.2539C391.688 63.0794 391.861 62.9427 392.066 62.8438C392.272 62.7448 392.508 62.6953 392.773 62.6953C392.99 62.6953 393.182 62.7253 393.352 62.7852C393.523 62.8424 393.669 62.9336 393.789 63.0586C393.909 63.1836 394 63.3464 394.062 63.5469C394.125 63.7448 394.156 63.9844 394.156 64.2656V67H393.211V64.2617C393.211 64.0482 393.18 63.8828 393.117 63.7656C393.057 63.6484 392.971 63.5677 392.859 63.5234C392.747 63.4766 392.613 63.4531 392.457 63.4531C392.311 63.4531 392.182 63.4805 392.07 63.5352C391.961 63.5872 391.868 63.6615 391.793 63.7578C391.717 63.8516 391.66 63.9596 391.621 64.082C391.585 64.2044 391.566 64.3372 391.566 64.4805ZM397.496 65.8555C397.496 65.7617 397.473 65.6771 397.426 65.6016C397.379 65.5234 397.289 65.4531 397.156 65.3906C397.026 65.3281 396.833 65.2708 396.578 65.2188C396.354 65.1693 396.148 65.1107 395.961 65.043C395.776 64.9727 395.617 64.888 395.484 64.7891C395.352 64.6901 395.249 64.5729 395.176 64.4375C395.103 64.3021 395.066 64.1458 395.066 63.9688C395.066 63.7969 395.104 63.6341 395.18 63.4805C395.255 63.3268 395.363 63.1914 395.504 63.0742C395.645 62.957 395.815 62.8646 396.016 62.7969C396.219 62.7292 396.445 62.6953 396.695 62.6953C397.049 62.6953 397.353 62.7552 397.605 62.875C397.861 62.9922 398.056 63.1523 398.191 63.3555C398.327 63.556 398.395 63.7826 398.395 64.0352H397.453C397.453 63.9232 397.424 63.819 397.367 63.7227C397.312 63.6237 397.229 63.5443 397.117 63.4844C397.005 63.4219 396.865 63.3906 396.695 63.3906C396.534 63.3906 396.4 63.4167 396.293 63.4688C396.189 63.5182 396.111 63.5833 396.059 63.6641C396.009 63.7448 395.984 63.8333 395.984 63.9297C395.984 64 395.997 64.0638 396.023 64.1211C396.052 64.1758 396.099 64.2266 396.164 64.2734C396.229 64.3177 396.318 64.3594 396.43 64.3984C396.544 64.4375 396.688 64.4753 396.859 64.5117C397.182 64.5794 397.46 64.6667 397.691 64.7734C397.926 64.8776 398.105 65.013 398.23 65.1797C398.355 65.3438 398.418 65.5521 398.418 65.8047C398.418 65.9922 398.378 66.1641 398.297 66.3203C398.219 66.474 398.104 66.6081 397.953 66.7227C397.802 66.8346 397.621 66.9219 397.41 66.9844C397.202 67.0469 396.967 67.0781 396.707 67.0781C396.324 67.0781 396 67.0104 395.734 66.875C395.469 66.737 395.267 66.5612 395.129 66.3477C394.993 66.1315 394.926 65.9076 394.926 65.6758H395.836C395.846 65.8503 395.895 65.9896 395.98 66.0938C396.069 66.1953 396.178 66.2695 396.309 66.3164C396.441 66.3607 396.578 66.3828 396.719 66.3828C396.888 66.3828 397.03 66.3607 397.145 66.3164C397.259 66.2695 397.346 66.207 397.406 66.1289C397.466 66.0482 397.496 65.957 397.496 65.8555Z" fill="#A6A6A6"/>
<rect x="2.5" y="1.5" width="407" height="75" rx="2.5" stroke="#D6D6D6"/>
</g>
<defs>
<filter id="filter0_d_1137_118" x="0" y="0" width="412" height="80" filterUnits="userSpaceOnUse" color-interpolation-filters="sRGB">
<feFlood flood-opacity="0" result="BackgroundImageFix"/>
<feColorMatrix in="SourceAlpha" type="matrix" values="0 0 0 0 0 0 0 0 0 0 0 0 0 0 0 0 0 0 127 0" result="hardAlpha"/>
<feOffset dy="1"/>
<feGaussianBlur stdDeviation="1"/>
<feColorMatrix type="matrix" values="0 0 0 0 0 0 0 0 0 0 0 0 0 0 0 0 0 0 0.1 0"/>
<feBlend mode="normal" in2="BackgroundImageFix" result="effect1_dropShadow_1137_118"/>
<feBlend mode="normal" in="SourceGraphic" in2="effect1_dropShadow_1137_118" result="shape"/>
</filter>
<clipPath id="clip0_1137_118">
<rect width="48" height="46" fill="white" transform="translate(347 10)"/>
</clipPath>
</defs>
</svg>
