<svg width="97" height="37" viewBox="0 0 97 37" fill="none" xmlns="http://www.w3.org/2000/svg">
<path d="M13.6492 4.6449L14.8224 7.32132L3.53103 26.5682L1.09936 26.5682L13.6492 4.6449Z" fill="white"/>
<path d="M13.3911 13.3313L14.9255 15.3822L8.87164 25.8678L6.32829 25.5645L13.3911 13.3313Z" fill="#3A63ED"/>
<path d="M19.0688 21.47L17.2334 19.3382L14.8608 19.3277L13.3283 21.47L19.0688 21.47Z" fill="white"/>
<path d="M25.3879 24.3352L22.2508 23.8832L12.4936 7.35157L13.6496 4.64529L25.3879 24.3352Z" fill="white"/>
<path d="M26.0918 22.3257L27.3677 19.5539L18.8968 4.51348L16.0641 4.31558L26.0918 22.3257Z" fill="#3A63ED"/>
<path d="M24.0857 26.6549L23.08 24.5751L11.9879 24.4583L13.5777 26.6549L24.0857 26.6549Z" fill="white"/>
<path d="M22.8398 22.8636L25.4156 24.3508L24.0842 26.6568L21.5084 25.1697L22.8398 22.8636Z" fill="white"/>
<path d="M40.1697 24.5417L45.4618 12.0742H47.2321L52.5242 24.5417H50.961L49.4355 20.9257H43.2583L41.7328 24.5417H40.1697ZM43.8045 19.6262H48.8894L46.3469 13.5432L43.8045 19.6262Z" fill="white"/>
<path d="M57.7807 24.6923C56.8641 24.6923 56.0606 24.4789 55.37 24.052C54.692 23.6126 54.1647 23.0225 53.788 22.2817C53.4114 21.5409 53.2231 20.7248 53.2231 19.8334C53.2231 18.9294 53.4114 18.1133 53.788 17.3851C54.1647 16.6443 54.692 16.0605 55.37 15.6336C56.0606 15.1942 56.8641 14.9745 57.7807 14.9745C58.5591 14.9745 59.2245 15.1251 59.777 15.4265C60.342 15.7278 60.8002 16.1358 61.1518 16.6506V11.3585H62.5643V24.5417H61.1518V23.035C60.8002 23.5372 60.342 23.939 59.777 24.2403C59.2245 24.5417 58.5591 24.6923 57.7807 24.6923ZM57.969 23.4117C58.6721 23.4117 59.2622 23.2485 59.7393 22.922C60.229 22.5956 60.5993 22.1624 60.8504 21.6225C61.1016 21.0701 61.2271 20.4737 61.2271 19.8334C61.2271 19.1805 61.1016 18.5841 60.8504 18.0443C60.5993 17.5044 60.229 17.0712 59.7393 16.7448C59.2622 16.4183 58.6721 16.2551 57.969 16.2551C57.2784 16.2551 56.6821 16.4183 56.1798 16.7448C55.6776 17.0712 55.2947 17.5044 55.031 18.0443C54.7674 18.5841 54.6355 19.1805 54.6355 19.8334C54.6355 20.4737 54.7674 21.0701 55.031 21.6225C55.2947 22.1624 55.6776 22.5956 56.1798 22.922C56.6821 23.2485 57.2784 23.4117 57.969 23.4117Z" fill="white"/>
<path d="M65.3087 24.5417V12.0742H70.921C72.2519 12.0742 73.3002 12.4383 74.0661 13.1665C74.832 13.8822 75.2149 14.8552 75.2149 16.0856C75.2149 17.316 74.832 18.2954 74.0661 19.0236C73.3002 19.7392 72.2519 20.0971 70.921 20.0971H66.7212V24.5417H65.3087ZM66.7212 18.7787H70.8268C71.8061 18.7787 72.5469 18.5402 73.0491 18.0631C73.5513 17.586 73.8024 16.9268 73.8024 16.0856C73.8024 15.257 73.5513 14.6041 73.0491 14.127C72.5469 13.6499 71.8061 13.4113 70.8268 13.4113H66.7212V18.7787Z" fill="white"/>
<path d="M80.807 24.6923C79.8905 24.6923 79.0869 24.4789 78.3964 24.052C77.7184 23.6126 77.1911 23.0225 76.8144 22.2817C76.4377 21.5409 76.2494 20.7248 76.2494 19.8334C76.2494 18.9294 76.4377 18.1133 76.8144 17.3851C77.1911 16.6443 77.7184 16.0605 78.3964 15.6336C79.0869 15.1942 79.8905 14.9745 80.807 14.9745C81.5854 14.9745 82.2509 15.1251 82.8033 15.4265C83.3683 15.7278 83.8266 16.1358 84.1781 16.6506V15.1251H85.5906V24.5417H84.1781V23.035C83.8266 23.5372 83.3683 23.939 82.8033 24.2403C82.2509 24.5417 81.5854 24.6923 80.807 24.6923ZM80.9953 23.4117C81.6984 23.4117 82.2886 23.2485 82.7657 22.922C83.2553 22.5956 83.6257 22.1624 83.8768 21.6225C84.1279 21.0701 84.2535 20.4737 84.2535 19.8334C84.2535 19.1805 84.1279 18.5841 83.8768 18.0443C83.6257 17.5044 83.2553 17.0712 82.7657 16.7448C82.2886 16.4183 81.6984 16.2551 80.9953 16.2551C80.3048 16.2551 79.7084 16.4183 79.2062 16.7448C78.704 17.0712 78.321 17.5044 78.0574 18.0443C77.7937 18.5841 77.6619 19.1805 77.6619 19.8334C77.6619 20.4737 77.7937 21.0701 78.0574 21.6225C78.321 22.1624 78.704 22.5956 79.2062 22.922C79.7084 23.2485 80.3048 23.4117 80.9953 23.4117Z" fill="white"/>
<path d="M89.0131 28.2706L90.7269 24.4098L86.8849 15.1251H88.4481L91.4802 22.8467L94.5688 15.1251H96.1131L90.5386 28.2706H89.0131Z" fill="white"/>
</svg>
