<svg width="192" height="192" viewBox="0 0 192 192" fill="none" xmlns="http://www.w3.org/2000/svg">
<path d="M0.75 23.5795V46.6309H23.8014H46.8529V23.5795V0.528046H23.8014H0.75V23.5795ZM40.2668 23.5795V40.0447H23.8014H7.33613V23.5795V7.11416H23.8014H40.2668V23.5795Z" fill="black"/>
<path d="M13.9219 23.5798V33.459H23.8011H33.6803V23.5798V13.7006H23.8011H13.9219V23.5798Z" fill="black"/>
<path d="M60.0252 3.82104V7.11411H56.7321H53.439V10.4072V13.7002H56.7321H60.0252V16.9933V20.2863H56.7321H53.439V23.5794V26.8725H56.7321H60.0252V30.1655V33.4586H56.7321H53.439V43.3378V53.2169H43.5598H33.6806V59.8031V66.3892H36.9737H40.2668V69.6822V72.9753H43.5598H46.8529V76.2683V79.5614H43.5598H40.2668V82.8545V86.1475H43.5598H46.8529V89.4406V92.7336H33.6806H20.5084V82.8545V72.9753H23.8015H27.0945V76.2683V79.5614H30.3876H33.6806V76.2683V72.9753H30.3876H27.0945V69.6822V66.3892H23.8015H20.5084V63.0961V59.8031H23.8015H27.0945V56.51V53.2169H20.5084H13.9223V59.8031V66.3892H10.6292H7.33613V69.6822V72.9753H10.6292H13.9223V76.2683V79.5614H7.33613H0.75V86.1475V92.7336H4.04306H7.33613V89.4406V86.1475H10.6292H13.9223V89.4406V92.7336H17.2153H20.5084V96.0267V99.3197H33.6806H46.8529V102.613V105.906H43.5598H40.2668V109.199V112.492H36.9737H33.6806V109.199V105.906H20.5084H7.33613V109.199V112.492H10.6292H13.9223V115.785V119.078H10.6292H7.33613V122.371V125.664H10.6292H13.9223V128.957V132.25H17.2153H20.5084V135.543V138.836H23.8015H27.0945V135.543V132.25H23.8015H20.5084V128.957V125.664H17.2153H13.9223V122.371V119.078H17.2153H20.5084V115.785V112.492H23.8015H27.0945V119.078V125.664H30.3876H33.6806V128.957V132.25H36.9737H40.2668V135.543V138.836H46.8529H53.439V148.716V158.595H56.7321H60.0252V155.302V152.009H63.3182H66.6113V155.302V158.595H69.9044H73.1974V161.888V165.181H76.4905H79.7835V161.888V158.595H86.3697H92.9558V155.302V152.009H96.2489H99.5419V155.302V158.595H102.835H106.128V161.888V165.181H109.421H112.714V161.888V158.595H119.3H125.886V161.888V165.181H122.593H119.3V168.474V171.767H125.886H132.473V175.06V178.353H109.421H86.3697V181.646V184.939H89.6627H92.9558V188.232V191.525H112.714H132.473V188.232V184.939H135.766H139.059V188.232V191.525H142.352H145.645V184.939V178.353H152.231H158.817V175.06V171.767H162.11H165.403V175.06V178.353H168.696H171.989V175.06V171.767H181.869H191.748V165.181V158.595H188.455H185.162V148.716V138.836H188.455H191.748V132.25V125.664H188.455H185.162V128.957V132.25H181.869H178.575V125.664V119.078H185.162H191.748V115.785V112.492H188.455H185.162V109.199V105.906H188.455H191.748V102.613V99.3197H188.455H185.162V102.613V105.906H181.869H178.575V96.0267V86.1475H181.869H185.162V89.4406V92.7336H188.455H191.748V86.1475V79.5614H181.869H171.989V76.2683V72.9753H175.282H178.575V69.6822V66.3892H168.696H158.817V69.6822V72.9753H152.231H145.645V69.6822V66.3892H142.352H139.059V63.0961V59.8031H148.938H158.817V56.51V53.2169H148.938H139.059V43.3378V33.4586H132.473H125.886V30.1655V26.8725H132.473H139.059V20.2863V13.7002H129.18H119.3V10.4072V7.11411H122.593H125.886V3.82104V0.528H122.593H119.3V3.82104V7.11411H116.007H112.714V3.82104V0.528H106.128H99.5419V3.82104V7.11411H96.2489H92.9558V3.82104V0.528H89.6627H86.3697V3.82104V7.11411H89.6627H92.9558V10.4072V13.7002H89.6627H86.3697V16.9933V20.2863H89.6627H92.9558V23.5794V26.8725H96.2489H99.5419V33.4586V40.0447H96.2489H92.9558V43.3378V46.6308H89.6627H86.3697V36.7516V26.8725H83.0766H79.7835V20.2863V13.7002H76.4905H73.1974V23.5794V33.4586H76.4905H79.7835V40.0447V46.6308H76.4905H73.1974V43.3378V40.0447H69.9044H66.6113V20.2863V0.528H63.3182H60.0252V3.82104ZM112.714 10.4072V13.7002H106.128H99.5419V10.4072V7.11411H106.128H112.714V10.4072ZM125.886 23.5794V26.8725H122.593H119.3V30.1655V33.4586H122.593H125.886V36.7516V40.0447H129.18H132.473V43.3378V46.6308H129.18H125.886V43.3378V40.0447H122.593H119.3V46.6308V53.2169H129.18H139.059V56.51V59.8031H135.766H132.473V63.0961V66.3892H135.766H139.059V72.9753V79.5614H135.766H132.473V82.8545V86.1475H135.766H139.059V89.4406V92.7336H148.938H158.817V89.4406V86.1475H152.231H145.645V82.8545V79.5614H152.231H158.817V82.8545V86.1475H162.11H165.403V82.8545V79.5614H168.696H171.989V82.8545V86.1475H168.696H165.403V89.4406V92.7336H168.696H171.989V96.0267V99.3197H168.696H165.403V102.613V105.906H168.696H171.989V109.199V112.492H175.282H178.575V115.785V119.078H175.282H171.989V115.785V112.492H168.696H165.403V115.785V119.078H155.524H145.645V112.492V105.906H142.352H139.059V115.785V125.664H152.231H165.403V128.957V132.25H148.938H132.473V145.423V158.595H129.18H125.886V155.302V152.009H116.007H106.128V148.716V145.423H109.421H112.714V142.13V138.836H109.421H106.128V135.543V132.25H99.5419H92.9558V125.664V119.078H89.6627H86.3697V132.25V145.423H89.6627H92.9558V142.13V138.836H96.2489H99.5419V142.13V145.423H96.2489H92.9558V148.716V152.009H89.6627H86.3697V148.716V145.423H83.0766H79.7835V142.13V138.836H76.4905H73.1974V142.13V145.423H69.9044H66.6113V142.13V138.836H69.9044H73.1974V135.543V132.25H76.4905H79.7835V128.957V125.664H73.1974H66.6113V128.957V132.25H63.3182H60.0252V135.543V138.836H56.7321H53.439V132.25V125.664H50.146H46.8529V128.957V132.25H43.5598H40.2668V128.957V125.664H36.9737H33.6806V122.371V119.078H36.9737H40.2668V115.785V112.492H43.5598H46.8529V115.785V119.078H50.146H53.439V122.371V125.664H56.7321H60.0252V119.078V112.492H56.7321H53.439V102.613V92.7336H66.6113H79.7835V96.0267V99.3197H83.0766H86.3697V105.906V112.492H89.6627H92.9558V102.613V92.7336H89.6627H86.3697V89.4406V86.1475H83.0766H79.7835V82.8545V79.5614H73.1974H66.6113V82.8545V86.1475H56.7321H46.8529V82.8545V79.5614H53.439H60.0252V76.2683V72.9753H53.439H46.8529V69.6822V66.3892H43.5598H40.2668V63.0961V59.8031H43.5598H46.8529V63.0961V66.3892H50.146H53.439V63.0961V59.8031H56.7321H60.0252V49.9239V40.0447H63.3182H66.6113V46.6308V53.2169H69.9044H73.1974V63.0961V72.9753H76.4905H79.7835V69.6822V66.3892H83.0766H86.3697V63.0961V59.8031H83.0766H79.7835V53.2169V46.6308H83.0766H86.3697V49.9239V53.2169H89.6627H92.9558V49.9239V46.6308H96.2489H99.5419V43.3378V40.0447H102.835H106.128V46.6308V53.2169H109.421H112.714V46.6308V40.0447H116.007H119.3V36.7516V33.4586H112.714H106.128V26.8725V20.2863H116.007H125.886V23.5794ZM158.817 148.716V158.595H148.938H139.059V148.716V138.836H148.938H158.817V148.716ZM178.575 148.716V158.595H181.869H185.162V161.888V165.181H181.869H178.575V161.888V158.595H171.989H165.403V155.302V152.009H168.696H171.989V145.423V138.836H175.282H178.575V148.716ZM145.645 171.767V178.353H142.352H139.059V175.06V171.767H135.766H132.473V168.474V165.181H139.059H145.645V171.767ZM158.817 168.474V171.767H155.524H152.231V168.474V165.181H155.524H158.817V168.474Z" fill="black"/>
<path d="M99.5434 56.5098V59.8029H102.836H106.129V63.096V66.389H96.2503H86.3711V69.6821V72.9751H89.6642H92.9572V76.2682V79.5612H96.2503H99.5434V76.2682V72.9751H102.836H106.129V79.5612V86.1474H99.5434H92.9572V89.4404V92.7335H99.5434H106.129V96.0265V99.3196H109.423H112.716V102.613V105.906H106.129H99.5434V109.199V112.492H106.129H112.716V109.199V105.906H116.009H119.302V102.613V99.3196H122.595H125.888V109.199V119.078H122.595H119.302V122.371V125.664H125.888H132.474V112.492V99.3196H135.767H139.06V96.0265V92.7335H135.767H132.474V89.4404V86.1474H129.181H125.888V72.9751V59.8029H122.595H119.302V56.5098V53.2168H116.009H112.716V56.5098V59.8029H109.423H106.129V56.5098V53.2168H102.836H99.5434V56.5098ZM119.302 86.1474V99.3196H116.009H112.716V96.0265V92.7335H109.423H106.129V89.4404V86.1474H109.423H112.716V79.5612V72.9751H116.009H119.302V86.1474Z" fill="black"/>
<path d="M60.0234 66.3885V72.9746H63.3165H66.6096V66.3885V59.8024H63.3165H60.0234V66.3885Z" fill="black"/>
<path d="M60.0234 105.906V112.492H63.3165H66.6096V115.785V119.078H69.9026H73.1957V115.785V112.492H76.4888H79.7818V115.785V119.078H83.0749H86.368V115.785V112.492H83.0749H79.7818V105.906V99.3198H69.9026H60.0234V105.906ZM73.1957 109.199V112.492H69.9026H66.6096V109.199V105.906H69.9026H73.1957V109.199Z" fill="black"/>
<path d="M152.234 109.199V112.492H158.821H165.407V109.199V105.906H158.821H152.234V109.199Z" fill="black"/>
<path d="M40.2656 122.371V125.664H43.5587H46.8518V122.371V119.078H43.5587H40.2656V122.371Z" fill="black"/>
<path d="M106.129 128.959V132.252H109.422H112.715V135.545V138.838H116.008H119.301V142.131V145.424H122.594H125.887V138.838V132.252H119.301H112.715V128.959V125.665H109.422H106.129V128.959Z" fill="black"/>
<path d="M145.645 148.715V152.008H148.938H152.231V148.715V145.422H148.938H145.645V148.715Z" fill="black"/>
<path d="M73.1953 3.82218V7.11523H76.4884H79.7814V3.82218V0.529118H76.4884H73.1953V3.82218Z" fill="black"/>
<path d="M132.469 3.82218V7.11523H135.762H139.055V3.82218V0.529118H135.762H132.469V3.82218Z" fill="black"/>
<path d="M145.645 23.5795V46.6309H168.696H191.747V23.5795V0.528046H168.696H145.645V23.5795ZM185.161 23.5795V40.0447H168.696H152.231V23.5795V7.11416H168.696H185.161V23.5795Z" fill="black"/>
<path d="M158.816 23.5798V33.459H168.696H178.575V23.5798V13.7006H168.696H158.816V23.5798Z" fill="black"/>
<path d="M0.75 56.5097V59.8027H4.04306H7.33613V56.5097V53.2166H4.04306H0.75V56.5097Z" fill="black"/>
<path d="M165.406 56.5097V59.8027H168.699H171.992V56.5097V53.2166H168.699H165.406V56.5097Z" fill="black"/>
<path d="M178.574 56.5093V59.8024H181.867H185.16V66.3885V72.9746H188.453H191.746V66.3885V59.8024H188.453H185.16V56.5093V53.2163H181.867H178.574V56.5093Z" fill="black"/>
<path d="M0.75 168.474V191.525H23.8014H46.8529V168.474V145.423H23.8014H0.75V168.474ZM40.2668 168.474V184.939H23.8014H7.33613V168.474V152.009H23.8014H40.2668V168.474Z" fill="black"/>
<path d="M13.9219 168.474V178.354H23.8011H33.6803V168.474V158.595H23.8011H13.9219V168.474Z" fill="black"/>
<path d="M53.4336 171.767V178.354H56.7267H60.0197V175.06V171.767H63.3128H66.6059V168.474V165.181H60.0197H53.4336V171.767Z" fill="black"/>
<path d="M86.3711 168.475V171.768H89.6642H92.9572V168.475V165.181H89.6642H86.3711V168.475Z" fill="black"/>
<path d="M73.192 175.06V178.353H69.8989H66.6059V181.646V184.939H60.0197H53.4336V188.232V191.525H60.0197H66.6059V188.232V184.939H73.192H79.7781V178.353V171.767H76.485H73.192V175.06Z" fill="black"/>
<path d="M178.579 181.646V184.939H171.992H165.406V188.232V191.525H171.992H178.579V188.232V184.939H185.165H191.751V181.646V178.353H185.165H178.579V181.646Z" fill="black"/>
</svg>
