<svg width="109" height="108" viewBox="0 0 109 108" fill="none" xmlns="http://www.w3.org/2000/svg">
<mask id="mask0_1473_268" style="mask-type:alpha" maskUnits="userSpaceOnUse" x="0" y="0" width="109" height="108">
<path d="M79.5493 10.4949C80.6267 8.62657 83.0222 7.97495 84.8056 9.18562C94.5107 15.774 101.842 25.3717 105.634 36.5554C109.845 48.9761 109.403 62.506 104.389 74.6243C99.376 86.7426 90.1334 96.6229 78.3836 102.424C66.6338 108.226 53.1783 109.553 40.5238 106.158C27.8694 102.763 16.8792 94.8777 9.60077 83.9715C2.32234 73.0653 -0.747885 59.8818 0.962115 46.8773C2.67211 33.8727 9.04572 21.934 18.8954 13.2855C27.7643 5.49829 38.9068 0.856778 50.6018 0.00957236C52.7509 -0.146113 54.5001 1.61744 54.5001 3.77475C54.5001 5.93207 52.7501 7.66377 50.603 7.84571C40.8033 8.67611 31.4853 12.622 24.0402 19.1592C15.6137 26.558 10.1611 36.7715 8.69821 47.897C7.23529 59.0224 9.86187 70.3009 16.0886 79.6312C22.3153 88.9615 31.7175 95.7072 42.5434 98.6116C53.3693 101.516 64.8805 100.381 74.9325 95.4176C84.9845 90.4545 92.8916 82.0019 97.1806 71.6347C101.47 61.2674 101.848 49.6925 98.2455 39.0666C95.0624 29.6782 88.9634 21.5963 80.8913 15.9713C79.1227 14.7389 78.472 12.3632 79.5493 10.4949Z" fill="#3D424F"/>
</mask>
<g mask="url(#mask0_1473_268)">
<rect x="0.5" width="54" height="54" fill="url(#paint0_linear_1473_268)"/>
<rect x="0.5" y="54" width="54" height="54" fill="url(#paint1_linear_1473_268)"/>
<rect x="54.5" width="54" height="54" fill="url(#paint2_linear_1473_268)"/>
<rect x="54.5" y="54" width="54" height="54" fill="url(#paint3_linear_1473_268)"/>
</g>
<defs>
<linearGradient id="paint0_linear_1473_268" x1="54.5" y1="0" x2="0.5" y2="54" gradientUnits="userSpaceOnUse">
<stop stop-color="#FEFEFE"/>
<stop offset="1" stop-color="#C5C5C7"/>
</linearGradient>
<linearGradient id="paint1_linear_1473_268" x1="7.40698" y1="54" x2="54.5" y2="106.744" gradientUnits="userSpaceOnUse">
<stop stop-color="#C7C7C9"/>
<stop offset="1" stop-color="#88888D"/>
</linearGradient>
<linearGradient id="paint2_linear_1473_268" x1="56.3837" y1="3.02564e-07" x2="97.8256" y2="54" gradientUnits="userSpaceOnUse">
<stop stop-color="#54555C" stop-opacity="0"/>
<stop offset="1" stop-color="#55565C"/>
</linearGradient>
<linearGradient id="paint3_linear_1473_268" x1="108.5" y1="54" x2="54.5" y2="89.7907" gradientUnits="userSpaceOnUse">
<stop stop-color="#52535A"/>
<stop offset="1" stop-color="#89898E"/>
</linearGradient>
</defs>
</svg>
