<svg width="24" height="28" viewBox="0 0 24 28" fill="none" xmlns="http://www.w3.org/2000/svg">
<path d="M10.3333 18.0976C10.3333 17.1993 11.0795 16.4711 12 16.4711C12.9205 16.4711 13.6667 17.1993 13.6667 18.0976C13.6667 18.9959 12.9205 19.7241 12 19.7241C11.0795 19.7241 10.3333 18.9959 10.3333 18.0976Z" fill="#3A63ED"/>
<path fill-rule="evenodd" clip-rule="evenodd" d="M12 0.206055C7.76582 0.206055 4.33333 3.55583 4.33333 7.68798V9.13715C4.33333 9.22408 4.34498 9.30836 4.36683 9.38857C2.45204 10.0752 0.959551 11.5827 0.32629 13.4847C0 14.4648 0 15.6757 0 18.0976C0 20.5195 0 21.7305 0.32629 22.7105C0.985742 24.6912 2.57697 26.2441 4.60655 26.8876C5.61077 27.2061 6.85161 27.2061 9.33331 27.2061H14.6667C17.1484 27.2061 18.3892 27.2061 19.3934 26.8876C21.423 26.2441 23.0143 24.6912 23.6737 22.7105C24 21.7305 24 20.5195 24 18.0976C24 15.6757 24 14.4648 23.6737 13.4847C23.0405 11.5827 21.548 10.0752 19.6332 9.38857C19.655 9.30836 19.6667 9.22408 19.6667 9.13715V7.68798C19.6667 3.55583 16.2342 0.206055 12 0.206055ZM14.6667 8.98919C15.9537 8.98919 16.907 8.98919 17.6667 9.0336V7.68798C17.6667 4.63378 15.1296 2.15786 12 2.15786C8.87039 2.15786 6.33333 4.63378 6.33333 7.68798V9.0336C7.09298 8.98919 8.04628 8.98919 9.33333 8.98919H14.6667ZM8.33333 18.0976C8.33333 16.1214 9.97496 14.5193 12 14.5193C14.025 14.5193 15.6667 16.1214 15.6667 18.0976C15.6667 20.0739 14.025 21.6759 12 21.6759C9.97496 21.6759 8.33333 20.0739 8.33333 18.0976Z" fill="#3A63ED"/>
</svg>
