<svg width="42" height="48" viewBox="0 0 42 48" fill="none" xmlns="http://www.w3.org/2000/svg">
<path d="M39.7296 21.2182H35.7501V8.24022C35.7501 4.14404 32.3967 0.824219 28.2592 0.824219H13.7455C9.60797 0.824219 6.25462 4.14404 6.25462 8.24022V21.2182H2.27507C1.23922 21.2182 0.402344 22.0467 0.402344 23.0722V45.3202C0.402344 46.3457 1.23922 47.1742 2.27507 47.1742H39.7296C40.7655 47.1742 41.6023 46.3457 41.6023 45.3202V23.0722C41.6023 22.0467 40.7655 21.2182 39.7296 21.2182ZM10.4683 8.24022C10.4683 6.44995 11.9372 4.99572 13.7455 4.99572H28.2592C30.0675 4.99572 31.5364 6.44995 31.5364 8.24022V21.2182H10.4683V8.24022ZM37.3887 43.0027H4.61598V25.3897H37.3887V43.0027ZM19.3637 34.9494V38.0201C19.3637 38.275 19.5744 38.4836 19.8319 38.4836H22.1728C22.4303 38.4836 22.641 38.275 22.641 38.0201V34.9494C23.1241 34.606 23.4846 34.1198 23.6708 33.5606C23.857 33.0015 23.8591 32.3982 23.6769 31.8378C23.4948 31.2773 23.1377 30.7886 22.657 30.4418C22.1764 30.0951 21.597 29.9083 21.0023 29.9083C20.4076 29.9083 19.8283 30.0951 19.3477 30.4418C18.867 30.7886 18.5099 31.2773 18.3277 31.8378C18.1456 32.3982 18.1477 33.0015 18.3339 33.5606C18.52 34.1198 18.8806 34.606 19.3637 34.9494Z" fill="#3A63ED"/>
</svg>
