<svg width="106" height="26" viewBox="0 0 106 26" fill="none" xmlns="http://www.w3.org/2000/svg">
<path d="M43.1953 21.5995L49.0603 8.33005H51.0223L56.8873 21.5995H55.1549L53.4643 17.751H46.6183L44.9277 21.5995H43.1953ZM47.2236 16.3679H52.859L50.0413 9.89353L47.2236 16.3679Z" fill="white"/>
<path d="M62.7129 21.7599C61.6971 21.7599 60.8066 21.5327 60.0413 21.0784C59.2899 20.6107 58.7055 19.9826 58.288 19.1942C57.8706 18.4058 57.6619 17.5372 57.6619 16.5884C57.6619 15.6263 57.8706 14.7577 58.288 13.9826C58.7055 13.1942 59.2899 12.5728 60.0413 12.1185C60.8066 11.6508 61.6971 11.4169 62.7129 11.4169C63.5756 11.4169 64.3131 11.5773 64.9253 11.898C65.5515 12.2187 66.0594 12.653 66.449 13.2009V7.56836H68.0144V21.5995H66.449V19.996C66.0594 20.5305 65.5515 20.9581 64.9253 21.2788C64.3131 21.5995 63.5756 21.7599 62.7129 21.7599ZM62.9216 20.3969C63.7008 20.3969 64.3548 20.2231 64.8836 19.8757C65.4262 19.5283 65.8367 19.0672 66.115 18.4926C66.3933 17.9047 66.5324 17.2699 66.5324 16.5884C66.5324 15.8935 66.3933 15.2588 66.115 14.6842C65.8367 14.1096 65.4262 13.6485 64.8836 13.3011C64.3548 12.9537 63.7008 12.7799 62.9216 12.7799C62.1563 12.7799 61.4953 12.9537 60.9388 13.3011C60.3822 13.6485 59.9578 14.1096 59.6656 14.6842C59.3734 15.2588 59.2273 15.8935 59.2273 16.5884C59.2273 17.2699 59.3734 17.9047 59.6656 18.4926C59.9578 19.0672 60.3822 19.5283 60.9388 19.8757C61.4953 20.2231 62.1563 20.3969 62.9216 20.3969Z" fill="white"/>
<path d="M71.056 21.5995V8.33005H77.2758C78.7508 8.33005 79.9126 8.71758 80.7614 9.49264C81.6102 10.2543 82.0346 11.29 82.0346 12.5995C82.0346 13.9091 81.6102 14.9514 80.7614 15.7265C79.9126 16.4882 78.7508 16.869 77.2758 16.869H72.6214V21.5995H71.056ZM72.6214 15.4659H77.1714C78.2568 15.4659 79.0777 15.212 79.6343 14.7042C80.1909 14.1964 80.4692 13.4949 80.4692 12.5995C80.4692 11.7176 80.1909 11.0227 79.6343 10.5149C79.0777 10.0071 78.2568 9.75321 77.1714 9.75321H72.6214V15.4659Z" fill="white"/>
<path d="M88.2321 21.7599C87.2163 21.7599 86.3258 21.5327 85.5605 21.0784C84.8091 20.6107 84.2247 19.9826 83.8073 19.1942C83.3898 18.4058 83.1811 17.5372 83.1811 16.5884C83.1811 15.6263 83.3898 14.7577 83.8073 13.9826C84.2247 13.1942 84.8091 12.5728 85.5605 12.1185C86.3258 11.6508 87.2163 11.4169 88.2321 11.4169C89.0948 11.4169 89.8323 11.5773 90.4445 11.898C91.0707 12.2187 91.5786 12.653 91.9682 13.2009V11.5773H93.5336V21.5995H91.9682V19.996C91.5786 20.5305 91.0707 20.9581 90.4445 21.2788C89.8323 21.5995 89.0948 21.7599 88.2321 21.7599ZM88.4408 20.3969C89.2201 20.3969 89.874 20.2231 90.4028 19.8757C90.9455 19.5283 91.3559 19.0672 91.6342 18.4926C91.9125 17.9047 92.0517 17.2699 92.0517 16.5884C92.0517 15.8935 91.9125 15.2588 91.6342 14.6842C91.3559 14.1096 90.9455 13.6485 90.4028 13.3011C89.874 12.9537 89.2201 12.7799 88.4408 12.7799C87.6755 12.7799 87.0146 12.9537 86.458 13.3011C85.9014 13.6485 85.477 14.1096 85.1848 14.6842C84.8926 15.2588 84.7465 15.8935 84.7465 16.5884C84.7465 17.2699 84.8926 17.9047 85.1848 18.4926C85.477 19.0672 85.9014 19.5283 86.458 19.8757C87.0146 20.2231 87.6755 20.3969 88.4408 20.3969Z" fill="white"/>
<path d="M97.3266 25.5684L99.2259 21.4592L94.968 11.5773H96.7004L100.061 19.7955L103.484 11.5773H105.195L99.0172 25.5684H97.3266Z" fill="white"/>
<path d="M14.0044 0.365234L15.2939 3.33752L2.88358 24.712H0.210938L14.0044 0.365234Z" fill="white"/>
<path d="M13.7197 10.0117L15.4062 12.2894L8.75242 23.9341L5.95703 23.5972L13.7197 10.0117Z" fill="#3A63ED"/>
<path d="M19.9617 19.051L17.9444 16.6836L15.3367 16.6719L13.6523 19.051H19.9617Z" fill="white"/>
<path d="M26.9065 22.2328L23.4585 21.7309L12.7344 3.37165L14.0049 0.366211L26.9065 22.2328Z" fill="white"/>
<path d="M27.6796 20.0011L29.082 16.9229L19.7716 0.219765L16.6582 0L27.6796 20.0011Z" fill="#3A63ED"/>
<path d="M25.4743 24.8084L24.3689 22.4989L12.1777 22.3691L13.9251 24.8084H25.4743Z" fill="white"/>
<path d="M26.9365 22.2501L24.1055 20.5986L22.6421 23.1596L25.4731 24.8111L26.9365 22.2501Z" fill="white"/>
</svg>
