<svg width="107" height="41" viewBox="0 0 107 41" fill="none" xmlns="http://www.w3.org/2000/svg">
<path d="M15.8857 4.66406L17.1821 7.62121L4.70633 28.8868L2.01961 28.8868L15.8857 4.66406Z" fill="#111825"/>
<path d="M15.6025 14.2617L17.2979 16.5278L10.609 28.1132L7.79891 27.778L15.6025 14.2617Z" fill="#3A63ED"/>
<path d="M21.999 22.8877L20.0806 20.8976L17.6008 20.8877L15.999 22.8877L21.999 22.8877Z" fill="#111825"/>
<path d="M28.8564 26.4199L25.3903 25.9205L14.6096 7.65491L15.8869 4.66476L28.8564 26.4199Z" fill="#111825"/>
<path d="M29.6338 24.2002L31.0435 21.1377L21.6841 4.5197L18.5543 4.30105L29.6338 24.2002Z" fill="#3A63ED"/>
<path d="M26.999 28.8876L26.0014 26.0472L14.999 25.8877L16.576 28.8877L26.999 28.8876Z" fill="#111825"/>
<path d="M26.042 24.7939L28.8879 26.437L27.4168 28.985L24.5709 27.3419L26.042 24.7939Z" fill="#111825"/>
<path d="M44.999 25.9189L50.864 12.6494H52.826L58.691 25.9189H56.9587L55.268 22.0703H48.422L46.7314 25.9189H44.999ZM49.0273 20.6872H54.6627L51.845 14.2129L49.0273 20.6872Z" fill="#111825"/>
<path d="M64.5166 26.0792C63.5008 26.0792 62.6103 25.8521 61.845 25.3977C61.0936 24.93 60.5092 24.3019 60.0917 23.5135C59.6743 22.7251 59.4656 21.8565 59.4656 20.9077C59.4656 19.9456 59.6743 19.077 60.0917 18.3019C60.5092 17.5135 61.0936 16.8921 61.845 16.4378C62.6103 15.9701 63.5008 15.7362 64.5166 15.7362C65.3793 15.7362 66.1168 15.8966 66.729 16.2173C67.3552 16.538 67.8631 16.9723 68.2527 17.5202V11.8877H69.8181V25.9189H68.2527V24.3153C67.8631 24.8498 67.3552 25.2775 66.729 25.5982C66.1168 25.9189 65.3793 26.0792 64.5166 26.0792ZM64.7253 24.7162C65.5045 24.7162 66.1585 24.5425 66.6873 24.195C67.2299 23.8476 67.6404 23.3866 67.9187 22.812C68.197 22.224 68.3362 21.5893 68.3362 20.9077C68.3362 20.2129 68.197 19.5781 67.9187 19.0035C67.6404 18.4289 67.2299 17.9679 66.6873 17.6204C66.1585 17.273 65.5045 17.0993 64.7253 17.0993C63.96 17.0993 63.2991 17.273 62.7425 17.6204C62.1859 17.9679 61.7615 18.4289 61.4693 19.0035C61.1771 19.5781 61.031 20.2129 61.031 20.9077C61.031 21.5893 61.1771 22.224 61.4693 22.812C61.7615 23.3866 62.1859 23.8476 62.7425 24.195C63.2991 24.5425 63.96 24.7162 64.7253 24.7162Z" fill="#111825"/>
<path d="M72.8597 25.9189V12.6494H79.0795C80.5545 12.6494 81.7163 13.0369 82.5651 13.812C83.4139 14.5737 83.8383 15.6093 83.8383 16.9189C83.8383 18.2285 83.4139 19.2708 82.5651 20.0458C81.7163 20.8075 80.5545 21.1884 79.0795 21.1884H74.4251V25.9189H72.8597ZM74.4251 19.7852H78.9752C80.0605 19.7852 80.8815 19.5313 81.438 19.0236C81.9946 18.5158 82.2729 17.8142 82.2729 16.9189C82.2729 16.0369 81.9946 15.342 81.438 14.8342C80.8815 14.3264 80.0605 14.0726 78.9752 14.0726H74.4251V19.7852Z" fill="#111825"/>
<path d="M90.0358 26.0792C89.0201 26.0792 88.1295 25.8521 87.3642 25.3977C86.6128 24.93 86.0284 24.3019 85.611 23.5135C85.1935 22.7251 84.9848 21.8565 84.9848 20.9077C84.9848 19.9456 85.1935 19.077 85.611 18.3019C86.0284 17.5135 86.6128 16.8921 87.3642 16.4378C88.1295 15.9701 89.0201 15.7362 90.0358 15.7362C90.8985 15.7362 91.636 15.8966 92.2482 16.2173C92.8744 16.538 93.3823 16.9723 93.7719 17.5202V15.8966H95.3373V25.9189H93.7719V24.3153C93.3823 24.8498 92.8744 25.2775 92.2482 25.5982C91.636 25.9189 90.8985 26.0792 90.0358 26.0792ZM90.2445 24.7162C91.0238 24.7162 91.6778 24.5425 92.2065 24.195C92.7492 23.8476 93.1597 23.3866 93.438 22.812C93.7162 22.224 93.8554 21.5893 93.8554 20.9077C93.8554 20.2129 93.7162 19.5781 93.438 19.0035C93.1597 18.4289 92.7492 17.9679 92.2065 17.6204C91.6778 17.273 91.0238 17.0993 90.2445 17.0993C89.4792 17.0993 88.8183 17.273 88.2617 17.6204C87.7051 17.9679 87.2807 18.4289 86.9885 19.0035C86.6963 19.5781 86.5502 20.2129 86.5502 20.9077C86.5502 21.5893 86.6963 22.224 86.9885 22.812C87.2807 23.3866 87.7051 23.8476 88.2617 24.195C88.8183 24.5425 89.4792 24.7162 90.2445 24.7162Z" fill="#111825"/>
<path d="M99.1303 29.8877L101.03 25.7786L96.7718 15.8966H98.5041L101.865 24.1149L105.288 15.8966H106.999L100.821 29.8877H99.1303Z" fill="#111825"/>
</svg>
