<svg width="147" height="36" viewBox="0 0 147 36" fill="none" xmlns="http://www.w3.org/2000/svg">
<path d="M60.1016 30.2004L68.3021 11.6468H71.0454L79.246 30.2004H76.8237L74.4599 24.8193H64.8877L62.5238 30.2004H60.1016ZM65.734 22.8855H73.6135L69.6738 13.8329L65.734 22.8855Z" fill="#C7C7C7"/>
<path d="M87.3914 30.4246C85.9711 30.4246 84.7259 30.107 83.6559 29.4717C82.6053 28.8178 81.7881 27.9396 81.2045 26.8372C80.6208 25.7349 80.329 24.5204 80.329 23.1938C80.329 21.8485 80.6208 20.634 81.2045 19.5503C81.7881 18.4479 82.6053 17.5791 83.6559 16.9438C84.7259 16.2899 85.9711 15.9629 87.3914 15.9629C88.5976 15.9629 89.6288 16.1871 90.4848 16.6355C91.3603 17.084 92.0705 17.6912 92.6152 18.4573V10.5818H94.804V30.2004H92.6152V27.9583C92.0705 28.7057 91.3603 29.3036 90.4848 29.752C89.6288 30.2004 88.5976 30.4246 87.3914 30.4246ZM87.6832 28.5188C88.7727 28.5188 89.6871 28.2759 90.4265 27.7901C91.1852 27.3043 91.7592 26.6597 92.1483 25.8563C92.5374 25.0342 92.732 24.1467 92.732 23.1938C92.732 22.2222 92.5374 21.3347 92.1483 20.5312C91.7592 19.7278 91.1852 19.0832 90.4265 18.5974C89.6871 18.1116 88.7727 17.8687 87.6832 17.8687C86.6131 17.8687 85.689 18.1116 84.9108 18.5974C84.1325 19.0832 83.5391 19.7278 83.1306 20.5312C82.722 21.3347 82.5177 22.2222 82.5177 23.1938C82.5177 24.1467 82.722 25.0342 83.1306 25.8563C83.5391 26.6597 84.1325 27.3043 84.9108 27.7901C85.689 28.2759 86.6131 28.5188 87.6832 28.5188Z" fill="#C7C7C7"/>
<path d="M99.0568 30.2004V11.6468H107.754C109.816 11.6468 111.44 12.1886 112.627 13.2723C113.814 14.3374 114.407 15.7854 114.407 17.6165C114.407 19.4475 113.814 20.9049 112.627 21.9886C111.44 23.0536 109.816 23.5861 107.754 23.5861H101.246V30.2004H99.0568ZM101.246 21.6243H107.608C109.125 21.6243 110.273 21.2693 111.051 20.5593C111.829 19.8493 112.219 18.8683 112.219 17.6165C112.219 16.3833 111.829 15.4117 111.051 14.7017C110.273 13.9917 109.125 13.6367 107.608 13.6367H101.246V21.6243Z" fill="#C7C7C7"/>
<path d="M123.073 30.4246C121.653 30.4246 120.407 30.107 119.337 29.4717C118.287 28.8178 117.47 27.9396 116.886 26.8372C116.302 25.7349 116.01 24.5204 116.01 23.1938C116.01 21.8485 116.302 20.634 116.886 19.5503C117.47 18.4479 118.287 17.5791 119.337 16.9438C120.407 16.2899 121.653 15.9629 123.073 15.9629C124.279 15.9629 125.31 16.1871 126.166 16.6355C127.042 17.084 127.752 17.6912 128.297 18.4573V16.1871H130.485V30.2004H128.297V27.9583C127.752 28.7057 127.042 29.3036 126.166 29.752C125.31 30.2004 124.279 30.4246 123.073 30.4246ZM123.365 28.5188C124.454 28.5188 125.369 28.2759 126.108 27.7901C126.867 27.3043 127.441 26.6597 127.83 25.8563C128.219 25.0342 128.413 24.1467 128.413 23.1938C128.413 22.2222 128.219 21.3347 127.83 20.5312C127.441 19.7278 126.867 19.0832 126.108 18.5974C125.369 18.1116 124.454 17.8687 123.365 17.8687C122.295 17.8687 121.37 18.1116 120.592 18.5974C119.814 19.0832 119.221 19.7278 118.812 20.5312C118.403 21.3347 118.199 22.2222 118.199 23.1938C118.199 24.1467 118.403 25.0342 118.812 25.8563C119.221 26.6597 119.814 27.3043 120.592 27.7901C121.37 28.2759 122.295 28.5188 123.365 28.5188Z" fill="#C7C7C7"/>
<path d="M135.789 35.7497L138.445 30.0042L132.491 16.1871H134.913L139.612 27.678L144.398 16.1871H146.791L138.153 35.7497H135.789Z" fill="#C7C7C7"/>
<path d="M19.2862 0.51123L21.0892 4.66714L3.73694 34.5533H0L19.2862 0.51123Z" fill="#C7C7C7"/>
<path d="M18.8883 13.9993L21.2462 17.1839L11.9429 33.4659L8.0343 32.9947L18.8883 13.9993Z" fill="#3A63ED"/>
<path d="M27.616 26.6369L24.7953 23.3267L21.1492 23.3103L18.7941 26.6369H27.616Z" fill="#C7C7C7"/>
<path d="M37.3262 31.0862L32.5051 30.3844L17.5105 4.71422L19.287 0.511963L37.3262 31.0862Z" fill="#C7C7C7"/>
<path d="M38.4072 27.9659L40.368 23.6619L27.3501 0.307279L22.9968 0L38.4072 27.9659Z" fill="#3A63ED"/>
<path d="M35.3237 34.688L33.7782 31.4588L16.7322 31.2773L19.1754 34.688H35.3237Z" fill="#C7C7C7"/>
<path d="M37.3681 31.1104L33.4098 28.8013L31.3637 32.3821L35.3221 34.6913L37.3681 31.1104Z" fill="#C7C7C7"/>
</svg>
