<svg width="147" height="36" viewBox="0 0 147 36" fill="none" xmlns="http://www.w3.org/2000/svg">
<path d="M60.1016 30.2005L68.3021 11.6469H71.0454L79.246 30.2005H76.8237L74.4599 24.8194H64.8877L62.5238 30.2005H60.1016ZM65.734 22.8855H73.6135L69.6738 13.8329L65.734 22.8855Z" fill="#3D424F"/>
<path d="M87.3914 30.4247C85.9711 30.4247 84.7259 30.1071 83.6559 29.4718C82.6053 28.8178 81.7881 27.9397 81.2045 26.8373C80.6208 25.7349 80.329 24.5204 80.329 23.1938C80.329 21.8486 80.6208 20.6341 81.2045 19.5504C81.7881 18.448 82.6053 17.5792 83.6559 16.9439C84.7259 16.2899 85.9711 15.963 87.3914 15.963C88.5976 15.963 89.6288 16.1872 90.4848 16.6356C91.3603 17.084 92.0705 17.6913 92.6152 18.4573V10.5818H94.804V30.2005H92.6152V27.9584C92.0705 28.7057 91.3603 29.3036 90.4848 29.7521C89.6288 30.2005 88.5976 30.4247 87.3914 30.4247ZM87.6832 28.5189C88.7727 28.5189 89.6871 28.276 90.4265 27.7902C91.1852 27.3044 91.7592 26.6598 92.1483 25.8564C92.5374 25.0342 92.732 24.1467 92.732 23.1938C92.732 22.2222 92.5374 21.3347 92.1483 20.5313C91.7592 19.7279 91.1852 19.0833 90.4265 18.5975C89.6871 18.1117 88.7727 17.8688 87.6832 17.8688C86.6131 17.8688 85.689 18.1117 84.9108 18.5975C84.1325 19.0833 83.5391 19.7279 83.1306 20.5313C82.722 21.3347 82.5177 22.2222 82.5177 23.1938C82.5177 24.1467 82.722 25.0342 83.1306 25.8564C83.5391 26.6598 84.1325 27.3044 84.9108 27.7902C85.689 28.276 86.6131 28.5189 87.6832 28.5189Z" fill="#3D424F"/>
<path d="M99.0568 30.2005V11.6469H107.754C109.816 11.6469 111.44 12.1887 112.627 13.2724C113.814 14.3374 114.407 15.7855 114.407 17.6165C114.407 19.4476 113.814 20.905 112.627 21.9887C111.44 23.0537 109.816 23.5862 107.754 23.5862H101.246V30.2005H99.0568ZM101.246 21.6243H107.608C109.125 21.6243 110.273 21.2693 111.051 20.5593C111.829 19.8493 112.219 18.8684 112.219 17.6165C112.219 16.3834 111.829 15.4118 111.051 14.7018C110.273 13.9918 109.125 13.6368 107.608 13.6368H101.246V21.6243Z" fill="#3D424F"/>
<path d="M123.073 30.4247C121.653 30.4247 120.407 30.1071 119.337 29.4718C118.287 28.8178 117.47 27.9397 116.886 26.8373C116.302 25.7349 116.01 24.5204 116.01 23.1938C116.01 21.8486 116.302 20.6341 116.886 19.5504C117.47 18.448 118.287 17.5792 119.337 16.9439C120.407 16.2899 121.653 15.963 123.073 15.963C124.279 15.963 125.31 16.1872 126.166 16.6356C127.042 17.084 127.752 17.6913 128.297 18.4573V16.1872H130.485V30.2005H128.297V27.9584C127.752 28.7057 127.042 29.3036 126.166 29.7521C125.31 30.2005 124.279 30.4247 123.073 30.4247ZM123.365 28.5189C124.454 28.5189 125.369 28.276 126.108 27.7902C126.867 27.3044 127.441 26.6598 127.83 25.8564C128.219 25.0342 128.413 24.1467 128.413 23.1938C128.413 22.2222 128.219 21.3347 127.83 20.5313C127.441 19.7279 126.867 19.0833 126.108 18.5975C125.369 18.1117 124.454 17.8688 123.365 17.8688C122.295 17.8688 121.37 18.1117 120.592 18.5975C119.814 19.0833 119.221 19.7279 118.812 20.5313C118.403 21.3347 118.199 22.2222 118.199 23.1938C118.199 24.1467 118.403 25.0342 118.812 25.8564C119.221 26.6598 119.814 27.3044 120.592 27.7902C121.37 28.276 122.295 28.5189 123.365 28.5189Z" fill="#3D424F"/>
<path d="M135.789 35.7498L138.445 30.0043L132.491 16.1872H134.913L139.612 27.6781L144.398 16.1872H146.791L138.153 35.7498H135.789Z" fill="#3D424F"/>
<path d="M19.2862 0.511353L21.0892 4.66726L3.73694 34.5534H0L19.2862 0.511353Z" fill="#3D424F"/>
<path d="M18.8881 13.9992L21.2461 17.1839L11.9427 33.4658L8.03418 32.9946L18.8881 13.9992Z" fill="#3A63ED"/>
<path d="M27.6159 26.6367L24.7951 23.3266L21.149 23.3102L18.7939 26.6367H27.6159Z" fill="#3D424F"/>
<path d="M37.3259 31.0863L32.5049 30.3845L17.5103 4.71428L19.2868 0.512024L37.3259 31.0863Z" fill="#3D424F"/>
<path d="M38.4075 27.9659L40.3683 23.6619L27.3503 0.307279L22.9971 0L38.4075 27.9659Z" fill="#3A63ED"/>
<path d="M35.3239 34.6879L33.7784 31.4586L16.7324 31.2772L19.1756 34.6879H35.3239Z" fill="#3D424F"/>
<path d="M37.368 31.1105L33.4097 28.8013L31.3636 32.3822L35.3219 34.6913L37.368 31.1105Z" fill="#3D424F"/>
</svg>
