<svg width="35" height="35" viewBox="0 0 35 35" fill="none" xmlns="http://www.w3.org/2000/svg">
<rect x="0.5" y="0.5" width="34" height="34" rx="7.5" stroke="white"/>
<path fill-rule="evenodd" clip-rule="evenodd" d="M21.4428 23.2893H14.4434V10.7102H21.443L21.4428 23.2893Z" fill="white"/>
<path fill-rule="evenodd" clip-rule="evenodd" d="M14.8873 17C14.8873 14.4484 16.0821 12.1753 17.9425 10.7105C16.5345 9.60025 14.792 8.99732 12.999 9.00001C8.58117 9.00001 5 12.5817 5 17C5 21.4183 8.58117 25 12.999 25C14.792 25.0027 16.5346 24.3997 17.9426 23.2895C16.0823 21.8249 14.8873 19.5518 14.8873 17Z" fill="white"/>
<path fill-rule="evenodd" clip-rule="evenodd" d="M30.8866 17C30.8866 21.4183 27.3054 25 22.8876 25C21.0944 25.0026 19.3517 24.3997 17.9434 23.2895C19.8043 21.8247 20.9991 19.5518 20.9991 17C20.9991 14.4482 19.8043 12.1753 17.9434 10.7105C19.3516 9.60025 21.0943 8.99741 22.8875 9.00001C27.3053 9.00001 30.8865 12.5817 30.8865 17" fill="white"/>
</svg>
