<svg width="66" height="51" viewBox="0 0 66 51" fill="none" xmlns="http://www.w3.org/2000/svg">
<path fill-rule="evenodd" clip-rule="evenodd" d="M64.2543 50.3033V50.4341H64.3765C64.3994 50.4346 64.4221 50.4288 64.4421 50.4176C64.4583 50.4061 64.4676 50.3872 64.4665 50.3674C64.4674 50.3479 64.4583 50.3294 64.4421 50.3186C64.4224 50.3067 64.3996 50.3009 64.3765 50.3018H64.2543V50.3033ZM64.3777 50.2104C64.4302 50.2072 64.4821 50.2223 64.5246 50.2531C64.5592 50.2814 64.5783 50.3245 64.5762 50.3691C64.5777 50.4074 64.5626 50.4446 64.5348 50.4709C64.502 50.4994 64.4608 50.5166 64.4175 50.5198L64.5813 50.7065H64.4551L64.3044 50.5211H64.2556V50.7065H64.15V50.2108H64.3794L64.3777 50.2104ZM64.345 50.8776C64.4005 50.8782 64.4553 50.867 64.5061 50.8449C64.5549 50.8238 64.5993 50.7937 64.6372 50.7561C64.6748 50.7184 64.705 50.674 64.726 50.625C64.7689 50.5211 64.7689 50.4044 64.726 50.3005C64.7047 50.2516 64.6746 50.2072 64.6372 50.1694C64.5993 50.1318 64.5549 50.1016 64.5061 50.0806C64.4549 50.0598 64.4003 50.0491 64.345 50.0498C64.2889 50.0494 64.2332 50.0598 64.1812 50.0806C64.1313 50.1012 64.0856 50.1314 64.0471 50.1694C63.9288 50.2907 63.8943 50.472 63.9596 50.6284C63.9796 50.6774 64.0093 50.7221 64.0471 50.7595C64.0858 50.7973 64.1313 50.8274 64.1812 50.8483C64.233 50.8704 64.2887 50.8814 64.345 50.881V50.8776ZM64.345 49.9306C64.4891 49.9304 64.6274 49.9869 64.7302 50.0878C64.7797 50.1363 64.8191 50.194 64.8463 50.258C64.9028 50.3902 64.9028 50.5402 64.8463 50.6726C64.8184 50.7359 64.7791 50.7937 64.7302 50.8425C64.6799 50.8908 64.6214 50.9296 64.5575 50.9573C64.4903 50.9857 64.4181 51.0004 64.345 51C64.2713 51.0004 64.1982 50.986 64.13 50.9573C64.0654 50.9303 64.0063 50.8914 63.956 50.8425C63.9071 50.792 63.8682 50.7323 63.8417 50.667C63.7851 50.5347 63.7851 50.3846 63.8417 50.2523C63.8686 50.1885 63.9082 50.1307 63.9577 50.0823C64.0074 50.0326 64.0665 49.9937 64.1317 49.9675C64.1997 49.9389 64.273 49.9244 64.3467 49.9251L64.345 49.9306ZM14.1631 48.0155C14.1631 47.0702 14.7826 46.2934 15.7949 46.2934C16.7623 46.2934 17.4152 47.0366 17.4152 48.0155C17.4152 48.9946 16.7623 49.7379 15.7949 49.7379C14.7826 49.7379 14.1631 48.961 14.1631 48.0155ZM18.518 48.0155V45.3249H17.3483V45.9804C16.9773 45.496 16.4147 45.1923 15.6493 45.1923C14.1418 45.1923 12.9587 46.3748 12.9587 48.017C12.9587 49.6592 14.1412 50.8417 15.6493 50.8417C16.4143 50.8417 16.9773 50.5374 17.3483 50.0534V50.7065H18.5167V48.0155H18.518ZM58.0395 48.0155C58.0395 47.0702 58.6589 46.2934 59.6716 46.2934C60.64 46.2934 61.2919 47.0366 61.2919 48.0155C61.2919 48.9946 60.64 49.7379 59.6716 49.7379C58.6593 49.7379 58.0395 48.961 58.0395 48.0155ZM62.3957 48.0155V43.1653H61.225V45.9804C60.854 45.496 60.2914 45.1923 59.5262 45.1923C58.0185 45.1923 56.8354 46.3748 56.8354 48.017C56.8354 49.6592 58.0179 50.8417 59.5262 50.8417C60.2914 50.8417 60.854 50.5374 61.225 50.0534V50.7065H62.3957V48.0155ZM33.0351 46.2379C33.7888 46.2379 34.273 46.7107 34.3965 47.5427H31.6056C31.7305 46.7659 32.202 46.2379 33.0353 46.2379H33.0351ZM33.0587 45.1893C31.4823 45.1893 30.3796 46.3363 30.3796 48.014C30.3796 49.7245 31.5265 50.8387 33.1371 50.8387C33.9471 50.8387 34.6893 50.6364 35.342 50.0848L34.7687 49.2181C34.3179 49.5785 33.7437 49.7808 33.2038 49.7808C32.4502 49.7808 31.7639 49.4317 31.5952 48.4632H35.5891C35.6006 48.3179 35.6123 48.171 35.6123 48.0136C35.6006 46.3367 34.5637 45.1889 33.0581 45.1889L33.0587 45.1893ZM47.18 48.0136C47.18 47.0681 47.7994 46.2915 48.8116 46.2915C49.7792 46.2915 50.432 47.0347 50.432 48.0136C50.432 48.9925 49.7792 49.7359 48.8116 49.7359C47.7994 49.7359 47.1796 48.9591 47.1796 48.0136H47.18ZM51.5345 48.0136V45.3249H50.3655V45.9804C49.9932 45.496 49.4318 45.1923 48.6665 45.1923C47.159 45.1923 45.9759 46.3748 45.9759 48.017C45.9759 49.6592 47.1583 50.8417 48.6665 50.8417C49.4318 50.8417 49.9932 50.5374 50.3655 50.0534V50.7065H51.5347V48.0155L51.5345 48.0136ZM40.5745 48.0136C40.5745 49.6454 41.7104 50.8383 43.4442 50.8383C44.2542 50.8383 44.7941 50.6581 45.3778 50.197L44.816 49.2515C44.3768 49.567 43.9157 49.7359 43.4068 49.7359C42.473 49.7245 41.7865 49.0492 41.7865 48.0136C41.7865 46.978 42.473 46.3032 43.4068 46.2915C43.9144 46.2915 44.3755 46.4602 44.816 46.7757L45.3778 45.8304C44.793 45.3691 44.2533 45.1889 43.4442 45.1889C41.7104 45.1889 40.5745 46.3816 40.5745 48.0136ZM55.6534 45.1889C54.9786 45.1889 54.5392 45.5044 54.2353 45.9772V45.3249H53.076V50.7036H54.247V47.6885C54.247 46.7984 54.6295 46.3038 55.3942 46.3038C55.6445 46.3002 55.8931 46.3463 56.1255 46.4391L56.4861 45.3368C56.2273 45.2348 55.8897 45.19 55.6528 45.19L55.6534 45.1889ZM24.3008 45.7526C23.7382 45.3816 22.9626 45.19 22.1074 45.19C20.7446 45.19 19.8672 45.8431 19.8672 46.9119C19.8672 47.7888 20.5204 48.33 21.7232 48.4987L22.2757 48.5773C22.9171 48.6674 23.2199 48.8363 23.2199 49.1399C23.2199 49.556 22.7939 49.7933 21.9939 49.7933C21.1838 49.7933 20.599 49.5343 20.2049 49.2305L19.6552 50.1426C20.2967 50.6152 21.1068 50.8406 21.9842 50.8406C23.5376 50.8406 24.4379 50.1091 24.4379 49.0849C24.4379 48.1394 23.7292 47.645 22.5587 47.4762L22.0073 47.3961C21.501 47.3307 21.0954 47.2287 21.0954 46.8681C21.0954 46.4751 21.4778 46.2383 22.1195 46.2383C22.806 46.2383 23.4707 46.4971 23.7964 46.6994L24.3027 45.7539L24.3008 45.7526ZM39.3931 45.1908C38.7183 45.1908 38.2789 45.5066 37.9763 45.9791V45.3249H36.817V50.7036H37.9867V47.6885C37.9867 46.7984 38.3692 46.3038 39.1339 46.3038C39.3842 46.3002 39.6328 46.3463 39.8652 46.4391L40.2258 45.3368C39.967 45.2348 39.6294 45.19 39.3925 45.19L39.3931 45.1908ZM29.4117 45.3249H27.499V43.6933H26.3166V45.3249H25.2257V46.3941H26.3166V48.8478C26.3166 50.0957 26.801 50.8389 28.1847 50.8389C28.6923 50.8389 29.277 50.6817 29.648 50.4231L29.3102 49.4215C28.9611 49.6238 28.5786 49.7258 28.2746 49.7258C27.6898 49.7258 27.499 49.3652 27.499 48.8255V46.3949H29.4117V45.3249ZM11.9244 50.7051V47.3294C11.9244 46.0582 11.1142 45.2027 9.80832 45.1913C9.1216 45.1798 8.41341 45.3935 7.9177 46.1483C7.54671 45.5518 6.96197 45.1913 6.14011 45.1913C5.56557 45.1913 5.0042 45.36 4.56458 45.99V45.3249H3.39404V50.7036H4.57372V47.7212C4.57372 46.7876 5.09153 46.2915 5.8913 46.2915C6.6679 46.2915 7.06099 46.7978 7.06099 47.7095V50.7029H8.24342V47.7206C8.24342 46.787 8.78312 46.2908 9.55951 46.2908C10.3582 46.2908 10.7394 46.7972 10.7394 47.7089V50.7023L11.9244 50.7051Z" fill="white"/>
<path fill-rule="evenodd" clip-rule="evenodd" d="M64.9211 32.813V32.0264H64.7163L64.4794 32.5661L64.2438 32.0264H64.0383V32.813H64.1836V32.2204L64.4052 32.7316H64.5561L64.7775 32.2191V32.813H64.9218H64.9211ZM63.6216 32.813V32.1611H63.8838V32.0283H63.2139V32.1611H63.4761V32.813H63.6216Z" fill="#B6B6B6"/>
<path fill-rule="evenodd" clip-rule="evenodd" d="M41.6403 36.1863H23.9148V4.33093H41.6408L41.6403 36.1863Z" fill="#FF5F00"/>
<path fill-rule="evenodd" clip-rule="evenodd" d="M25.0386 20.2594C25.0386 13.7975 28.0643 8.04125 32.7756 4.3316C29.21 1.52009 24.7974 -0.00677668 20.2568 2.26105e-05C9.06898 2.26105e-05 0 9.07028 0 20.2594C0 31.4482 9.06898 40.5185 20.2568 40.5185C24.7974 40.5253 29.2102 38.9984 32.776 36.1869C28.0649 32.4779 25.0386 26.7215 25.0386 20.2594Z" fill="#EB001B"/>
<path fill-rule="evenodd" clip-rule="evenodd" d="M65.5543 20.2594C65.5543 31.4482 56.4853 40.5185 45.2978 40.5185C40.7565 40.5251 36.3433 38.9984 32.7769 36.1869C37.4896 32.4773 40.5153 26.7215 40.5153 20.2594C40.5153 13.7971 37.4896 8.04125 32.7769 4.33159C36.3431 1.52009 40.7562 -0.00656559 45.2973 2.12252e-05C56.4851 2.12252e-05 65.5541 9.07028 65.5541 20.2594" fill="#F79E1B"/>
</svg>
