<svg width="27" height="27" viewBox="0 0 27 27" fill="none" xmlns="http://www.w3.org/2000/svg">
<rect x="0.5" y="0.5" width="26" height="26" rx="7.5" stroke="#6E7191"/>
<path fill-rule="evenodd" clip-rule="evenodd" d="M16.5412 17.9661H11.1416V8.26221H16.5413L16.5412 17.9661Z" fill="#9DA0BA"/>
<path fill-rule="evenodd" clip-rule="evenodd" d="M11.4838 13.1143C11.4838 11.1459 12.4055 9.39242 13.8406 8.26237C12.7545 7.40592 11.4103 6.94081 10.0271 6.94288C6.61906 6.94288 3.85645 9.70588 3.85645 13.1143C3.85645 16.5227 6.61906 19.2857 10.0271 19.2857C11.4103 19.2878 12.7545 18.8227 13.8408 17.9662C12.4057 16.8364 11.4838 15.0828 11.4838 13.1143Z" fill="#6E7191"/>
<path fill-rule="evenodd" clip-rule="evenodd" d="M23.8266 13.1143C23.8266 16.5227 21.0639 19.2857 17.6559 19.2857C16.2726 19.2877 14.9282 18.8227 13.8418 17.9662C15.2774 16.8362 16.1991 15.0828 16.1991 13.1143C16.1991 11.1458 15.2774 9.39242 13.8418 8.26237C14.9282 7.40592 16.2725 6.94087 17.6558 6.94288C21.0639 6.94288 23.8265 9.70588 23.8265 13.1143" fill="#6E7191"/>
</svg>
