<svg width="35" height="35" viewBox="0 0 35 35" fill="none" xmlns="http://www.w3.org/2000/svg">
<rect x="0.5" y="0.5" width="34" height="34" rx="7.5" stroke="white"/>
<path fill-rule="evenodd" clip-rule="evenodd" d="M20.3599 27.6101H14.6729V17.3896H20.3601L20.3599 27.6101Z" fill="#D9D9D9"/>
<path fill-rule="evenodd" clip-rule="evenodd" d="M15.0334 22.5C15.0334 20.4268 16.0042 18.58 17.5157 17.3898C16.3718 16.4877 14.956 15.9978 13.4992 16C9.9097 16 7 18.9101 7 22.5C7 26.0899 9.9097 29 13.4992 29C14.956 29.0022 16.3718 28.5123 17.5159 27.6102C16.0044 26.4202 15.0334 24.5733 15.0334 22.5Z" fill="white"/>
<path fill-rule="evenodd" clip-rule="evenodd" d="M28.033 22.5C28.033 26.0899 25.1233 29 21.5338 29C20.0768 29.0021 18.6609 28.5123 17.5166 27.6102C19.0286 26.42 19.9994 24.5733 19.9994 22.5C19.9994 20.4267 19.0286 18.58 17.5166 17.3898C18.6608 16.4877 20.0767 15.9979 21.5337 16C25.1232 16 28.0329 18.9101 28.0329 22.5" fill="white"/>
<path fill-rule="evenodd" clip-rule="evenodd" d="M20.1695 6.0453C19.1581 6.18422 18.3671 6.69848 18.03 7.43614C17.9159 7.68589 17.8786 7.82996 17.8603 8.09167C17.8313 8.50639 17.9127 8.82018 18.1299 9.13099C18.3623 9.46358 18.7022 9.73164 19.3158 10.0662C19.624 10.2343 19.9454 10.4423 20.03 10.5284C20.2864 10.7895 20.2924 11.0569 20.0473 11.3069C19.8499 11.5082 19.5974 11.5724 19.019 11.5682C18.4798 11.5642 18.1997 11.5021 17.6917 11.2741C17.5266 11.2 17.3865 11.1467 17.3802 11.1556C17.3661 11.1758 17.1493 12.5378 17.1493 12.6067C17.1493 12.6707 17.6023 12.8228 18.0309 12.9027C18.803 13.0466 19.5074 13.031 20.19 12.8549C20.3369 12.817 20.6235 12.6996 20.8269 12.5939C21.2998 12.3484 21.6091 12.0271 21.8229 11.5591C21.9602 11.2586 21.9765 11.1847 21.9904 10.799C22.0033 10.4389 21.9913 10.3301 21.9137 10.1052C21.842 9.89745 21.7572 9.76977 21.5297 9.52673C21.2786 9.25844 21.1445 9.16285 20.5695 8.84253C19.8762 8.45635 19.6146 8.23299 19.6149 8.02754C19.6152 7.85734 19.7621 7.65567 19.9621 7.55097C20.2006 7.42609 20.7048 7.38534 21.1281 7.45667C21.2938 7.48458 21.5604 7.55697 21.7206 7.6175C21.8808 7.67802 22.0188 7.72011 22.0271 7.711C22.0459 7.69069 22.2436 6.44521 22.2441 6.34385C22.2444 6.29038 22.1596 6.24626 21.9261 6.17848C21.5736 6.07614 20.9793 5.99241 20.6626 6.00055C20.5496 6.00344 20.3277 6.02357 20.1695 6.0453ZM7 6.14089C7 6.17711 7.08247 6.22208 7.20508 6.2527C7.53853 6.33594 8.18423 6.6096 8.59727 6.84273C9.13613 7.14688 9.5723 7.49906 9.99208 7.96906C10.3871 8.41124 10.5313 8.62077 10.779 9.1121C10.8694 9.29168 10.9438 9.42074 10.9441 9.39887C10.9444 9.37701 10.823 8.72707 10.6742 7.95457C10.5254 7.18207 10.3728 6.49214 10.3352 6.42139C10.2975 6.3506 10.2145 6.25061 10.1507 6.19919C10.0385 6.10862 9.98633 6.10525 8.51739 6.09298C7.2578 6.08245 7 6.09058 7 6.14089ZM12.9051 6.18342C12.8938 6.21399 12.5302 7.21771 12.0971 8.41395C11.6641 9.61019 11.2942 10.619 11.2752 10.6557C11.2508 10.7029 11.2151 10.6251 11.1541 10.3917C11.0427 9.96575 10.9045 9.66996 10.597 9.19956C10.2833 8.71947 9.54872 7.91227 9.10042 7.55488C8.91099 7.40383 8.74815 7.28877 8.73858 7.29913C8.729 7.30948 9.05966 8.56989 9.47336 10.1L10.2256 12.8821L11.1344 12.8824L12.0432 12.8827L13.3286 9.64974C14.0356 7.8716 14.6392 6.35171 14.6701 6.2723L14.7261 6.12787H13.8259C13.1443 6.12787 12.9208 6.14133 12.9051 6.18342ZM15.4071 6.25008C15.3945 6.31727 15.1617 7.79215 14.8899 9.52753C14.6181 11.2629 14.3863 12.7277 14.3747 12.7828L14.3536 12.8827H15.2093H16.065L16.5878 9.56086C16.8753 7.7338 17.1101 6.21399 17.1094 6.18342C17.1085 6.14084 16.9124 6.12787 16.2691 6.12787H15.4301L15.4071 6.25008ZM24.9466 6.19062C24.6954 6.28843 24.6095 6.3714 24.4761 6.64537C24.3471 6.91032 21.9158 12.8511 21.9158 12.9014C21.9158 12.9165 22.3161 12.9235 22.8052 12.917L23.6946 12.905L23.8649 12.4161L24.0353 11.9273L25.1431 11.9155L26.2509 11.9037L26.3536 12.4043L26.4563 12.905L27.2135 12.9171C27.6299 12.9238 27.9836 12.9138 27.9994 12.8949C28.0152 12.876 27.7196 11.3507 27.3425 9.50531L26.6568 6.15009L25.8786 6.14044C25.3105 6.13342 25.0588 6.14693 24.9466 6.19062ZM25.7145 9.23924C25.847 9.89949 25.9459 10.4499 25.9343 10.4625C25.9227 10.4749 25.6082 10.4797 25.2354 10.473L24.5576 10.4608L24.9903 9.24978C25.2283 8.58371 25.4344 8.03879 25.4484 8.03879C25.4623 8.03879 25.5821 8.579 25.7145 9.23924Z" fill="white"/>
</svg>
