<svg width="27" height="27" viewBox="0 0 27 27" fill="none" xmlns="http://www.w3.org/2000/svg">
<rect x="0.5" y="0.5" width="26" height="26" rx="7.5" stroke="#6E7191"/>
<path fill-rule="evenodd" clip-rule="evenodd" d="M16.1479 10.0735C15.1448 10.2113 14.3602 10.7213 14.0259 11.453C13.9127 11.7007 13.8757 11.8436 13.8576 12.1032C13.8288 12.5145 13.9095 12.8257 14.125 13.134C14.3555 13.4639 14.6926 13.7297 15.3012 14.0616C15.6069 14.2283 15.9257 14.4346 16.0096 14.52C16.2639 14.779 16.2698 15.0442 16.0267 15.2921C15.831 15.4918 15.5805 15.5555 15.0068 15.5513C14.4721 15.5474 14.1942 15.4858 13.6903 15.2596C13.5266 15.1861 13.3877 15.1332 13.3814 15.1421C13.3674 15.1621 13.1524 16.513 13.1524 16.5813C13.1524 16.6448 13.6017 16.7956 14.0268 16.8749C14.7926 17.0177 15.4912 17.0022 16.1683 16.8275C16.314 16.7899 16.5983 16.6734 16.8 16.5687C17.269 16.3251 17.5757 16.0064 17.7879 15.5422C17.924 15.2442 17.9402 15.1709 17.9539 14.7884C17.9668 14.4312 17.9548 14.3233 17.8779 14.1003C17.8067 13.8942 17.7227 13.7676 17.4971 13.5265C17.248 13.2604 17.115 13.1656 16.5447 12.8479C15.857 12.4649 15.5976 12.2433 15.5979 12.0396C15.5981 11.8707 15.7438 11.6707 15.9422 11.5669C16.1788 11.443 16.6789 11.4026 17.0987 11.4733C17.2631 11.501 17.5275 11.5728 17.6864 11.6329C17.8453 11.6929 17.9821 11.7346 17.9904 11.7256C18.009 11.7055 18.2051 10.4701 18.2056 10.3696C18.2059 10.3166 18.1218 10.2728 17.8902 10.2056C17.5406 10.1041 16.9511 10.021 16.637 10.0291C16.5249 10.032 16.3048 10.0519 16.1479 10.0735ZM3.08594 10.1683C3.08594 10.2042 3.16773 10.2488 3.28935 10.2792C3.62007 10.3618 4.2605 10.6332 4.67017 10.8644C5.20463 11.1661 5.63724 11.5154 6.05359 11.9816C6.44537 12.4201 6.58842 12.6279 6.83405 13.1153C6.9238 13.2934 6.99752 13.4214 6.99785 13.3997C6.99817 13.378 6.8777 12.7334 6.73013 11.9672C6.58255 11.201 6.43123 10.5167 6.3939 10.4465C6.35653 10.3763 6.2742 10.2771 6.21095 10.2261C6.09961 10.1363 6.04789 10.133 4.59094 10.1208C3.34163 10.1103 3.08594 10.1184 3.08594 10.1683ZM8.94288 10.2105C8.93159 10.2408 8.57095 11.2363 8.14143 12.4228C7.71196 13.6093 7.34508 14.6098 7.32621 14.6463C7.302 14.693 7.26663 14.6159 7.20611 14.3844C7.09562 13.9619 6.95856 13.6686 6.65359 13.202C6.34238 12.7258 5.61385 11.9252 5.16921 11.5708C4.98133 11.4209 4.81982 11.3068 4.81032 11.3171C4.80083 11.3274 5.12878 12.5775 5.5391 14.0951L6.28521 16.8545L7.18658 16.8548L8.088 16.8551L9.3629 13.6485C10.0641 11.8849 10.6628 10.3774 10.6934 10.2986L10.749 10.1554H9.85616C9.18003 10.1554 8.95841 10.1687 8.94288 10.2105ZM11.4244 10.2766C11.4119 10.3432 11.181 11.8061 10.9115 13.5273C10.6419 15.2485 10.4119 16.7014 10.4004 16.756L10.3795 16.8551H11.2282H12.0769L12.5955 13.5604C12.8807 11.7482 13.1135 10.2408 13.1129 10.2105C13.112 10.1683 12.9174 10.1554 12.2794 10.1554H11.4472L11.4244 10.2766ZM20.8861 10.2176C20.6368 10.3146 20.5517 10.3969 20.4193 10.6687C20.2914 10.9315 17.88 16.8237 17.88 16.8736C17.88 16.8886 18.277 16.8956 18.7621 16.8891L19.6442 16.8772L19.8132 16.3923L19.9821 15.9075L21.0809 15.8957L22.1797 15.8841L22.2815 16.3806L22.3834 16.8772L23.1344 16.8892C23.5474 16.8959 23.8982 16.8859 23.9139 16.8672C23.9296 16.8484 23.6364 15.3356 23.2624 13.5053L22.5823 10.1774L21.8104 10.1679C21.247 10.1609 20.9974 10.1743 20.8861 10.2176ZM21.6477 13.2414C21.7791 13.8962 21.8771 14.4422 21.8657 14.4546C21.8542 14.467 21.5422 14.4717 21.1725 14.465L20.5002 14.4529L20.9294 13.2518C21.1654 12.5912 21.3699 12.0507 21.3837 12.0507C21.3975 12.0507 21.5163 12.5865 21.6477 13.2414Z" fill="#6E7191"/>
</svg>
