<svg width="28" height="28" viewBox="0 0 28 28" fill="none" xmlns="http://www.w3.org/2000/svg">
<path d="M12.7593 7.47982C12.846 7.42978 12.9341 7.38479 13.0232 7.34475V12.5934C10.9044 11.6577 10.7059 8.66534 12.7593 7.47982Z" fill="#EB365C"/>
<path d="M14.9767 20.6554V15.4065C17.0959 16.342 17.2944 19.3346 15.241 20.5202C15.1542 20.5703 15.066 20.6153 14.9767 20.6554Z" fill="#EB365C"/>
<path fill-rule="evenodd" clip-rule="evenodd" d="M0 14C0 6.26801 6.26801 0 14 0C21.732 0 28 6.26801 28 14C28 21.732 21.732 28 14 28C6.26801 28 0 21.732 0 14ZM14.9767 4.88372C14.9767 4.34428 14.5394 3.90698 14 3.90698C13.4606 3.90698 13.0232 4.34428 13.0232 4.88372V5.28496C12.5977 5.39171 12.1802 5.55851 11.7826 5.78805C8.23782 7.83461 8.68836 13.087 12.5299 14.4999L13.0232 14.6814V20.7974C12.3267 20.6009 11.7043 20.143 11.3147 19.4681L10.8256 18.621C10.5558 18.1538 9.95847 17.9938 9.4913 18.2635C9.02413 18.5332 8.86407 19.1306 9.13379 19.5977L9.6229 20.4449C10.3762 21.7497 11.6463 22.5688 13.0232 22.7952V23.1163C13.0232 23.6557 13.4606 24.093 14 24.093C14.5394 24.093 14.9767 23.6557 14.9767 23.1163V22.7151C15.4024 22.6084 15.82 22.4416 16.2177 22.212C19.7624 20.1654 19.3119 14.9131 15.4704 13.5001L14.9767 13.3185V7.20253C15.6734 7.39897 16.2959 7.85687 16.6856 8.53186L17.1747 9.37902C17.4444 9.84619 18.0418 10.0063 18.509 9.73654C18.9761 9.46681 19.1362 8.86945 18.8665 8.40228L18.3774 7.55512C17.624 6.25021 16.3538 5.4311 14.9767 5.20474V4.88372Z" fill="#EB365C"/>
</svg>
