<svg width="28" height="26" viewBox="0 0 28 26" fill="none" xmlns="http://www.w3.org/2000/svg">
<path d="M24.6438 14.3163C24.1784 14.3163 23.7865 13.9612 23.7253 13.4958C23.4314 10.728 21.9373 8.21743 19.6349 6.62535C19.2185 6.33143 19.1205 5.76808 19.4022 5.35169C19.6961 4.9353 20.2717 4.83732 20.6759 5.119C23.4191 7.01725 25.1827 10.0055 25.5378 13.2998C25.5868 13.802 25.2317 14.2551 24.7173 14.3163C24.7051 14.3163 24.6683 14.3163 24.6438 14.3163Z" fill="white"/>
<path d="M3.66703 14.3775C3.63029 14.3775 3.6058 14.3775 3.56906 14.3775C3.06694 14.3163 2.69954 13.8632 2.74852 13.3611C3.07919 10.0667 4.83047 7.0907 7.53701 5.16796C7.9534 4.87404 8.529 4.97201 8.82292 5.3884C9.11684 5.80479 9.01887 6.38039 8.60248 6.67431C6.32458 8.27864 4.85497 10.7892 4.57329 13.557C4.53655 14.0224 4.13241 14.3775 3.66703 14.3775Z" fill="white"/>
<path d="M14.161 26.0002C12.3485 26.0002 10.6217 25.5838 9.00514 24.7755C8.55201 24.5428 8.3683 23.9917 8.60099 23.5386C8.83368 23.0855 9.38479 22.9018 9.83792 23.1344C12.4832 24.4693 15.6674 24.4938 18.3372 23.2079C18.7903 22.9875 19.3414 23.1834 19.5619 23.6366C19.7823 24.0897 19.5864 24.6408 19.1332 24.8612C17.5656 25.6205 15.9001 26.0002 14.161 26.0002Z" fill="white"/>
<path d="M14.159 8.64622C11.7709 8.64622 9.83594 6.71123 9.83594 4.32311C9.83594 1.93499 11.7709 0 14.159 0C16.5472 0 18.4822 1.93499 18.4822 4.32311C18.4822 6.71123 16.5349 8.64622 14.159 8.64622ZM14.159 1.84926C12.7874 1.84926 11.673 2.96372 11.673 4.33536C11.673 5.707 12.7874 6.82145 14.159 6.82145C15.5307 6.82145 16.6451 5.707 16.6451 4.33536C16.6451 2.96372 15.5184 1.84926 14.159 1.84926Z" fill="white"/>
<path d="M5.30749 23.624C2.91937 23.624 0.984375 21.689 0.984375 19.3009C0.984375 16.925 2.91937 14.9778 5.30749 14.9778C7.69561 14.9778 9.6306 16.9128 9.6306 19.3009C9.6306 21.6768 7.69561 23.624 5.30749 23.624ZM5.30749 16.8148C3.93585 16.8148 2.82139 17.9293 2.82139 19.3009C2.82139 20.6725 3.93585 21.787 5.30749 21.787C6.67912 21.787 7.79358 20.6725 7.79358 19.3009C7.79358 17.9293 6.67912 16.8148 5.30749 16.8148Z" fill="white"/>
<path d="M22.868 23.624C20.4799 23.624 18.5449 21.689 18.5449 19.3009C18.5449 16.925 20.4799 14.9778 22.868 14.9778C25.2562 14.9778 27.1911 16.9128 27.1911 19.3009C27.1789 21.6768 25.2439 23.624 22.868 23.624ZM22.868 16.8148C21.4964 16.8148 20.3819 17.9293 20.3819 19.3009C20.3819 20.6725 21.4964 21.787 22.868 21.787C24.2397 21.787 25.3541 20.6725 25.3541 19.3009C25.3419 17.9293 24.2397 16.8148 22.868 16.8148Z" fill="white"/>
</svg>
