<svg width="26" height="26" viewBox="0 0 26 26" fill="none" xmlns="http://www.w3.org/2000/svg">
<path d="M13 26C5.82884 26 0 20.1712 0 13C0 10.146 0.906977 7.43721 2.62419 5.16372C2.92651 4.76465 3.49488 4.69209 3.89395 4.99442C4.29302 5.29674 4.37767 5.86512 4.07535 6.26419C2.6 8.21116 1.81395 10.5451 1.81395 13C1.81395 19.1674 6.83256 24.186 13 24.186C19.1674 24.186 24.186 19.1674 24.186 13C24.186 6.83256 19.1674 1.81395 13 1.81395C12.5042 1.81395 12.093 1.40279 12.093 0.906977C12.093 0.411163 12.5042 0 13 0C20.1712 0 26 5.82884 26 13C26 20.1712 20.1712 26 13 26Z" fill="white"/>
<path d="M12.999 22.3721C7.83533 22.3721 3.62695 18.1637 3.62695 13C3.62695 12.5042 4.03812 12.093 4.53393 12.093C5.02974 12.093 5.44091 12.5042 5.44091 13C5.44091 17.1721 8.82695 20.5582 12.999 20.5582C17.1711 20.5582 20.5572 17.1721 20.5572 13C20.5572 8.82793 17.1711 5.44188 12.999 5.44188C12.5032 5.44188 12.0921 5.03072 12.0921 4.53491C12.0921 4.03909 12.5032 3.62793 12.999 3.62793C18.1628 3.62793 22.3711 7.8363 22.3711 13C22.3711 18.1637 18.1628 22.3721 12.999 22.3721Z" fill="white"/>
<path d="M13.0007 18.7442C12.5049 18.7442 12.0938 18.3331 12.0938 17.8373C12.0938 17.3414 12.5049 16.9303 13.0007 16.9303C15.1654 16.9303 16.931 15.1647 16.931 13C16.931 10.8354 15.1654 9.06981 13.0007 9.06981C12.5049 9.06981 12.0938 8.65865 12.0938 8.16284C12.0938 7.66702 12.5049 7.25586 13.0007 7.25586C16.1691 7.25586 18.7449 9.83167 18.7449 13C18.7449 16.1684 16.1691 18.7442 13.0007 18.7442Z" fill="white"/>
</svg>
