<svg width="27" height="27" viewBox="0 0 27 27" fill="none" xmlns="http://www.w3.org/2000/svg">
<path d="M12.0249 16.7596C9.71647 16.7596 7.83203 14.8751 7.83203 12.5667C7.83203 10.2582 9.71647 8.37378 12.0249 8.37378C14.3334 8.37378 16.2178 10.2582 16.2178 12.5667C16.2178 14.8751 14.3334 16.7596 12.0249 16.7596ZM12.0249 10.1522C10.694 10.1522 9.5987 11.2358 9.5987 12.5785C9.5987 13.9211 10.6823 15.0047 12.0249 15.0047C13.3676 15.0047 14.4511 13.9211 14.4511 12.5785C14.4511 11.2358 13.3676 10.1522 12.0249 10.1522Z" fill="white"/>
<path d="M18.138 24.3798C17.6551 24.3798 17.2546 23.9794 17.2546 23.4965C17.2546 21.2352 14.9109 19.3978 12.0253 19.3978C9.13974 19.3978 6.79596 21.2352 6.79596 23.4965C6.79596 23.9794 6.39552 24.3798 5.91263 24.3798C5.42974 24.3798 5.0293 23.9794 5.0293 23.4965C5.0293 20.2694 8.16218 17.6311 12.0253 17.6311C15.8884 17.6311 19.0213 20.2576 19.0213 23.4965C19.0213 23.9794 18.6209 24.3798 18.138 24.3798Z" fill="white"/>
<path d="M12.0722 26.4999C5.41778 26.4999 0 21.0821 0 14.4277C0 7.77325 5.41778 2.35547 12.0722 2.35547C13.7093 2.35547 15.2876 2.67345 16.7716 3.29768C17.1956 3.47434 17.4076 3.94543 17.2662 4.38121C17.1367 4.76988 17.0778 5.18214 17.0778 5.59436C17.0778 6.28925 17.2662 6.97234 17.6313 7.56123C17.8198 7.891 18.0671 8.18544 18.3498 8.43277C19.3744 9.36321 20.8938 9.65772 22.0833 9.23372C22.5191 9.06883 23.0138 9.29259 23.1904 9.72837C23.8264 11.2241 24.1444 12.8141 24.1444 14.4395C24.1444 21.0821 18.7267 26.4999 12.0722 26.4999ZM12.0722 4.12214C6.39533 4.12214 1.76667 8.73902 1.76667 14.4277C1.76667 20.1164 6.39533 24.7332 12.0722 24.7332C17.7491 24.7332 22.3778 20.1164 22.3778 14.4277C22.3778 13.297 22.1893 12.1781 21.836 11.1063C20.2107 11.389 18.4322 10.8826 17.1838 9.74016C16.7716 9.38683 16.4064 8.95103 16.1238 8.46814C15.6056 7.62014 15.3229 6.61902 15.3229 5.59436C15.3229 5.27636 15.3464 4.97016 15.4053 4.66394C14.3336 4.29883 13.2147 4.12214 12.0722 4.12214Z" fill="white"/>
<path d="M20.905 11.1889C19.5152 11.1889 18.1961 10.6707 17.1714 9.74024C16.7592 9.38691 16.3941 8.95111 16.1114 8.46823C15.5932 7.62022 15.3105 6.61911 15.3105 5.59444C15.3105 4.99378 15.4048 4.4049 15.5932 3.83957C15.8523 3.03868 16.2999 2.29667 16.9005 1.696C17.9605 0.612447 19.3857 0 20.9168 0C22.5185 0 24.0379 0.683131 25.0743 1.86091C25.993 2.88558 26.5112 4.20467 26.5112 5.59444C26.5112 6.042 26.4523 6.48955 26.3345 6.91355C26.2168 7.44355 25.993 7.99713 25.6868 8.48001C25.0037 9.63424 23.9201 10.494 22.6481 10.8944C22.1181 11.0947 21.5292 11.1889 20.905 11.1889ZM20.905 1.76667C19.8568 1.76667 18.8792 2.17887 18.1608 2.92087C17.7485 3.34487 17.4541 3.82774 17.2774 4.3813C17.1479 4.76997 17.089 5.18222 17.089 5.59444C17.089 6.28933 17.2774 6.97242 17.6425 7.56131C17.831 7.89109 18.0783 8.18552 18.361 8.43286C19.3857 9.3633 20.905 9.65781 22.0945 9.23381C22.9897 8.95114 23.7199 8.36221 24.191 7.5731C24.403 7.23155 24.5443 6.86647 24.6268 6.50136C24.7092 6.19513 24.7445 5.90067 24.7445 5.59444C24.7445 4.65222 24.3912 3.74535 23.7552 3.03869C23.0368 2.22602 22.0003 1.76667 20.905 1.76667Z" fill="white"/>
<path d="M22.6607 6.45417H19.1392C18.6563 6.45417 18.2559 6.05372 18.2559 5.57083C18.2559 5.08794 18.6563 4.6875 19.1392 4.6875H22.6607C23.1436 4.6875 23.5441 5.08794 23.5441 5.57083C23.5441 6.05372 23.1554 6.45417 22.6607 6.45417Z" fill="white"/>
<path d="M20.9048 8.25623C20.4219 8.25623 20.0215 7.85578 20.0215 7.37289V3.85135C20.0215 3.36846 20.4219 2.96802 20.9048 2.96802C21.3877 2.96802 21.7882 3.36846 21.7882 3.85135V7.37289C21.7882 7.86756 21.3877 8.25623 20.9048 8.25623Z" fill="white"/>
</svg>
