<svg width="35" height="35" viewBox="0 0 35 35" fill="none" xmlns="http://www.w3.org/2000/svg">
<circle cx="17.5" cy="17.5" r="17.5" fill="#EB365C"/>
<path d="M19.8433 16.3084C20.1022 16.0496 20.1022 15.6299 19.8433 15.3711C19.5845 15.1123 19.1648 15.1123 18.906 15.3711L17.5 16.7771L16.094 15.3711C15.8352 15.1123 15.4155 15.1123 15.1567 15.3711C14.8978 15.6299 14.8978 16.0496 15.1567 16.3084L16.5627 17.7144L15.1567 19.1204C14.8978 19.3793 14.8978 19.7989 15.1567 20.0577C15.4155 20.3166 15.8352 20.3166 16.094 20.0577L17.5 18.6518L18.906 20.0577C19.1648 20.3166 19.5845 20.3166 19.8433 20.0577C20.1022 19.7989 20.1022 19.3793 19.8433 19.1204L18.4373 17.7144L19.8433 16.3084Z" fill="white"/>
<path fill-rule="evenodd" clip-rule="evenodd" d="M17.5 8C12.2533 8 8 12.2533 8 17.5C8 22.7467 12.2533 27 17.5 27C22.7467 27 27 22.7467 27 17.5C27 12.2533 22.7467 8 17.5 8ZM9.32558 17.5C9.32558 12.9854 12.9854 9.32558 17.5 9.32558C22.0146 9.32558 25.6744 12.9854 25.6744 17.5C25.6744 22.0146 22.0146 25.6744 17.5 25.6744C12.9854 25.6744 9.32558 22.0146 9.32558 17.5Z" fill="white"/>
</svg>
