<svg width="35" height="35" viewBox="0 0 35 35" fill="none" xmlns="http://www.w3.org/2000/svg">
<circle cx="17.5" cy="17.5" r="17.5" fill="#EB365C"/>
<rect width="1.69814" height="18.4675" transform="matrix(-0.707099 -0.707114 -0.707099 0.707114 24.6289 11.5708)" fill="white"/>
<rect width="1.69814" height="18.4675" transform="matrix(0.707099 -0.707114 0.707099 0.707114 10.3691 11.5708)" fill="white"/>
<circle cx="17.5" cy="17.5" r="17.5" fill="#0FDE6E"/>
<path d="M22.4124 15.2909C22.6566 15.0182 22.6334 14.5992 22.3607 14.355C22.088 14.1109 21.669 14.134 21.4248 14.4067L18.4474 17.7323C17.8441 18.4062 17.4378 18.8576 17.0904 19.1496C16.7595 19.4277 16.5651 19.4884 16.3953 19.4884C16.2256 19.4884 16.0312 19.4277 15.7003 19.1496C15.3529 18.8576 14.9466 18.4062 14.3433 17.7323L13.5752 16.8744C13.331 16.6017 12.912 16.5785 12.6393 16.8227C12.3666 17.0669 12.3434 17.4859 12.5876 17.7586L13.3885 18.6532C13.9504 19.2809 14.4191 19.8044 14.8474 20.1644C15.3004 20.5451 15.7891 20.814 16.3953 20.814C17.0016 20.814 17.4903 20.5451 17.9433 20.1644C18.3716 19.8044 18.8403 19.2809 19.4022 18.6532L22.4124 15.2909Z" fill="white"/>
<path fill-rule="evenodd" clip-rule="evenodd" d="M17.5 8C12.2533 8 8 12.2533 8 17.5C8 22.7467 12.2533 27 17.5 27C22.7467 27 27 22.7467 27 17.5C27 12.2533 22.7467 8 17.5 8ZM9.32558 17.5C9.32558 12.9854 12.9854 9.32558 17.5 9.32558C22.0146 9.32558 25.6744 12.9854 25.6744 17.5C25.6744 22.0146 22.0146 25.6744 17.5 25.6744C12.9854 25.6744 9.32558 22.0146 9.32558 17.5Z" fill="white"/>
</svg>
