<svg width="35" height="35" viewBox="0 0 35 35" fill="none" xmlns="http://www.w3.org/2000/svg">
<circle cx="17.5" cy="17.5" r="17.5" fill="#EB365C"/>
<rect width="1.69814" height="18.4675" transform="matrix(-0.707099 -0.707114 -0.707099 0.707114 24.6289 11.5708)" fill="white"/>
<rect width="1.69814" height="18.4675" transform="matrix(0.707099 -0.707114 0.707099 0.707114 10.3691 11.5708)" fill="white"/>
<circle cx="17.5" cy="17.5" r="17.5" fill="#FF7B30"/>
<path d="M18.3837 21.0349C18.3837 21.5229 17.9881 21.9186 17.5 21.9186C17.0119 21.9186 16.6163 21.5229 16.6163 21.0349C16.6163 20.5468 17.0119 20.1512 17.5 20.1512C17.9881 20.1512 18.3837 20.5468 18.3837 21.0349Z" fill="white"/>
<path d="M18.1628 13.0814C18.1628 12.7153 17.866 12.4186 17.5 12.4186C17.134 12.4186 16.8372 12.7153 16.8372 13.0814V18.3837C16.8372 18.7498 17.134 19.0465 17.5 19.0465C17.866 19.0465 18.1628 18.7498 18.1628 18.3837V13.0814Z" fill="white"/>
<path fill-rule="evenodd" clip-rule="evenodd" d="M17.5 8C12.2533 8 8 12.2533 8 17.5C8 22.7467 12.2533 27 17.5 27C22.7467 27 27 22.7467 27 17.5C27 12.2533 22.7467 8 17.5 8ZM9.32558 17.5C9.32558 12.9854 12.9854 9.32558 17.5 9.32558C22.0146 9.32558 25.6744 12.9854 25.6744 17.5C25.6744 22.0146 22.0146 25.6744 17.5 25.6744C12.9854 25.6744 9.32558 22.0146 9.32558 17.5Z" fill="white"/>
</svg>
