<svg width="20" height="20" viewBox="0 0 20 20" fill="none" xmlns="http://www.w3.org/2000/svg">
<path d="M2.78249 16.4236C4.56408 18.2052 6.98044 19.2061 9.5 19.2061C12.0189 19.2039 14.434 18.2024 16.2152 16.4212C17.9963 14.6401 18.9979 12.225 19 9.70605C19 9.53027 18.9302 9.3617 18.8059 9.2374C18.6816 9.1131 18.513 9.04328 18.3372 9.04328C18.1614 9.04328 17.9929 9.1131 17.8686 9.2374C17.7443 9.3617 17.6744 9.53027 17.6744 9.70605C17.6744 11.3228 17.195 12.9033 16.2968 14.2475C15.3986 15.5918 14.1219 16.6396 12.6282 17.2583C11.1345 17.877 9.49093 18.0388 7.90524 17.7234C6.31956 17.408 4.86301 16.6295 3.7198 15.4863C2.57658 14.343 1.79804 12.8865 1.48263 11.3008C1.16721 9.71512 1.32909 8.07152 1.9478 6.57783C2.5665 5.08415 3.61424 3.80747 4.95852 2.90925C6.3028 2.01103 7.88325 1.53161 9.5 1.53161C9.67539 1.53036 9.84325 1.46013 9.96727 1.33611C10.0913 1.21208 10.1615 1.04423 10.1628 0.868833C10.1615 0.693439 10.0913 0.525584 9.96727 0.401559C9.84325 0.277533 9.67539 0.207304 9.5 0.206055C6.98044 0.206055 4.56408 1.20694 2.78249 2.98854C1.00089 4.77014 0 7.1865 0 9.70605C0 12.2256 1.00089 14.642 2.78249 16.4236Z" fill="white"/>
<path fill-rule="evenodd" clip-rule="evenodd" d="M9.49948 14.345C9.32409 14.3437 9.15623 14.2735 9.03221 14.1495C8.90818 14.0254 8.83795 13.8576 8.8367 13.6822V13.6027C7.66905 13.235 6.62704 12.1958 6.62704 11.1956C6.62843 11.0203 6.69876 10.853 6.82277 10.7291C6.94678 10.6051 7.11452 10.5346 7.28982 10.5333C7.46545 10.5342 7.63347 10.6041 7.75791 10.728C7.88235 10.852 7.95314 11.02 7.95467 11.1956C7.95467 11.3472 8.03926 11.5166 8.29642 11.803C8.45661 11.9605 8.63911 12.0911 8.8367 12.1912V10.174L7.95364 9.86589C7.54354 9.75433 7.18635 9.50197 6.94394 9.15289C6.70152 8.8038 6.58937 8.38053 6.62808 7.95729C6.62808 6.99652 7.63412 5.8894 8.84161 5.65268C8.85959 5.50542 8.92628 5.36751 9.03221 5.26158C9.15623 5.13756 9.32409 5.06733 9.49948 5.06608C9.67488 5.06733 9.84273 5.13756 9.96676 5.26158C10.0908 5.38561 10.161 5.55346 10.1623 5.72886V5.74592C11.3293 6.11403 12.3735 7.15302 12.3735 8.15354C12.372 8.3288 12.3018 8.49619 12.1778 8.62007C12.0538 8.74396 11.886 8.81442 11.7108 8.8158C11.5355 8.81442 11.3687 8.74396 11.2447 8.62007C11.1208 8.49619 11.0495 8.3288 11.048 8.15354C11.048 7.82872 10.6541 7.41677 10.1623 7.16359V9.2323L11.049 9.54279C11.4019 9.6356 11.717 9.8355 11.951 10.1155C12.185 10.3954 12.3262 10.7412 12.3549 11.105C12.3681 11.2011 12.3747 11.2979 12.3746 11.3949V11.4503C12.336 12.3984 11.3471 13.467 10.162 13.6974C10.1569 13.8672 10.0872 14.029 9.96676 14.1495C9.84273 14.2735 9.67488 14.3437 9.49948 14.345ZM8.8367 7.01683V8.76817L8.38859 8.61127C8.08848 8.50629 7.95674 8.43553 7.95674 7.95833C8.04503 7.65125 8.23436 7.38311 8.49422 7.19717C8.60037 7.12121 8.71568 7.06074 8.8367 7.01683ZM10.1623 12.333V10.6365L10.613 10.7938C10.9036 10.8956 11.0385 10.9647 11.0459 11.4058C10.9529 11.709 10.7624 11.9728 10.5033 12.1556C10.3974 12.2303 10.2826 12.2897 10.1623 12.333Z" fill="white"/>
<path d="M14.5812 3.68816V1.75217C14.5799 1.57678 14.5097 1.40892 14.3857 1.2849C14.2616 1.16087 14.0938 1.09064 13.9184 1.08939C13.743 1.09064 13.5751 1.16087 13.4511 1.2849C13.3271 1.40892 13.2569 1.57678 13.2556 1.75217V5.28717C13.2564 5.40037 13.286 5.51043 13.3401 5.6076C13.3696 5.66125 13.4065 5.71104 13.4502 5.75536C13.5114 5.81727 13.5843 5.86636 13.6647 5.89977C13.7451 5.93318 13.8313 5.95024 13.9184 5.94995C13.9207 5.94996 13.923 5.94996 13.9253 5.94995H17.4534C17.6292 5.94995 17.7977 5.88012 17.922 5.75582C18.0463 5.63153 18.1162 5.46295 18.1162 5.28717C18.1162 5.11139 18.0463 4.94281 17.922 4.81851C17.7977 4.69422 17.6292 4.62439 17.4534 4.62439H15.5187L18.8076 1.33755C18.9318 1.21331 19.0016 1.0448 19.0016 0.869096C19.0016 0.693392 18.9318 0.524885 18.8076 0.400644C18.6833 0.276403 18.5148 0.206605 18.3391 0.206605C18.1634 0.206605 17.9949 0.276403 17.8707 0.400644L14.5812 3.68816Z" fill="white"/>
</svg>
