<svg width="12" height="17" viewBox="0 0 12 17" fill="none" xmlns="http://www.w3.org/2000/svg">
<path d="M6.10594 16.9999H5.88726C4.67179 17.0014 3.48549 16.6334 2.49167 15.9464C1.49522 15.2625 0.739008 14.2923 0.327408 13.1692C0.156776 12.6828 0.0582584 12.1749 0.0348609 11.661V11.653C-0.0117199 11.4411 -0.0115207 11.2218 0.0348609 11.0098C0.0812426 10.7978 0.172799 10.598 0.303926 10.4235C0.543351 10.1353 0.88206 9.94282 1.25593 9.88251L2.07535 9.83929H9.92421L10.7427 9.88251C11.1167 9.94242 11.4555 10.1349 11.6947 10.4235C11.826 10.5979 11.918 10.7977 11.9647 11.0097C12.0114 11.2217 12.0118 11.4409 11.9657 11.653V11.6599C11.9419 12.1738 11.8434 12.6818 11.6731 13.1683C11.2613 14.2914 10.5054 15.2618 9.50936 15.9464C8.51309 16.6345 7.32407 17.0026 6.10594 16.9999ZM2.96864 10.9562L2.33659 10.9857C2.05599 11.0238 1.79731 11.1555 1.60375 11.3585C1.50421 11.474 1.43332 11.6107 1.39731 11.7577C1.36129 11.9048 1.36112 12.0581 1.39633 12.2053V12.2093C1.41417 12.565 1.4899 12.9155 1.62136 13.2474C1.99356 14.0519 2.59909 14.7309 3.36197 15.1997C4.12485 15.6685 5.01153 15.9063 5.91123 15.8835H6.08148C6.98128 15.9068 7.86827 15.6691 8.63123 15.2003C9.3942 14.7314 9.99952 14.0521 10.3713 13.2474C10.5023 12.9154 10.5779 12.5649 10.5959 12.2093V12.2044C10.631 12.0572 10.6307 11.9039 10.5944 11.757C10.5581 11.6101 10.4869 11.4736 10.387 11.3585C10.194 11.1548 9.93503 11.023 9.65417 10.9857L9.02211 10.9562H2.96864ZM5.9489 7.20525C5.46688 7.20648 4.98916 7.11371 4.5439 6.93246C4.09863 6.75121 3.69482 6.4851 3.35512 6.14938C3.01326 5.81583 2.74175 5.41897 2.55722 4.98185C2.37269 4.54473 2.27855 4.07605 2.27984 3.60288C2.27857 3.12949 2.37269 2.66054 2.55722 2.22318C2.74175 1.78583 3.01326 1.38867 3.35512 1.05481C3.69481 0.719132 4.09861 0.453057 4.5439 0.271969C4.98918 0.0908808 5.46693 -0.00162369 5.9489 -0.000103637C6.43117 -0.00161218 6.90879 0.0908889 7.3544 0.271969C7.8 0.453049 8.20455 0.719117 8.54464 1.05481C8.88628 1.38881 9.15713 1.78597 9.34156 2.2233C9.52599 2.66063 9.6206 3.12955 9.61943 3.60288C9.62062 4.07599 9.526 4.54463 9.34156 4.98173C9.15713 5.41882 8.88627 5.81569 8.54464 6.14938C8.20452 6.4851 7.79998 6.75122 7.3544 6.93246C6.90882 7.1137 6.43121 7.20644 5.9489 7.20525ZM5.9489 1.10692C5.27581 1.10783 4.63034 1.37078 4.15449 1.83813C3.67863 2.30547 3.41106 2.93908 3.4104 3.59987C3.41119 4.26063 3.67915 4.89407 4.15497 5.36138C4.6308 5.8287 5.27585 6.09179 5.9489 6.09283C6.62217 6.09205 7.26769 5.82907 7.74381 5.36174C8.21993 4.89441 8.48746 4.26084 8.48838 3.59987C8.48679 2.93933 8.21888 2.30636 7.74283 1.83957C7.26678 1.37277 6.62174 1.11022 5.9489 1.10944V1.10692Z" fill="#6E7191"/>
</svg>
