<svg width="35" height="35" viewBox="0 0 35 35" fill="none" xmlns="http://www.w3.org/2000/svg">
<rect x="0.5" y="0.5" width="34" height="34" rx="7.5" stroke="#6E7191"/>
<path fill-rule="evenodd" clip-rule="evenodd" d="M20.9322 13.0582C19.6319 13.2369 18.6148 13.898 18.1815 14.8465C18.0347 15.1676 17.9867 15.3528 17.9632 15.6893C17.9259 16.2225 18.0306 16.6259 18.3098 17.0256C18.6087 17.4532 19.0457 17.7978 19.8345 18.228C20.2309 18.4442 20.6441 18.7116 20.7528 18.8223C21.0826 19.158 21.0902 19.5017 20.7751 19.8232C20.5213 20.082 20.1966 20.1645 19.4529 20.1591C18.7598 20.154 18.3996 20.0742 17.7464 19.7809C17.5342 19.6857 17.3541 19.6171 17.346 19.6286C17.3278 19.6546 17.0492 21.4057 17.0492 21.4943C17.0492 21.5766 17.6316 21.7721 18.1826 21.8748C19.1753 22.06 20.0809 22.0399 20.9586 21.8134C21.1475 21.7647 21.516 21.6137 21.7775 21.4779C22.3855 21.1622 22.7831 20.7491 23.0581 20.1474C23.2346 19.7611 23.2555 19.666 23.2733 19.1702C23.29 18.7072 23.2745 18.5672 23.1748 18.2782C23.0825 18.011 22.9736 17.8468 22.6811 17.5344C22.3582 17.1894 22.1858 17.0665 21.4465 16.6547C20.5551 16.1582 20.2188 15.871 20.2192 15.6068C20.2195 15.388 20.4084 15.1287 20.6656 14.9941C20.9722 14.8335 21.6205 14.7812 22.1647 14.8729C22.3777 14.9087 22.7206 15.0018 22.9265 15.0796C23.1325 15.1575 23.3098 15.2116 23.3206 15.1999C23.3448 15.1737 23.5989 13.5724 23.5996 13.4421C23.6 13.3734 23.4909 13.3166 23.1907 13.2295C22.7375 13.0979 21.9734 12.9902 21.5662 13.0007C21.4209 13.0044 21.1356 13.0303 20.9322 13.0582ZM4 13.1811C4 13.2277 4.10603 13.2855 4.26368 13.3249C4.6924 13.4319 5.52258 13.7838 6.05363 14.0835C6.74645 14.4746 7.30725 14.9274 7.84696 15.5316C8.35482 16.1002 8.54026 16.3696 8.85867 17.0013C8.975 17.2322 9.07057 17.3981 9.071 17.37C9.07142 17.3419 8.91525 16.5062 8.72395 15.513C8.53265 14.5198 8.33649 13.6328 8.2881 13.5418C8.23965 13.4508 8.13294 13.3222 8.05094 13.2561C7.90661 13.1397 7.83957 13.1353 5.95093 13.1195C4.33146 13.106 4 13.1165 4 13.1811ZM11.5923 13.2358C11.5777 13.2751 11.1102 14.5656 10.5534 16.1036C9.99669 17.6417 9.52111 18.9387 9.49665 18.9859C9.46527 19.0466 9.41941 18.9465 9.34096 18.6465C9.19774 18.0988 9.02007 17.7185 8.62474 17.1137C8.22132 16.4965 7.27692 15.4586 6.70054 14.9991C6.45699 14.8049 6.24762 14.657 6.23531 14.6703C6.22301 14.6836 6.64813 16.3041 7.18003 18.2714L8.1472 21.8484L9.31565 21.8488L10.4842 21.8492L12.1368 17.6925C13.0458 15.4063 13.8219 13.4522 13.8615 13.3501L13.9336 13.1644H12.7762C11.8998 13.1644 11.6125 13.1817 11.5923 13.2358ZM14.8091 13.3215C14.7929 13.4079 14.4936 15.3042 14.1442 17.5354C13.7947 19.7666 13.4966 21.65 13.4817 21.7207L13.4547 21.8492H14.5548H15.655L16.3272 17.5782C16.6969 15.2292 16.9987 13.2751 16.9979 13.2358C16.9967 13.1811 16.7445 13.1644 15.9175 13.1644H14.8387L14.8091 13.3215ZM27.0742 13.2451C26.7512 13.3708 26.6408 13.4775 26.4692 13.8298C26.3034 14.1704 23.1775 21.8086 23.1775 21.8732C23.1775 21.8927 23.6921 21.9017 24.321 21.8932L25.4644 21.8778L25.6835 21.2493L25.9025 20.6208L27.3268 20.6056L28.7511 20.5905L28.8832 21.2341L29.0153 21.8778L29.9888 21.8934C30.5242 21.902 30.9789 21.8892 30.9992 21.8648C31.0195 21.8406 30.6394 19.8794 30.1546 17.5068L29.2731 13.193L28.2725 13.1806C27.5421 13.1715 27.2185 13.1889 27.0742 13.2451ZM28.0615 17.1647C28.2319 18.0136 28.359 18.7213 28.3441 18.7374C28.3292 18.7535 27.9249 18.7596 27.4456 18.751L26.574 18.7353L27.1304 17.1783C27.4364 16.3219 27.7014 15.6213 27.7193 15.6213C27.7373 15.6213 27.8913 16.3159 28.0615 17.1647Z" fill="#6E7191"/>
</svg>
