<svg width="27" height="27" viewBox="0 0 27 27" fill="none" xmlns="http://www.w3.org/2000/svg">
<rect x="0.5" y="0.5" width="26" height="26" rx="7.5" stroke="#6E7191"/>
<rect x="0.5" y="0.5" width="26" height="26" rx="7.5" stroke="#6E7191"/>
<path fill-rule="evenodd" clip-rule="evenodd" d="M15.7055 21.2994H11.3184V13.415H15.7056L15.7055 21.2994Z" fill="#9DA0BA"/>
<path fill-rule="evenodd" clip-rule="evenodd" d="M11.5966 17.3573C11.5966 15.758 12.3455 14.3333 13.5116 13.4151C12.6291 12.7192 11.5369 12.3413 10.4131 12.343C7.64404 12.343 5.39941 14.588 5.39941 17.3573C5.39941 20.1266 7.64404 22.3716 10.4131 22.3716C11.5369 22.3733 12.6291 21.9954 13.5117 21.2995C12.3456 20.3815 11.5966 18.9567 11.5966 17.3573Z" fill="#6E7191"/>
<path fill-rule="evenodd" clip-rule="evenodd" d="M21.6253 17.3573C21.6253 20.1266 19.3807 22.3716 16.6117 22.3716C15.4877 22.3732 14.3954 21.9954 13.5127 21.2995C14.6791 20.3813 15.428 18.9567 15.428 17.3573C15.428 15.7579 14.6791 14.3333 13.5127 13.4151C14.3954 12.7192 15.4876 12.3414 16.6116 12.343C19.3806 12.343 21.6253 14.588 21.6253 17.3573" fill="#6E7191"/>
<path fill-rule="evenodd" clip-rule="evenodd" d="M15.5597 4.66361C14.7795 4.77077 14.1693 5.16749 13.9093 5.73654C13.8212 5.9292 13.7924 6.04035 13.7783 6.24224C13.7559 6.56216 13.8187 6.80423 13.9863 7.044C14.1656 7.30056 14.4278 7.50736 14.9011 7.76547C15.1389 7.89516 15.3869 8.0556 15.4521 8.12204C15.6499 8.32345 15.6545 8.52969 15.4654 8.72256C15.3132 8.87786 15.1184 8.92736 14.6722 8.9241C14.2563 8.92105 14.0402 8.87316 13.6482 8.69722C13.5209 8.64008 13.4128 8.59894 13.408 8.60583C13.3971 8.62143 13.2299 9.67207 13.2299 9.72525C13.2299 9.77461 13.5793 9.89193 13.9099 9.95357C14.5056 10.0646 15.0489 10.0526 15.5756 9.91671C15.6889 9.88747 15.91 9.7969 16.0669 9.71541C16.4317 9.52596 16.6702 9.2781 16.8352 8.91708C16.9411 8.68529 16.9537 8.62825 16.9644 8.33078C16.9744 8.05296 16.9651 7.969 16.9052 7.79557C16.8499 7.63526 16.7845 7.53677 16.609 7.34928C16.4153 7.14232 16.3118 7.06858 15.8683 6.82147C15.3335 6.52356 15.1317 6.35125 15.1319 6.19277C15.1321 6.06147 15.2454 5.90589 15.3997 5.82512C15.5837 5.72879 15.9727 5.69735 16.2992 5.75238C16.427 5.77391 16.6327 5.82975 16.7563 5.87644C16.8799 5.92314 16.9863 5.9556 16.9928 5.94857C17.0072 5.93291 17.1597 4.97211 17.1602 4.89391C17.1604 4.85267 17.095 4.81863 16.9148 4.76635C16.6429 4.6874 16.1844 4.62281 15.9401 4.62908C15.8529 4.63131 15.6817 4.64684 15.5597 4.66361ZM5.40039 4.73735C5.40039 4.76529 5.46401 4.79998 5.5586 4.8236C5.81583 4.88781 6.31394 5.09892 6.63257 5.27877C7.04826 5.5134 7.38474 5.78508 7.70857 6.14765C8.01328 6.48876 8.12455 6.6504 8.31559 7.02943C8.38539 7.16796 8.44273 7.26752 8.44299 7.25065C8.44324 7.23378 8.34954 6.7324 8.23476 6.13648C8.11998 5.54055 8.00229 5.00831 7.97325 4.95374C7.94418 4.89913 7.88015 4.82199 7.83096 4.78233C7.74436 4.71246 7.70413 4.70985 6.57095 4.70039C5.59927 4.69227 5.40039 4.69854 5.40039 4.73735ZM9.95579 4.77016C9.94701 4.79374 9.66651 5.56804 9.33244 6.49085C8.99841 7.41366 8.71306 8.19187 8.69838 8.22022C8.67955 8.25659 8.65204 8.19657 8.60497 8.01655C8.51903 7.68795 8.41243 7.45977 8.17523 7.09689C7.93318 6.72654 7.36654 6.10384 7.02071 5.82814C6.87459 5.71162 6.74896 5.62286 6.74158 5.63085C6.73419 5.63883 6.98927 6.61115 7.30841 7.79152L7.88871 9.93769L8.58978 9.93797L9.29089 9.93821L10.2825 7.44417C10.8278 6.07247 11.2935 4.89998 11.3173 4.83872L11.3605 4.7273H10.6661C10.1402 4.7273 9.96787 4.73769 9.95579 4.77016ZM11.8859 4.82158C11.8761 4.87341 11.6966 6.01117 11.4869 7.3499C11.2772 8.68862 11.0984 9.81863 11.0894 9.86107L11.0732 9.93821H11.7333H12.3934L12.7967 7.37561C13.0185 5.96616 13.1996 4.79374 13.1991 4.77016C13.1984 4.73731 13.0471 4.7273 12.5509 4.7273H11.9036L11.8859 4.82158ZM19.2449 4.77571C19.0511 4.85116 18.9848 4.91517 18.8819 5.12652C18.7824 5.33091 16.9069 9.9138 16.9069 9.95261C16.9069 9.96426 17.2156 9.96968 17.593 9.96461L18.279 9.95535L18.4105 9.57824L18.5419 9.20114L19.3965 9.19202L20.2511 9.18294L20.3303 9.56913L20.4096 9.95535L20.9937 9.96471C21.3149 9.96989 21.5877 9.96217 21.5999 9.94757C21.6121 9.933 21.3841 8.75633 21.0932 7.33276L20.5642 4.74444L19.9639 4.737C19.5256 4.73159 19.3315 4.74201 19.2449 4.77571ZM19.8373 7.12751C19.9395 7.63684 20.0158 8.06146 20.0069 8.07113C19.9979 8.08076 19.7553 8.08443 19.4677 8.07925L18.9448 8.06982L19.2786 7.13563C19.4622 6.62181 19.6212 6.20144 19.632 6.20144C19.6427 6.20144 19.7351 6.61818 19.8373 7.12751Z" fill="#6E7191"/>
</svg>
