<svg width="26" height="27" viewBox="0 0 26 27" fill="none" xmlns="http://www.w3.org/2000/svg">
<path d="M11.3253 11.1382C11.3253 10.2594 12.0729 9.54705 12.9952 9.54705C13.9174 9.54705 14.6651 10.2594 14.6651 11.1382C14.6651 12.017 13.9174 12.7294 12.9952 12.7294C12.0729 12.7294 11.3253 12.017 11.3253 11.1382Z" fill="#3A63ED"/>
<path fill-rule="evenodd" clip-rule="evenodd" d="M6.00997 3.55363C6.00997 1.59101 7.67972 0 9.73945 0H16.6409C18.4854 0 19.9807 1.42479 19.9807 3.18235C19.9807 3.88538 20.5788 4.45529 21.3167 4.45529H22.104C24.2212 4.45529 26.0834 6.02099 25.9971 8.16669C25.8865 10.9176 25.3258 15.3302 23.077 19.2351C22.4674 20.2937 21.6533 21.3335 20.7732 22.3023L20.707 22.3753C19.4409 23.7691 18.3853 24.9313 17.2505 25.7235C16.0299 26.5756 14.7271 27 12.9953 27C11.2636 27 9.96081 26.5756 8.74018 25.7235C7.60535 24.9313 6.54975 23.7691 5.28373 22.3752L5.21747 22.3023C4.33741 21.3335 3.5233 20.2937 2.91373 19.2351C0.737287 15.4558 0.140589 11.466 0.00496095 8.90611C-0.109271 6.75005 1.76627 5.19784 3.87177 5.19784H4.28439C5.2374 5.19784 6.00997 4.4617 6.00997 3.55363ZM12.9952 7.63764C10.9662 7.63764 9.32136 9.20491 9.32136 11.1382C9.32136 12.7406 10.4512 14.0915 11.9932 14.507V18.7759C11.9932 19.3031 12.4418 19.7306 12.9952 19.7306C13.5485 19.7306 13.9971 19.3031 13.9971 18.7759V14.507C15.5391 14.0915 16.669 12.7406 16.669 11.1382C16.669 9.20491 15.0242 7.63764 12.9952 7.63764Z" fill="#3A63ED"/>
</svg>
