<svg width="19" height="20" viewBox="0 0 19 20" fill="none" xmlns="http://www.w3.org/2000/svg">
<path d="M9.4992 19.2061C6.97986 19.2061 4.5637 18.2052 2.78225 16.4236C1.00081 14.642 0 12.2256 0 9.70605C0 7.1865 1.00081 4.77014 2.78225 2.98854C4.5637 1.20694 6.97986 0.206055 9.4992 0.206055C9.67458 0.207304 9.84242 0.277533 9.96644 0.401559C10.0905 0.525584 10.1607 0.693439 10.1619 0.868833C10.1607 1.04423 10.0905 1.21208 9.96644 1.33611C9.84242 1.46013 9.67458 1.53036 9.4992 1.53161C7.88259 1.53161 6.30227 2.01103 4.95811 2.90925C3.61394 3.80747 2.56629 5.08415 1.94764 6.57783C1.32898 8.07152 1.16712 9.71512 1.4825 11.3008C1.79789 12.8865 2.57636 14.343 3.71948 15.4863C4.8626 16.6295 6.31903 17.408 7.90458 17.7234C9.49014 18.0388 11.1336 17.877 12.6272 17.2583C14.1207 16.6396 15.3973 15.5918 16.2954 14.2475C17.1936 12.9033 17.673 11.3228 17.673 9.70605C17.673 9.53027 17.7428 9.3617 17.8671 9.2374C17.9914 9.1131 18.1599 9.04328 18.3357 9.04328C18.5114 9.04328 18.68 9.1131 18.8043 9.2374C18.9286 9.3617 18.9984 9.53027 18.9984 9.70605C18.9963 12.225 17.9948 14.6401 16.2138 16.4212C14.4328 18.2024 12.0179 19.2039 9.4992 19.2061Z" fill="white"/>
<path fill-rule="evenodd" clip-rule="evenodd" d="M9.49868 14.345C9.32331 14.3437 9.15546 14.2735 9.03145 14.1495C8.90744 14.0254 8.83721 13.8576 8.83596 13.6822V13.6031C7.66798 13.2356 6.62545 12.1961 6.62545 11.1956C6.62684 11.0203 6.69716 10.853 6.82116 10.7291C6.94516 10.6051 7.11289 10.5346 7.28818 10.5333C7.46379 10.5342 7.6318 10.6041 7.75622 10.728C7.88065 10.852 7.95144 11.02 7.95297 11.1956C7.95297 11.3472 8.03755 11.5166 8.29469 11.803C8.45515 11.9608 8.63799 12.0915 8.83596 12.1917V10.1744L7.95193 9.86589C7.54187 9.75433 7.18472 9.50197 6.94232 9.15289C6.69992 8.8038 6.58778 8.38053 6.62649 7.95729C6.62649 6.99623 7.63303 5.88875 8.84089 5.65247C8.85891 5.50529 8.92558 5.36746 9.03145 5.26158C9.15546 5.13756 9.32331 5.06733 9.49868 5.06608C9.67406 5.06733 9.84191 5.13756 9.96592 5.26158C10.0899 5.38561 10.1602 5.55346 10.1614 5.72886V5.74624C11.328 6.11465 12.3715 7.15332 12.3715 8.15354C12.3699 8.3288 12.2997 8.49619 12.1758 8.62007C12.0518 8.74396 11.884 8.81442 11.7087 8.8158C11.5335 8.81442 11.3667 8.74396 11.2428 8.62007C11.1188 8.49619 11.0475 8.3288 11.046 8.15354C11.046 7.82895 10.6527 7.41735 10.1614 7.16412V9.23266L11.0471 9.54279C11.3999 9.6356 11.715 9.8355 11.949 10.1155C12.1829 10.3954 12.3241 10.7412 12.3528 11.105C12.366 11.2011 12.3726 11.2979 12.3725 11.3949V11.4503C12.334 12.3981 11.3457 13.4663 10.1611 13.6972C10.1561 13.8671 10.0864 14.029 9.96592 14.1495C9.84191 14.2735 9.67406 14.3437 9.49868 14.345ZM10.1614 12.3326C10.2814 12.2894 10.3958 12.2301 10.5013 12.1556C10.7604 11.9728 10.9509 11.709 11.0439 11.4058C11.0365 10.9647 10.9016 10.8956 10.6111 10.7938L10.1614 10.6369V12.3326ZM8.83596 7.01645C8.71457 7.06039 8.59891 7.121 8.49247 7.19717C8.23264 7.38311 8.04332 7.65125 7.95504 7.95833C7.95504 8.43553 8.08677 8.50629 8.38685 8.61127L8.83596 8.76854V7.01645Z" fill="white"/>
<path d="M13.6636 5.89977C13.7439 5.93318 13.8302 5.95024 13.9172 5.94995C14.0042 5.95031 14.0904 5.93333 14.1708 5.90001C14.2512 5.86669 14.3241 5.8177 14.3854 5.75589L17.6714 2.47158V4.40595C17.6726 4.58134 17.7428 4.7492 17.8668 4.87322C17.9909 4.99725 18.1587 5.06748 18.3341 5.06873C18.5095 5.06748 18.6773 4.99725 18.8013 4.87322C18.9253 4.7492 18.9956 4.58134 18.9968 4.40595V0.934134C18.9989 0.912613 19 0.89091 19 0.869096C19 0.693392 18.9302 0.524885 18.806 0.400644C18.6817 0.276403 18.5133 0.206605 18.3376 0.206605C18.3223 0.206605 18.3071 0.207132 18.292 0.208175H14.7994C14.624 0.209424 14.4562 0.279653 14.3321 0.403679C14.2081 0.527704 14.1379 0.695559 14.1367 0.870953C14.1379 1.04635 14.2081 1.2142 14.3321 1.33823C14.4562 1.46225 14.624 1.53248 14.7994 1.53373H16.7355L13.4491 4.81846C13.3259 4.94328 13.2569 5.11157 13.2569 5.28691C13.2569 5.46225 13.3259 5.63054 13.4491 5.75536C13.5103 5.81727 13.5832 5.86636 13.6636 5.89977Z" fill="white"/>
</svg>
